<svg width="1200" height="630" viewBox="0 0 1200 630" fill="none" xmlns="http://www.w3.org/2000/svg">
  <!-- Background Gradient -->
  <defs>
    <linearGradient id="bgGradient" x1="0" y1="0" x2="1200" y2="630" gradientUnits="userSpaceOnUse">
      <stop offset="0%" stop-color="#0a0a0a"/>
      <stop offset="50%" stop-color="#1a1a2e"/>
      <stop offset="100%" stop-color="#0a0a0a"/>
    </linearGradient>
    <radialGradient id="glowGradient" cx="50%" cy="50%">
      <stop offset="0%" stop-color="#9333ea" stop-opacity="0.3"/>
      <stop offset="100%" stop-color="#9333ea" stop-opacity="0"/>
    </radialGradient>
  </defs>

  <!-- Background -->
  <rect width="1200" height="630" fill="url(#bgGradient)"/>

  <!-- Mystical Glow -->
  <circle cx="600" cy="315" r="400" fill="url(#glowGradient)"/>

  <!-- Decorative Stars -->
  <circle cx="150" cy="100" r="2" fill="#fbbf24" opacity="0.6"/>
  <circle cx="1050" cy="120" r="3" fill="#ec4899" opacity="0.7"/>
  <circle cx="200" cy="500" r="2" fill="#fbbf24" opacity="0.5"/>
  <circle cx="1000" cy="480" r="2" fill="#9333ea" opacity="0.6"/>
  <circle cx="100" cy="300" r="2" fill="#ec4899" opacity="0.5"/>
  <circle cx="1100" cy="350" r="3" fill="#fbbf24" opacity="0.6"/>

  <!-- Mystical Symbol (Crescent Moon + Star) -->
  <g transform="translate(600, 200)">
    <path d="M -30 0 A 30 30 0 1 1 -30 0 A 25 25 0 1 0 -30 0 Z" fill="#ec4899" opacity="0.8"/>
    <path d="M 20 -10 L 25 0 L 30 -10 L 25 -5 L 20 -10 Z M 20 -10 L 25 -15 L 30 -10 L 25 -5 L 20 -10 Z" fill="#fbbf24" opacity="0.9"/>
  </g>

  <!-- Main Title -->
  <text x="600" y="350" font-family="system-ui, -apple-system, sans-serif" font-size="72" font-weight="700" fill="#ffffff" text-anchor="middle">
    Vrachka
  </text>

  <!-- Subtitle with Gradient -->
  <text x="600" y="420" font-family="system-ui, -apple-system, sans-serif" font-size="36" font-weight="400" text-anchor="middle">
    <tspan fill="url(#titleGradient)">Твоят личен духовен водач</tspan>
  </text>

  <defs>
    <linearGradient id="titleGradient" x1="0%" y1="0%" x2="100%" y2="0%">
      <stop offset="0%" stop-color="#9333ea"/>
      <stop offset="50%" stop-color="#ec4899"/>
      <stop offset="100%" stop-color="#9333ea"/>
    </linearGradient>
  </defs>

  <!-- Features -->
  <g font-family="system-ui, -apple-system, sans-serif" font-size="24" fill="#a1a1aa">
    <text x="600" y="490" text-anchor="middle">
      ✨ Хороскопи • 🔮 Таро • 🌙 Натална Карта • 💫 AI Оракул
    </text>
  </g>

  <!-- Border Accent -->
  <rect x="10" y="10" width="1180" height="610" fill="none" stroke="url(#titleGradient)" stroke-width="2" opacity="0.3" rx="20"/>
</svg>
