<?xml version="1.0" encoding="UTF-8"?>
<!DOCTYPE svg PUBLIC "-//W3C//DTD SVG 1.1//EN" "http://www.w3.org/Graphics/SVG/1.1/DTD/svg11.dtd">
<!-- Creator: CorelDRAW 2021 (64-Bit) -->
<svg xmlns="http://www.w3.org/2000/svg" xml:space="preserve" width="168.49mm" height="197.792mm" version="1.1" style="shape-rendering:geometricPrecision; text-rendering:geometricPrecision; image-rendering:optimizeQuality; fill-rule:evenodd; clip-rule:evenodd"
viewBox="0 0 17752.51 20839.84"
 xmlns:xlink="http://www.w3.org/1999/xlink"
 xmlns:xodm="http://www.corel.com/coreldraw/odm/2003">
 <defs>
  <style type="text/css">
   <![CDATA[
    .fil0 {fill:#231F20}
   ]]>
  </style>
 </defs>
 <g id="Layer_x0020_1">
  <metadata id="CorelCorpID_0Corel-Layer"/>
  <g id="_2113550416208">
   <path class="fil0" d="M11442.75 2406.26c0,326.51 241.63,691.97 106.6,1061.24 -80.81,220.98 -134.58,212.39 143.75,323.09 89.98,35.79 179.89,68.94 207.37,171.88l-230.6 200.97c-200.94,111.92 -1146.96,158.16 -1409.6,118.41 -78.4,-11.86 -158.66,0.48 -237.6,-10.86 -740.85,-106.49 -1422.65,-341.98 -2176.64,-347.31 -148.95,-1.05 -308.87,-27.23 -470.31,-26.63 -182.72,0.67 -316.4,-13.04 -496.99,-13.04 -157.61,0 -266.59,13.18 -418.47,13.08 -91.37,-0.06 -366.18,-4.39 -366.18,65.39 0,130.9 140.59,146.24 230.95,187.52 43.41,19.84 54.99,24.98 106.25,37.6 139.96,34.47 303.59,94.08 303.59,271.81 0,353.43 -309.28,936.18 -460.29,1161.31 -110.72,165.06 -225.15,308.08 -348.56,462.25 -90.98,113.67 -201.86,209.42 -306,308.63 -36.55,34.82 -76.12,65.77 -114.28,94.96 -480.34,367.45 -1198.7,620.85 -1866.69,532.5 -114.6,-15.16 -237.7,-27.47 -353.65,-51.75 -122.29,-25.61 -255.58,-108.04 -395.3,-75.49 -24.79,106.45 57.07,204.54 110.14,295.28 160.19,273.97 424.64,468.36 645.09,688.8 78.24,78.25 136.75,149.84 215.77,228.86 78.97,78.96 137.18,150.34 215.78,228.86l216.05 228.58c282.4,292.42 111.37,593.86 -1.88,933.7 -155.48,466.59 -277.42,952.33 -314.67,1450.78 -15.33,205.05 -2.62,147.76 12.22,326.09 106.51,-2.38 258.94,-213.18 356.36,-310.59 117.84,-117.85 236.05,-209.87 353.09,-326.94l817.39 -856.51c37.78,-36.92 46.01,-54.86 78.54,-91.48l158.24 -181.77c229.87,-284.64 708.01,-861.53 708.01,-1162.06 0,-233.89 -170,-307.91 -170,-653.88l-0.45 -562.77c0.13,-85.53 14.16,-125.94 13.61,-221.79 -3.31,-578.15 326.86,-534.67 326.86,-1137.81 0,-470.71 -215.41,-647.22 893.19,-487.8 345.64,49.7 880.41,156.47 1196.74,-50.84 177.53,-116.35 202.83,-71.09 396.49,-38.49 90.25,15.2 168.43,29.42 259.14,41.65 198.16,26.7 448.04,66.69 654.5,77.82 46.55,2.51 97.48,-1.89 144.35,-0.5l287.27 13.51c217.63,-0.06 650.33,38.18 859.54,9.5 127.38,-17.46 709.76,-50.12 709.76,160.5 0,274.74 -773.39,252.67 -956.91,481.61 -170.86,213.15 -249.05,560.27 -71.09,794.86 192.81,254.18 304.74,109.75 413.36,109.75 89.87,0 8.58,262.05 3.73,291.43 -15.32,93.05 -29.12,150.94 -50.65,237.06 -161.83,647.36 -554.65,722.79 -554.65,1197.73 0,182.29 16.18,369.76 48.81,539.68 93.94,489.35 394.57,1060.93 793.54,1351.16 68.77,50.03 207.49,128.42 307.11,96.51 108.26,-34.67 198.94,-122.43 289.06,-143.43 96.64,414.83 -97.86,486.42 297.49,879.47 101.57,100.97 192.99,192.96 294.26,294.23l413.38 462.82c45.75,56.52 88.3,106.68 136.64,164.12 311.16,369.7 521.5,655.91 609.07,1156.39 113.34,647.76 -35.17,1405.76 -312.33,1960.09 -69.08,138.15 -132.28,244.24 -217.08,371.41 -136.48,204.7 -265.03,410.07 -427.13,592.92 -102.74,115.88 3.25,237.36 133.74,160.5 30.93,-18.22 44.29,-39.18 81.09,-63.39 35.01,-23.03 66.74,-35.58 102.44,-54.48 32.49,61.41 74.75,143.1 154.17,158.45 110.87,21.42 82.85,-204.58 228.71,-377.14 307.81,-364.13 704.09,-145.76 998.12,80.03 86.65,66.54 185.86,269.42 -7.87,269.42 -123.79,0 -534.09,-347.16 -766.29,-7.81 -152.63,223.06 -80.83,933.59 34.46,1131.96 122.72,211.17 308,372.07 459.15,560.89 35.74,44.65 63.66,68.79 97.15,112.08l682.28 756.23c44.27,44.13 58.74,62.81 98.67,110.58 117.33,140.37 254.98,274.46 386.54,437.34 148.67,184.05 480.13,518.53 514.22,728.13 23.29,143.1 5.47,384.97 149.79,464.85 187.35,103.69 316.7,-17.93 488.72,-17.93 204.58,0 243.8,88.39 489.21,5.34 383.07,-129.64 -300.77,-364.42 -403.15,-431.42 -219.25,-143.49 -319.92,-400.74 -430.59,-628.69 -24.01,-49.46 -41.61,-99.94 -60.86,-148.38 -202.19,-508.71 -435.87,-995.47 -646.42,-1498.28 -44.27,-105.72 -83.12,-197.3 -129.64,-301.92 -150.93,-339.44 -329.1,-662.91 -497.03,-993.8 -165.19,-325.49 -341.72,-644.31 -600.04,-903.87 -19.69,-19.79 -34.14,-31.39 -52.45,-52.17l-350.01 -408.48c-191.04,-244.78 -98.35,-248.39 -5.06,-619.88 173.64,-691.53 0.16,-1492.15 -317.23,-2117.95 -115.26,-227.24 -268.27,-438.11 -417.53,-641.74 -38.73,-52.85 -58.8,-76.1 -71.53,-150.78 -48.21,-282.91 88.38,-655 -167.26,-1297.4 -43.97,-110.48 -134,-233.5 -198.36,-324.75 -114.98,-162.97 -182.99,-230.29 -182.99,-444.73 0,-352.76 490.19,-761.85 742.24,-983.97l215.67 -215.9c145.01,-142.87 267.77,-306.78 411.95,-451.15 70.18,-70.28 289.71,-295.39 338.31,-96.36 50.65,207.41 7.38,595.78 5.47,819.37 -0.58,67.75 -10.68,71.95 -13.59,130.27l-26.13 784.67c0,401.94 234.04,1132.13 350.26,1545.98l292.07 976.45c49.5,148.14 108.21,320.85 177.03,463.76 73.25,152.12 134.64,280.45 235.78,405.01 263.56,324.63 406.95,399.76 671.11,48.17 68.16,-90.72 173.36,-237.54 194.59,-368.07 29.34,-180.36 -46.28,-252.82 -110.63,-409.02 -320.23,-777.38 -641.47,233.1 -709.65,-401.93 -22.97,-213.91 -42.21,-429.96 -41.31,-638.72 1.39,-325.17 -64.01,-629.88 -91.88,-954.32l-105.33 -927.78c-14.47,-129.44 -58.67,-326.65 -51.74,-458.41 16.81,-319.92 103.59,-743.24 157.44,-1059.65 16.25,-95.47 30.79,-198.28 39.6,-300.41 48.35,-560.37 45.31,-796.69 -257.73,-1338.45 -67.99,-121.57 -135.17,-238.6 -210.77,-351.56 -327.67,-489.57 -897.27,-1104.79 -1347.91,-1463.73 -106.45,-84.79 -207.88,-163.01 -317.48,-244.86 -55.04,-41.11 -100.07,-79.1 -153.33,-121.28 -346.17,-274.2 -381.8,-487.37 -503.18,-909.18 -96.83,-336.48 -149.49,-496.15 -340.63,-784.03 -74.66,-112.44 -160.07,-216.15 -252.92,-309.4 -125.37,-125.9 -330.4,-151.05 -330.4,-231.93 0,-59.52 140.6,-187.97 184.67,-220.72 184.01,-136.79 622.68,-329.18 845.55,-383.73 212.14,-51.92 528.32,-70.88 752.13,-27.08 220.99,43.23 363.94,161.44 497.25,326.62 123.89,153.52 218.54,321.24 320.29,490.51l601.47 1046.29c162.48,243.59 346.3,473.24 527.39,701.88l282.16 319.41c171.21,204.84 384.91,378.86 551.16,586.56l321.07 398.19c239.31,359.6 362.38,745.52 493.31,1154.46 34.19,106.81 56.94,210.37 82.29,336.18 23.65,117.46 41.84,235.04 56.14,349.27 27.99,223.76 38.63,790.15 96.52,936.59 59.68,150.93 200.91,129.13 279.44,7.21 121.83,-189.17 -1.43,-939.14 -31.98,-1065.46 -113.81,-470.56 -374.86,-1168.43 -630.36,-1592.81 -59.37,-98.61 -110.46,-175 -175.37,-269.26 -89.51,-130.01 -197.9,-250.72 -292.93,-374.02 -33.59,-43.58 -65.37,-72.82 -102.71,-119.62l-325.35 -341.61c-26.88,-25.87 -31.69,-26 -57.78,-46.82 -104.12,-83.06 -195.65,-179.92 -289.03,-273.3 -223.91,-223.91 -417.55,-477.18 -593.22,-740.68 -118.65,-177.96 -226.11,-373.94 -323.48,-565.79 -53.11,-104.65 -98.95,-188.67 -144.81,-299.81 -199.11,-482.47 -545.49,-995.38 -1082.36,-1140.8 -354.53,-96.04 -809.62,-48.29 -1156.85,67.54 -322,107.41 -762,331.5 -872.81,683.39 -20.54,65.21 -14.06,127.49 -42.24,180.08 -50.62,94.42 -135.74,163.72 -135.74,308.89z"/>
   <path class="fil0" d="M1098.5 20675.44c0,65.85 113.47,64.47 183.15,65.32l483.28 26.74c396.16,4.89 591.01,13.31 718.43,-433.43 77.69,-272.44 72.51,-412.13 188.2,-701.07 86.69,-216.53 169.15,-424.45 243.05,-646.21 110.93,-332.88 200.62,-638.44 449.45,-884.45 302.63,-299.2 591.61,-625.17 751.72,-1026.82 85.14,-213.61 146.71,-456.23 211.32,-677.95 30.57,-104.89 48.13,-247.77 145.4,-299.24 65.87,62.49 81.85,163.98 106.21,246.89 111.84,380.63 134.87,518.47 179.58,918.92l27.9 691.36c-3.03,431.57 248.63,259.83 248.63,65.22 0,-347.71 -61.92,-674.49 -143.7,-1007.11 -32.57,-132.46 -62.67,-267.79 -94.42,-402.52 -31.86,-135.18 -66.47,-278.85 -99.24,-410.78 -63.2,-254.47 -132.48,-526.11 -250.91,-756.05 -107.53,-208.79 -497.15,-249.51 -497.15,-509.82 0,-59.57 41.77,-104.63 91.54,-104.63 88.65,0 178.26,143.26 365.57,144.46 80.68,0.53 184.94,-7.05 262.43,-0.87 147.75,11.76 227.6,391.19 258.54,513.03 210.95,830.82 243.63,929.65 237.96,1828.27 -1.12,175.42 57.02,339.84 209.41,339.84 383.73,0 -6.75,-1282.34 -70.32,-1472.82 -40.7,-121.95 -81.4,-230.69 -117.48,-353.3 -36.68,-124.65 -72.12,-243.91 -111.27,-359.52 -75.39,-222.6 -184.8,-536.07 -184.8,-769.86 0,-107.23 108.14,-326.93 222.33,-326.93 153.28,0 286.52,532.96 325.39,655.42 176.52,556.2 181.39,616.77 292.61,1185.13 25.45,130.03 53.95,290.02 72.93,424.01 15.22,107.42 -0.2,395.22 60.78,437.63 118.55,82.46 176.77,-172.42 176.77,-282.87 0,-440.97 -81.61,-455.2 -149.36,-844.51 -56.18,-322.79 -183.91,-658.77 -287.12,-968.31 -36.97,-110.88 -67.64,-203.01 -104.61,-313.86 -57.06,-171.08 -152,-473.98 -152,-684.95 0,-82.54 50.35,-170.01 117.69,-170.01 119.66,0 484.98,1189.44 511.61,1280 68.57,233.1 138.71,472.77 187.01,715.35l95.61 571.34c14.57,76.46 17.2,131.88 68.89,166.49 115.36,-30.8 130.78,-319.49 130.78,-431.54 0,-126.81 -40.55,-280.31 -68.01,-389.69 -30.67,-122.19 -66.29,-254.61 -99.16,-371.64 -133.09,-473.93 -295.93,-929.5 -490.38,-1379.7 -49.4,-114.39 -90.12,-218.66 -136.41,-334.37 -55.2,-137.92 -200.99,-497.01 -37.92,-631.97 213.41,-176.66 887.94,-645.86 1106.51,-645.86 147.43,0 570.59,677.86 674.44,816.39 56.04,74.77 100.93,134.48 156.93,209.24l245.05 317.28c61.74,75.81 179.27,267.39 270.56,291.77 174.65,-116.95 238.09,-1032.63 270.7,-1259.36 17.43,-121.12 35.14,-211.24 57.33,-321.92 20.95,-104.47 37.47,-207.19 58.79,-320.46 27.95,-148.54 110.13,-537.1 110.13,-661.43 0,-146.13 -106.42,-445.32 -156.93,-549.26l-117.02 -236.08c-98.54,-170.89 -195.99,-347.33 -296.48,-59.72 -91.77,262.65 -271.94,541.91 -465.7,737.41 -90.86,91.69 -170.6,194.65 -268.45,280.81 -32.06,28.24 -46.21,33.16 -78.62,65.23 -409.83,405.63 -1057.07,830.54 -1563.31,1130.64l-1028.46 593.15c-112.78,65.5 -228.89,124.3 -343.05,193.12 -130.47,78.64 -194.1,132.87 -295.28,240.9 -219.99,234.92 -924.51,1974.11 -1023.08,2220.13 -272.56,680.36 -428.73,1427.77 -530.52,2163.42 -22.27,160.99 -42.02,325.32 -56.76,479.42 -26.96,281.85 -75.04,704.22 -163.5,921.92 -130.4,320.88 -486.86,642.59 -784.56,823.96 -94.93,57.83 -308.58,96.33 -308.58,240.68z"/>
   <path class="fil0" d="M5257.13 20649.28c0,142.38 516.84,73.44 588.48,65.39 95.62,-10.74 234.8,-39.24 326.93,-39.24 484.96,0 945.07,279.07 941.75,-235.21 -2.43,-379.18 95.01,-780.12 234.85,-1099.05 244.33,-557.21 347.96,-681.15 656.83,-1134.79 499.43,-733.52 1144.54,-938.77 955.92,-2098.84 -23.2,-142.75 -35.47,-228.51 -132.03,-299.51 -261.06,-191.95 -708.78,269.88 -708.78,67.99 0,-205.43 57.3,-196.47 156.93,-326.93 165.58,-216.83 463.02,-375.18 722.2,-146.8 200.43,176.61 154.45,97.3 297.65,-193.4 49.26,-100 101.65,-203.11 159.49,-298.23l350.72 -564.69c125.36,-188.15 163.95,-214.34 331.06,-348.97l129.83 -105.57c384.7,-339.01 420.19,-718.2 145.97,-1133.12 -315.89,-477.98 -580.69,-1608.26 -655.71,-2221.32 -8.9,-72.72 5.18,-179.63 -68.83,-179.63 -68.76,0 -98.3,51.73 -129.07,93.25 -245.63,331.52 -354.07,734.97 -483.91,1124.62 -73.65,221.03 -277.41,830.83 -321.02,1052.11 -232.84,1181.28 -320.81,1444.18 -705.57,2524.55 -81.95,230.12 -185.56,439.25 -267.87,660.62 -351.44,945.22 -436.84,2001.41 -748.9,2925.87 -128.23,379.85 -201.58,590.99 -450.32,922.81 -465.68,621.23 -1326.59,710.57 -1326.59,988.11z"/>
   <path class="fil0" d="M156.93 5309.45c0,355.03 -5.81,642.96 13.14,993.82 12.69,234.84 -21.53,984.95 -99.39,1208.48 -17.89,51.36 -70.68,150.88 -70.68,203.95 0,114.1 90.98,143.85 183.09,143.85 81.69,0 185.2,-277.92 203.8,-371.6 36.41,-183.47 23.99,-954.62 -0.09,-1113.7 -14.04,-92.84 0.85,-186.3 -9.46,-278.24 -28.3,-252.03 3.53,-391.05 1.91,-590.39 -1.29,-157.76 60.19,-708.51 88.04,-853.54 76.75,-399.77 248.58,-677.18 483.99,-941.44 27.63,-31.01 42.65,-55.96 71.84,-85.1 135.94,-135.8 311.57,-348.62 457.74,-483.84 33.48,-30.97 51.4,-37.83 85.43,-71.5l1137.33 -1229.69c364.15,-374.05 736.62,-1018.51 1174.77,-1349.18 133.87,-101.03 243.02,-149.97 419.02,-208.7 495.34,-165.28 1070.01,-81.5 1488.11,195.96 75.68,50.23 177.81,136.25 177.81,240.68 0,97.34 -437.13,140.54 -645.75,204.3 -205.04,62.65 -313.88,277.58 -404.91,458.19 -268.73,533.12 -340.91,890.15 -687.87,1469.9 -27.66,46.2 -52.22,83.22 -79.86,129.39l-258.32 395.54c-266.5,399.79 -422.67,627.73 -837.02,889.21 -45.46,28.68 -86.16,52.84 -133.23,76.01 -146.96,72.32 -168.91,79.73 -78.97,196.49 70.21,91.15 195.83,149.33 296.83,200.12 152.74,76.79 309.98,127.48 493.39,173.55 424.66,106.7 1237.06,12.07 1660.36,-199.41 153.41,-76.64 179.58,-193.74 325.96,-340.97 80.99,-81.47 93.25,-267.44 -71.82,-288.69 -230.13,-29.63 -358.46,16.06 -496.42,-170.52 -133.69,-180.82 43.5,-551.46 172.2,-551.46 184.19,0 294.21,81.15 422.66,30.51 217.27,-85.64 166.67,-464.05 319.44,-635.39 99.99,-112.14 212.55,-130.92 212.55,-271.32 0,-156.19 -26.15,-312.94 -26.15,-523.09 0,-149.67 75.59,-294.48 115.93,-407.16 124.82,-348.62 135.92,-589.17 -68.78,-895.42 -192.68,-288.29 -330.9,-438.18 -686.18,-556.17 -321.38,-106.72 -418.64,-102.87 -747.17,-102.87 -411.97,0 -1029.95,250.16 -1311.03,532.9l-1222.83 1575.74 -1347.14 1281.43c-301.47,304.69 -611.19,903.86 -677.52,1336.4 -28.13,183.42 -44.75,379.44 -44.75,582.97z"/>
   <path class="fil0" d="M1190.04 12698.2c0,371.38 -18.9,406.28 106.61,743.44 67.56,181.53 416.09,1075.33 505.08,1221.14 24.6,40.31 33.85,62.81 81.42,75.5 72.73,-48.7 48.95,-108.61 21.42,-191.39 -26.24,-78.91 -52.11,-141.42 -71.08,-216.66 -65.69,-260.63 -33.56,-224.65 79.81,-267.98 121.2,-46.32 29.22,-215.66 8.62,-330.47 -44.07,-245.64 104.38,-370 -185.15,-847.96 -61.42,-101.38 -89.9,-160.07 -106.28,-272.97 -42.21,-290.97 197.59,-1578.82 291.74,-1965.96 24.36,-100.13 51.2,-207.49 75.83,-303.41 26.6,-103.57 55.74,-191.54 85.94,-293.31l193.45 -565.04c33.69,-90.42 65.87,-178.58 94.16,-285.09 186.62,-702.64 -11.4,-1211.25 96.03,-1878.67 29.07,-180.65 95.54,-257.52 95.54,-466.78 0,-207.12 -221.45,-161.78 -510.24,-352.88 -93.37,-61.77 -152.9,-120.63 -231.9,-199.64 -71.26,-71.26 -151.71,-169.59 -251.74,-192.9l-0.53 1517.51c0.97,78.05 14.16,116.91 13.69,208.63 -4.02,783.15 -12.16,487.34 -110.36,1197.56 -13.94,100.85 -30.64,314.8 -70.53,374.09 -71.72,106.6 -161.26,14.04 -159.39,272.17 5,692.13 7.66,1505.42 -12.46,2184.54 -8.54,288.29 -39.67,494.48 -39.67,836.53z"/>
   <path class="fil0" d="M9232.66 16542.97c0,300.76 100.26,563.12 222.52,810.62 17.86,36.17 27.45,71.44 47.76,109.17 265.55,493.49 450.51,653.08 731.44,1060.16 107.23,155.39 161.11,217.84 258.21,395.67 41.21,75.46 75.36,138.03 113.21,213.73l205.52 448.35c250.73,636.3 18.89,811.16 144.99,1045.05 159.58,295.98 682.66,139.51 957.05,141.1 388.88,2.27 465.51,-37.38 852.63,10.84 85.11,10.6 189.29,28.56 272.21,28.56 237.77,0 241.4,-170.96 35.88,-205.89 -100.44,-17.07 -142.65,-27.33 -226.51,-61.19 -139.37,-56.3 -276.73,-108.19 -397.28,-178.13 -197.69,-114.71 -528.65,-299.24 -677.49,-460.23 -75.83,-82.01 -182.19,-231.68 -237.91,-324.42l-410.36 -740.47c-299.65,-599.28 -658.66,-1892.58 -842.97,-2570.23 -41.38,-152.07 -77.43,-301.59 -128.41,-447.01 -62.96,-179.64 -183.59,-420.48 -294.5,-568.61 -99.67,-133.13 -180.29,-234.47 -258.31,-26.36 -61.81,164.86 -90.36,375.48 -162.27,556.98 -46.55,117.47 -88,241.59 -125.42,358.44 -32.4,101.15 -79.99,278.82 -79.99,403.88z"/>
   <path class="fil0" d="M10200.4 9298.07c0,234.66 7.06,263.26 65.36,496.97 28.46,114.15 59.45,234.44 96.31,348.32 122.18,377.24 530.01,1115.48 759.05,1464.11 249.34,379.48 582.81,1041.21 762.64,1460.53 304.26,709.44 354.06,1067.66 317.47,1827.19 -4.01,83.26 -17.34,219.81 -31.29,308.72 -38.55,245.76 -138.69,405.27 -138.69,593.64 0,160.17 101.04,222.32 235.39,222.32 125.82,0 143.18,-272.49 156.26,-366.83 98.2,-707.94 22.74,-1733.35 -197.37,-2325.26 -157.78,-424.33 -406.07,-796.56 -626.58,-1165.03l-572.17 -984.03c-31.67,-52.42 -51.67,-99.64 -83.49,-151.9 -75.76,-124.41 -228.85,-458.2 -287.21,-602.06 -112.67,-277.71 -181.06,-515.14 -181.06,-838.98 0,-124.19 48.37,-239.09 69,-362.54 16.79,-100.42 193.67,-629.3 -55.86,-514.32 -82.61,38.07 -103.58,65.73 -144.13,144.33 -50.83,98.55 -143.64,301.46 -143.64,444.83z"/>
   <path class="fil0" d="M13849 1948.56c0,292.47 425.59,893.63 605.73,1198.95l582.43 869.17c125.94,167.65 254.9,336.38 404.01,485.25 354.67,354.09 786.04,929.58 963.62,1377.25 243.52,613.91 350.72,1241.26 435.11,1905.76 13.98,110.16 40,628.27 282.44,353.23 145.17,-164.71 -63.44,-1001.59 -103.3,-1160.08 -209,-831.13 -411.47,-1360.51 -926.37,-2016.06 -46.43,-59.12 -85.63,-98.88 -130.64,-157.05l-207.09 -237.55c-26.09,-29.28 -40.35,-48.61 -65.03,-78.82l-385.56 -490.62c-426.38,-574.88 -580.72,-640.17 -958.4,-1395.54 -90.7,-181.38 -191.84,-399.49 -305.94,-570.25 -43.57,-65.21 -69.97,-129.94 -151.77,-149 -18.04,26.94 -39.23,33.95 -39.23,65.39z"/>
   <path class="fil0" d="M12828.96 2210.11c0,166.13 62.1,204.26 135.33,348.53l148.18 283.37c194.29,347.39 688.99,1089.66 921.42,1380.22 44.6,55.77 78.45,105.69 124.85,162.84 175.17,215.79 335.81,425.13 511.12,639.7 270.12,330.61 274.74,319.54 484.37,666.44 274.44,454.16 484.28,1218.18 561.03,1740.58 25.13,170.98 45.22,348.73 65.39,510.03 16.34,130.65 21.58,427.76 147.64,427.76 241.39,0 149.34,-543.63 127.08,-676.33 -13.41,-79.94 -31.35,-172.38 -47.53,-253.26 -68.62,-343.12 -140.92,-647.61 -244.62,-958.49 -48.85,-146.44 -99.24,-300.26 -161.67,-426.81 -66.83,-135.49 -131.42,-263.24 -205.39,-396.17 -73.63,-132.32 -151.57,-242.71 -234.17,-367.39 -151.5,-228.68 -355.73,-441.35 -544.55,-645.49 -53.49,-57.84 -95.73,-89.09 -146.26,-154.52 -26.24,-33.97 -42.41,-44.55 -69.82,-74.02l-209.45 -248.27c-297.77,-341.5 -659.75,-857.42 -870.06,-1235.41 -96.68,-173.74 -227.01,-410.38 -306.04,-596.31 -91.45,-215.2 -186.86,-183.03 -186.86,-126.98z"/>
   <path class="fil0" d="M771.57 5662.55l-0.09 575.49c-0.46,91.72 12.73,130.58 13.69,208.64 2.49,201.2 -26.24,484.92 -26.67,641.31 -0.19,66.34 -8.18,135.91 -16.74,205.58 -24.68,200.67 -74.81,300.6 -74.81,409.06 0,105.43 326.94,162.17 326.94,-222.32 0,-373.11 -52.31,-696.11 -52.31,-1072.36 0,-395.71 24.81,-795.62 67.71,-1187.72 77.74,-710.56 228.87,-891.29 604.5,-1435.59 72.39,-104.91 369.49,-478.93 462.08,-571.04l712.75 -817.31c42.86,-46.35 82.37,-75.09 122.16,-126.31 141.6,-182.3 192.79,-241.26 327.17,-444.39 80.36,-121.47 762.5,-988.63 567.6,-988.63 -104.97,0 -221.37,256.07 -330.61,401.73 -36.72,48.96 -70.22,94.59 -103.68,144.8 -34.55,51.84 -60.71,86.7 -96.64,138.75 -178.73,258.91 -316.12,456.36 -531.41,697.88 -149.94,168.21 -427.18,533.13 -562.43,666.85l-235.51 248.35c-44.54,44.51 -80.39,79.4 -124.5,123.98l-176.56 189.62c-307.94,319.93 -663.74,903.42 -770.86,1321.51 -62.92,245.58 -101.78,579.76 -101.78,892.11z"/>
   <path class="fil0" d="M11141.97 10527.35c0,84.54 64.37,182.77 101.82,238.19l1241.12 1884.39c86.69,154.98 162.68,287.87 235.68,457.43 37.97,88.22 64.75,146.34 96.97,243.04 186.41,559.4 189.92,1005.9 93.51,1574.6 -86.1,507.89 -422.11,1119 -422.11,1317.18 0,324.25 372.87,154.95 582.97,-580.92 170.78,-598.11 250,-1290.03 94.55,-1914.37 -90.36,-362.96 -271.49,-735.75 -470.79,-1046.19l-311.3 -447.19c-245.32,-345.44 -504.42,-777.79 -760.53,-1122.62 -54.09,-72.84 -101.07,-150.03 -152.33,-226.92 -53.19,-79.78 -97.27,-146.84 -154,-225.25 -29.82,-41.22 -45.6,-66.89 -76.14,-106.97 -13.91,-18.26 -99.41,-107.59 -99.41,-44.41z"/>
   <path class="fil0" d="M13338.98 2079.33c0,89.45 24.73,173.87 52.21,235.49l206.83 368.59c187.72,312.27 338.24,580.77 541.2,897.32 242.51,378.24 357.26,499.46 612.04,826.48 41.19,52.86 89.76,103.95 130.86,156.84 84.93,109.25 180.26,207.01 269.11,319.38 135.95,171.94 249.28,301.73 377.03,486.08 374.16,539.93 641.6,1207.5 711.75,1890.67 17.46,170.06 39.94,362.38 41.06,534.35 0.6,92.71 10.95,470.43 118.05,470.43 320.25,0 191.45,-568.12 151.43,-779.15 -32.2,-169.76 -58.72,-316.51 -101.8,-473.61 -115.34,-420.49 -277.28,-866.6 -472.44,-1253.77 -146.97,-291.56 -242.49,-461.52 -434.58,-716.24l-806.98 -906.16c-330.99,-343.62 -700.9,-957.07 -937.46,-1364.17l-196.74 -378.66c-30.29,-60.59 -158.4,-353.09 -222.32,-353.09 -30.13,0 -39.23,9.1 -39.23,39.24z"/>
   <path class="fil0" d="M3949.38 13365.16l0 39.23c0,189.98 426.47,-235.54 513.93,-309.95l791.78 -620.59c285.82,-210.87 509.05,-313.66 834.88,-577.48l386.5 -319.68c90.52,-80.44 432.07,-380.5 488.28,-453.29l216.56 -254.23c177.3,-222.01 573.59,-784.19 573.59,-1074.15 0,-51.49 -27.57,-124 -47.9,-161.34 -17.68,-32.53 -20.13,-30.41 -38.66,-65.96 -31.74,-60.88 -12.95,-60.4 -96.52,-60.4 -72.96,0 -64.62,188.72 -115.93,341.78 -44.87,133.83 -82.33,210.68 -141.21,329.58 -107.05,216.18 -157.57,258.94 -280.82,425.36l-550.79 613.09c-97.13,96.01 -32.27,57.15 -175.9,177.19 -23.22,19.42 -37.98,36.67 -59.45,58.25 -253.68,255.17 -481.08,416.42 -762.76,636.52 -92.38,72.16 -176.3,135.8 -267.07,203.72l-530.55 397.94c-188.35,142.02 -737.96,490.15 -737.96,674.41z"/>
   <path class="fil0" d="M3910.15 12842.06c0,78.13 -2.07,49.4 26.15,91.54 107.83,-8.98 72.05,-115.48 226.16,-244.63l788.37 -624 617.14 -559.82c847.28,-838.34 777.4,-776.55 1430.45,-1655.83 34.21,-46.08 61.91,-89.99 94.94,-140.45 75,-114.58 229.73,-343.51 228.83,-476.01 -0.56,-82.21 -22.02,-340.19 -155.76,-340.19 -149.74,0 -69.56,152.36 -164.56,384.7 -158.55,387.73 -30.11,302.22 -423.69,818.66l-1187.11 1284.53 -849.35 733.02c-40.32,33.72 -73.6,73.34 -111.48,110.83 -43.39,42.94 -78.64,64.58 -124.52,110.87 -145.95,147.28 -395.56,344.54 -395.56,506.78z"/>
   <path class="fil0" d="M9847.31 10017.33c0,713.26 471.83,1715.25 775.93,2323.43 22.51,45.01 40.41,80.78 60.92,122.16l209.43 379.06c41.84,84.84 87.45,162.1 130.68,248.55 197.28,394.44 457.72,1044.58 457.72,1490.83 0,188.63 4.25,416.94 -22.05,592.59 -22.51,150.36 -100.6,361.57 -23.43,472.94 69.82,100.77 245.13,96.98 241.56,-215.58 -1.61,-140.81 28.95,-269.59 5.59,-423.92 -10.66,-70.43 -2.6,-434.49 -27.79,-626.08 -9.97,-75.81 -12.71,-125.27 -24.28,-198.03 -59.86,-376.23 -167.08,-670.52 -332.52,-988.31 -25.79,-49.55 -52.35,-90.66 -78.55,-143.77 -24.3,-49.26 -51.48,-94.9 -79.22,-143.08 -106.8,-185.49 -214.16,-365.25 -328.79,-547.39l-289.47 -482.11c-199.53,-371.08 -466.48,-1026.31 -466.48,-1416.66l0 -183.08c0,-163 125.92,-693.11 -65.39,-693.11 -111.62,0 -119.65,241.95 -128.48,303.08 -7.66,53.07 -15.37,76.67 -15.37,128.48z"/>
   <path class="fil0" d="M1451.59 5414.08c0,110.97 54.51,166.9 140.68,264.71 24.73,28.07 64.66,67.89 92.77,90.32 41.27,32.96 67.98,59.9 106.46,89.71 377.57,292.55 1035.24,679.92 1556.32,679.92 431.73,0 953.69,-6.93 1346.83,-183.23 84.96,-38.1 758.63,-402.97 758.63,-549.11 0,-82.78 -130.78,25.1 -193.71,67.84 -72.81,49.45 -123.58,88.42 -203.92,136.09 -240.27,142.55 -823.29,268.26 -1092.89,267.17 -565.43,-2.32 -656.77,67.16 -1186.59,-160.99 -282.36,-121.59 -616.06,-314.05 -812.61,-560.52 -50.43,-63.24 -137.99,-141.53 -237.48,-272.54 -53.12,-69.97 -46.82,-91.68 -104.48,-91.68 -49.69,0 -170.01,159.46 -170.01,222.32z"/>
   <path class="fil0" d="M6695.65 8735.74c0,328.43 -32.62,362.75 -224.93,651.27 -50.64,75.98 -95.55,142.63 -150.51,215.66 -257.59,342.29 -467.41,596.56 -791.62,882.29 -98.42,86.72 -191.69,183.33 -297.62,264.71l-801.77 675.99c-74.08,62.25 -134.05,109.27 -201.93,177.31 -124.84,125.16 -311.89,330.81 -264.82,532.91 79.64,-6.63 62.85,-62.8 211.19,-181.14 67.43,-53.8 135.65,-131.01 205.34,-186.98 75.33,-60.5 138.94,-115.25 215.3,-177.03 40.41,-32.69 68.34,-55.4 109.82,-86.34 39.17,-29.23 75.78,-53.57 111.33,-84.83 37.65,-33.1 69.66,-55.18 105.03,-91.14 40.49,-41.15 65.7,-53.71 104.81,-91.36 69.51,-66.91 127.16,-128.93 195.64,-196.68l301.62 -286.86c105.97,-88.58 212.28,-179.3 306.9,-281.58 36.48,-39.44 50.13,-64.14 91.32,-104.85 34.08,-33.68 67.11,-63 98.04,-98.12 311.74,-354 498.47,-583.42 754.6,-1010.85 25.86,-43.16 48.18,-75.16 69.99,-126.17 56.07,-131.16 74.59,-192.73 74.59,-356.97 0,-155.17 -63.46,-209.24 -183.09,-209.24 -82.57,0 -39.23,99.13 -39.23,170z"/>
   <path class="fil0" d="M3596.29 5963.32c556.61,0 878.25,-49.8 1364.43,-283.33 24.12,-11.58 512.95,-224.93 395.81,-285.25 -41.83,-21.54 -299.45,152.77 -493.24,213.96 -601.87,190.02 -1287.26,175.07 -1880.22,-39.11 -268.06,-96.82 -675.4,-381.18 -849.71,-614.96 -49.77,-66.74 -98.56,-168.27 -210.97,-168.27 -15.01,0 -70.1,86.13 -79.66,104.07 -62.55,117.16 72.13,225.58 175.03,349.81l419.81 351.76c345.21,229.18 707.05,371.32 1158.74,371.32z"/>
   <path class="fil0" d="M3897.08 5492.53c453.95,0 1021.06,-127.7 1378.68,-373.69 53.76,-36.97 97.2,-65.82 99.06,-149.4 -194.15,-45.23 -547.23,353.09 -1346.98,353.09 -490.94,0 -650.01,7.51 -1074.91,-258.98 -367.5,-230.5 -374.11,-447.2 -651.31,-447.2 -43.98,0 -85.27,23.38 -95.51,59.44 -14.03,49.4 146.38,259.58 190.06,303.72 118.25,119.48 212.38,214.07 371.68,295.29 291.42,148.59 694.28,217.74 1129.22,217.74z"/>
   <path class="fil0" d="M1412.37 4694.81c0,56.03 48.17,86.85 104.61,91.55 36.61,-54.67 30.57,-75.23 57.49,-138.68l248.45 -366.19c254.83,-383.8 755.26,-877.79 1090.62,-1381.02 54.77,-82.18 112.24,-156.41 170.86,-234.55 29.85,-39.78 53.26,-71.02 84.08,-112.08l276.6 -338.05c177.36,-226.99 380.82,-522.49 533.47,-708.88 124.55,-152.09 323.94,-323.19 323.94,-539.17 -109.99,0 -132.39,81.34 -231.58,213.05 -211.38,280.69 -379.46,533.62 -609.44,816 -34.72,42.63 -58.61,72.18 -93.13,116.11l-1546.65 1958.1c-117.36,138.54 -409.31,454.18 -409.31,623.8z"/>
   <path class="fil0" d="M2170.85 4289.42c148.33,34.56 248.88,-121.64 376.24,-225.33 95.18,-77.48 146.3,-142.21 203.14,-189.18 95.89,-79.24 38.54,-41.03 123.47,-125 212.96,-210.55 409.44,-439.62 588.06,-680.44 155.64,-209.84 251.63,-315.68 383,-558.58l340.58 -627.14c71.37,-122.89 169.43,-279.79 169.43,-471.36 -70.48,5.86 -100.26,77.65 -156.76,157.1 -25.38,35.69 -45.94,47.18 -73.4,83.53 -121.59,160.94 -561.39,1041.9 -752.64,1300.52l-569.9 698.62c-148.31,154.08 -322.8,315.65 -492.97,448.6 -58.86,45.98 -136.17,94.29 -138.28,188.66z"/>
   <path class="fil0" d="M10697.34 13757.47c0,71.64 42.17,265.17 56.04,349.36 140.63,853.32 -56.04,741.47 -56.04,1206.86 0,122.16 88.61,260.49 213.09,200.99 111.95,-53.51 153.08,-166.03 153.08,-318.68 0,-400.23 -114.19,-947.59 -183.13,-1360.01 -7.15,-42.79 -11.72,-170.06 -52.26,-170.06 -51.53,0 -130.78,69.04 -130.78,91.54z"/>
  </g>
 </g>
</svg>
