<?xml version="1.0" encoding="UTF-8"?>
<!DOCTYPE svg PUBLIC "-//W3C//DTD SVG 1.1//EN" "http://www.w3.org/Graphics/SVG/1.1/DTD/svg11.dtd">
<!-- Creator: CorelDRAW 2021 (64-Bit) -->
<svg xmlns="http://www.w3.org/2000/svg" xml:space="preserve" width="128.956mm" height="180.916mm" version="1.1" style="shape-rendering:geometricPrecision; text-rendering:geometricPrecision; image-rendering:optimizeQuality; fill-rule:evenodd; clip-rule:evenodd"
viewBox="0 0 12054.42 16911.47"
 xmlns:xlink="http://www.w3.org/1999/xlink"
 xmlns:xodm="http://www.corel.com/coreldraw/odm/2003">
 <defs>
  <style type="text/css">
   <![CDATA[
    .fil0 {fill:#231F20}
   ]]>
  </style>
 </defs>
 <g id="Layer_x0020_1">
  <metadata id="CorelCorpID_0Corel-Layer"/>
  <g id="_2108675865488">
   <path class="fil0" d="M10385.88 6337.21l-30.71 0c0,-503.59 -26.96,-287.28 341.5,-167.48 63.08,20.51 140.59,38.76 212.02,43.9 48.74,3.51 79.34,-0.18 117.27,15.82 112.32,47.36 42.65,210.14 -77.07,210.14 -148.55,0 -193.02,-137.95 -396.42,-109.81 -50.54,6.99 -101.37,7.44 -166.59,7.44zm-1975.64 -276.38c63.56,0 75.01,18.06 113.07,40.48 64.3,37.9 270.24,123.31 347.57,123.31 37.62,0 112.73,-24.83 147.37,-36.9 57.33,-19.99 78.84,-41.15 139.26,-55.23 76.53,51.25 91.04,178.19 -4.36,210.74 -119.64,40.85 -349.63,-46.96 -415.35,-46.96 -81.61,0 -74.9,40.94 -133.07,40.94 -41.56,0 -134.88,-53.66 -156.77,-78.66 -30.2,-34.49 -37.72,-135.28 -37.72,-197.72zm-542.53 -798.44c0,250.82 10.24,466.6 10.24,716.56 -98.95,-47.49 -180.09,-71.91 -205.39,-214.78 -17.46,-98.62 0.36,-485.57 195.15,-501.78zm-6141.87 -1146.48c39.02,26.13 96.12,88.66 127.31,128.6 67.91,86.96 57.06,47.05 56.95,209.2l0 870.1c-54.19,-36.29 -253.64,-273.53 -308.5,-346.63 -100.25,-133.59 -59.27,-52.27 36.54,-283.61 85.92,-207.48 87.71,-319.22 87.71,-577.66zm6612.75 214.96c0,-163.33 6.86,-92.14 30.71,-194.49l20.47 0c0,226.49 258.89,432.57 434.36,538.1 66.21,39.82 190.06,90.12 190.06,137.5 0,117.27 -241.28,117.46 -469.56,-62.72 -15.03,-11.86 -25.87,-17.67 -39.96,-31.7 -59.96,-59.66 -166.07,-271.32 -166.07,-386.7zm-6039.51 -40.94c0,343.19 184.25,536.13 184.25,644.9 0,0.37 -279.15,360.04 -307.09,378.75 -34.89,-72.73 -21,-374.64 -20.41,-491.42 0.46,-89.36 -32.28,-416.89 -5.34,-496.56 9.33,-27.6 135.29,-173.46 158.82,-189.22 0,64.94 -10.24,85.47 -10.24,153.55zm7124.57 -1248.85c55.96,26.86 101.24,32.62 155.24,69.97 109.99,76.08 247.08,245.48 319.9,355.71 270.08,408.78 183.29,1090.4 170.08,1570.76 -1.45,52.82 -11.04,70.51 -11.04,132.76 0,165.59 80.73,501.59 -50.7,501.59 -266.55,0 -235.44,-387.21 -235.44,-563.01l10.24 -880.33c0,-135.17 -49.31,-337.94 -92.07,-429.98 -41.71,-89.79 -121.36,-134.53 -197.42,-191.56 -27.93,-20.95 -52.06,-36.01 -79.02,-54.07l19.22 -380.48c7.27,-62.5 -8.97,-75.93 -8.97,-131.34zm71.65 -460.64c103.83,-24.86 170.85,14.58 258.02,69.54 152.82,96.35 350.15,303.63 470.22,451.07 385.56,473.41 383.04,783.27 336.89,1342.97 -2.97,36.04 1.44,75.92 -0.5,112.11 -15.94,298.78 -72.58,461.44 91.79,747.52 33.95,59.11 82.19,293.93 82.19,378.44 0,62.21 -121.45,204.62 -375.91,-94.97 -140.93,-165.92 -105.21,-573.36 -105.21,-795.59 0,-151.83 10.24,-267.05 10.24,-419.69 0,-319.35 28.93,-473.68 -75.5,-784.37 -35.56,-105.81 -74.31,-215.26 -133.45,-296.48 -93.64,-128.61 -95.8,-120.21 -213.05,-216.88 -65.3,-53.83 -183.15,-133.75 -260.29,-169.64 -121.31,-56.46 -93.91,-57.33 -85.4,-211.36 1.94,-35.12 -0.05,-76.8 -0.05,-112.66zm-1873.27 -1832.33c0,39.55 98.09,185.36 122.27,225.77 44.36,74.12 82.01,143.11 127.76,220.27 88.58,149.33 210.6,365.34 210.6,546.9 0,72.3 -95.12,166.51 -193.98,9.73l-140.37 -248.62c-98.22,-198.38 -163.12,-314.04 -294.13,-483.84 -17.12,-22.19 -105.19,-97.58 -93.15,-21.55l404.47 754.35c80.38,164.09 91.97,206.51 91.97,399.38 0,35.14 -65.43,210.12 -184.97,10.96 -91.03,-151.68 -124.89,-273.71 -197.14,-417.05 -57.71,-114.51 -208.99,-467.87 -324.21,-494.72 -17.82,33.68 -19.01,29.09 -13.82,64.06 9.61,64.76 153.32,412.57 179.06,477.01 32.8,82.06 66.86,179.95 107.65,260.86 73.36,145.5 195.98,313.85 34.2,313.85 -110.14,0 -256.13,-120.48 -284.63,-206.72 -84.76,-256.4 -173.4,-929.53 -554.76,-929.53 -148.16,0 -246.67,133.07 -429.94,133.07 -88.51,0 -133.07,-121.91 -133.07,-214.97 0,-115.58 65.67,-324.81 109.17,-402.65 66.05,-118.18 146.81,-183.72 250.52,-261.31 202.35,-151.4 372.78,-298.27 725.38,-298.27 312.59,0 501.1,98.64 714.99,257.47 33.63,24.98 63.27,40.55 96.13,67.65 36.11,29.79 53.77,43.21 87.17,76.61 110.85,110.85 184.88,251.76 262.81,382.1 89.28,149.33 123.68,454.77 -45.33,454.77 -83.69,0 -118.66,-68.71 -191.68,-166.59l-286.52 -389.09c-7.89,-10.51 -156.46,-232.62 -156.46,-119.92zm-1791.37 470.88c0,146.2 28.33,301.16 120.2,381.38 80.91,70.66 151.56,138.14 207.97,232.2 86.53,144.31 68.25,153.97 70.63,369.53 1.48,132.51 51.38,286.21 174.44,286.21 54.67,0 89.53,-10.33 133.07,-20.47 32.94,49.2 21.85,43.09 42.2,101.11 11.6,33.1 27.91,65.07 52.17,91.15 188.02,202.12 339.27,2.23 571,2.23 30.9,0 240.9,130.97 -160.37,330.98 -108.69,54.17 -210.94,96.94 -317.43,153.44 -130,68.97 -351.95,340.95 -462.43,479.32 -133.96,167.78 -319.78,315.98 -459.15,482.61 -180.12,215.35 -351.35,423.78 -519.22,647.73 -34.83,46.46 -64.59,91.31 -101.1,134.34 -88.2,103.9 -156.8,141.08 -293.66,177.21 -563.15,148.66 -607.71,210.97 -1102.66,422.58l-565.92 263.22c-308.35,155.69 -420.93,93.78 -735.17,49.25 -344.01,-48.76 -472.26,7.64 -193.23,-322.51 63.38,-75 118.62,-142.92 183.49,-215.74 54.37,-61.03 121.78,-172.04 194.67,-204.67 35.49,-15.89 105.27,1.96 158.15,10.85 163.87,27.54 439.29,40.81 590.31,-30.02 176.77,-82.89 174.95,-234.95 66.49,-299.22 -140.45,-83.24 -388.47,21.08 -520.66,-42.35 9.24,-34.62 49.22,-75.2 74.12,-99.9 148.92,-147.66 113.91,-68.31 301.01,21.63 160.51,77.17 525.69,122.17 525.69,-146.94 0,-72.94 -93.09,-142.36 -146.63,-170.7 -47.88,-25.36 -177.75,-95.39 -221.89,-105.69 65.94,-124.6 220,-170.34 324.55,-258.92 360.73,-305.64 191.03,-549.76 -7.23,-549.76 -222.17,0 -330.34,247.15 -424.05,405.1 -37.5,63.2 -68.77,168.15 -138.95,168.15 -33.59,0 -29.78,-17.88 -31.57,-50.33 -7.02,-126.96 -22.14,-253.36 -99.57,-350.83 -126.31,-158.98 -278.32,-56.38 -278.32,257.85 0,96.95 12.22,223.87 34.92,302.87 25.05,87.2 69.44,180.84 87.92,260.13 -90.37,60.52 -131.33,204.59 -255.91,214.96 0,-115.09 -46.18,-255.43 -80.5,-359.66 -35.24,-107.02 -101.97,-210.57 -236.82,-213.58 49.03,-210.44 485.56,-509.52 276.45,-634.73 -144.26,-86.37 -201.81,-19.84 -269.59,109.3 -61.37,116.92 -108.62,136.44 -232.07,136.44 -100.57,0 -0.64,-253.41 11.91,-274.71 54.8,-93.07 265.91,-201.71 359.36,-295.78 109.51,-110.23 404.36,-457.21 143.9,-558.87 -73.97,-28.87 -147.18,-6.89 -238.79,-6.89 0,-166.88 235.44,-248.26 235.44,-440.16 0,-108.1 -39.48,-235.44 -143.31,-235.44 -139.99,0 -197.58,88.81 -273.91,156.03l-112.29 102.68c-189.59,184.23 -194.1,1.95 -383.56,-123.6 -83.94,-55.63 -407.43,-282.09 -407.43,-22.51 0,308.82 57.33,275.97 206.29,489.78 43.65,62.67 35.97,84.88 59.85,134.64 -149.97,0 -337.81,-156.22 -337.81,30.71 0,167.9 14.03,258.09 108.05,383.3 116.96,155.76 294.71,240.78 444.95,353.5 73.84,55.4 67.81,94.49 71.33,235.76 1.25,50.37 9.34,47.47 10.33,92.03 -148.28,-34.54 -345.7,-317.33 -450.4,-317.33 -133.83,0 -143.31,68.44 -143.31,194.49 0,102.16 69.96,212.06 120.33,268.65 55.68,62.55 158.53,139.69 166.29,232.94 -132.28,30.82 -210.1,67.65 -254.66,185.51 -19.64,51.95 -33.69,109.46 -43.75,171.21 -8.37,51.37 -27.95,141.65 -29.16,196.04l-145.18 -90.25c-33.64,-28.38 -69.78,-129.54 -69.78,-186.13 0,-191.4 212.16,-288.62 75.73,-700.15 -65.64,-197.99 -273.89,-42.92 -315.12,92.25l-57.47 249.63c-87.03,0 -109.77,-72.95 -149.23,-137.39 -97.88,-159.83 -225.55,-456.33 -444.48,-456.33 -286.33,0 -221.51,452.31 124.79,673.65 65.86,42.1 204.78,96.71 223.25,175.97 -123.35,65.27 -429.94,115.02 -429.94,276.38 0,69.64 41.94,109.21 85.91,139.3 204.19,139.76 553.28,-29.27 702.29,-129.05 55.73,83.22 138.08,151.19 194.5,235.43l-194.44 0.43c-129.92,-6.95 -450.46,-58.27 -450.46,153.12 0,326.23 761.11,174.02 921.28,174.02 21.71,0 259.45,292.84 291.08,333.34 49.09,62.87 93.53,114.34 140.27,177.06 46.88,62.94 101.03,108.41 121.42,195.91 -89.99,0 -205.13,-37.04 -274.21,32.89 -26.23,26.54 -45.86,42.81 -68.1,75.2 -138.97,202.41 -89.42,628.94 291.13,628.94 496.33,0 528.9,-145.43 881.39,-254.86 85.86,-26.65 187.09,-38.96 284.96,-52.83 154.28,-21.87 467.78,-51.96 625.12,-50.49 102.67,0.96 217.44,-18.08 317.22,-20.57 184.09,-4.6 420.25,-37.04 597.81,-77.79 111.74,-25.65 155.6,-47.22 245.14,-92.66 36.72,-18.64 68.86,-37.33 104.83,-58.96 36.76,-22.11 73.64,-45.4 106.69,-67.34l774.64 -576.57c33.47,-27.1 56.53,-45.84 90.93,-72.86 32.55,-25.57 66.25,-57.18 96.55,-77.47 88.18,131.68 280.89,172.12 362.91,292.23 117.45,172.04 10.82,408.04 -52.83,570.62 -120.37,307.49 -179.28,413.38 -350.99,672.66 -26.47,39.98 -205.9,262.73 -215,296.82 99.11,-23.09 259.19,-91.57 378.68,-122.89 138.02,-36.18 264.07,-71.6 440.23,-71.6 686,0 910.32,348.04 1013.41,348.04 82.99,0 19.6,-203.89 222.69,-432.43 67.69,-76.17 125.09,-151.04 248.18,-151.04 -10.36,124.54 28.88,125.32 59.51,237.35 40.09,146.68 155.46,672.9 155.46,806.77l0.23 286.85c0.75,181.82 -31.81,152.67 11.31,407.91 58.64,347.02 242.98,336.24 268.27,458.52 33.33,161.18 -33.89,111.74 78.29,361.89 121.42,270.76 189.43,128.93 348.21,235.26 0,141.99 58.15,282.44 101.06,410.76 43.42,129.84 82.25,254.08 131.33,380.51 25.22,64.99 50.42,116.86 76.13,179.78 48.26,118.15 107.31,230.21 169.33,342.48 173.2,313.57 204.37,214.07 366.15,268.51 54.18,18.24 50.51,16.85 66.23,66.85 40.44,128.61 115.59,221.19 166.04,345.78 273.53,675.59 479.68,373.05 479.68,308.53 0,-139.9 -55.94,-256.37 -115.97,-375.38 -128.44,-254.63 -544.33,-1330.07 -604.66,-1596.19 -126.81,-559.4 -346.03,-2007.84 -343.75,-2532.68l-51.39 -1054.14c0.11,-86.69 -10.8,-138.19 -10.48,-214.73l19.83 -1864.16c-0.3,-38.16 -7.9,-70.77 31.6,-70.77 80.55,0 134.46,89.58 167.36,149.97 35.84,65.78 37.49,191.13 37.37,290.2l-10.25 992.94c0,179.66 74.19,451.28 147.46,558.85 115.92,170.2 159.63,21.18 159.63,556.92 0,145.07 -19.85,349.32 -2.79,473.68 13.79,100.53 -2.98,239.18 2.75,345.29 16.1,298.16 100.96,912.95 208.92,1183.23 31.18,78.06 86.05,158.88 149.55,198.49 81.85,51.05 210.83,54.53 253.34,63.99 2.66,0.6 5.73,1.57 8.05,2.19 2.23,0.59 5.8,2.14 7.56,2.67 44.11,13.37 47.9,61.02 54.51,109.27l53.6 437.75c57.99,351.23 152.15,680.54 330.92,979.35 47.36,79.18 92.36,131.16 202.96,83.8 68.59,-29.37 147.6,-97.02 214.93,-112.71 81.61,154.24 81.74,134.35 92.43,327.27 12.6,227.54 37.52,519.61 151.15,708.7 15.52,25.82 21.66,38.63 40.47,61.9 179.04,221.55 350.6,126.52 350.6,-63.99 0,-130.76 -183.56,-1180 -209.26,-1356.91 -17.51,-120.51 -23.89,-227.35 -39.42,-349.57 -29.08,-228.93 -76.4,-657.6 -89.42,-893.28 -11.06,-200.08 -52.33,-502.02 -70.47,-717.74 -36.67,-436.14 -83.31,-852.32 -82.77,-1288.91 0.09,-75.91 -8.76,-123.14 -10.57,-183.92 -1.95,-65.3 5.08,-140.72 -0.21,-204.53 -10.04,-121.34 -18.15,-237.49 -51.76,-337.22 -49.6,-147.23 -81.71,-141.18 -152.43,-246.8 14.14,-19.29 51.28,-44.82 74.5,-68.81 32.81,-33.9 40.88,-49.83 58.87,-94.67 58.63,-146.1 59.65,-367.91 42.14,-523.85 -4.47,-39.84 -1.09,-90.82 -1.14,-131.92 -0.07,-61.51 -10.28,-74.21 -10.99,-132.32 -0.53,-43.24 2.76,-90.87 0.46,-133.53l-9.88 -256.27c-0.72,-58.1 -10.91,-70.82 -10.99,-132.32 -0.13,-88.75 -0.05,-177.82 0.41,-266.57 0.49,-93.38 -10.13,-163.98 -10.54,-266.32 -0.23,-59.43 7.96,-75.01 10.53,-122.55 2.27,-42.15 -0.46,-90.64 -0.4,-133.48 0.1,-78.7 17.15,-180.05 20.8,-255.58 24.6,-509.45 76.38,-973.98 159.43,-1468.17 51.78,-308.11 117.97,-558.92 -52.39,-788.47 -46.99,-63.31 -167.43,-143.02 -261.86,-145.38 -221.01,-5.52 -636.13,464.47 -767.91,639.89 -31.53,41.98 -52.96,76.12 -84.71,120.02 -130.13,179.91 -501.62,674.79 -668.63,846.37 -44.37,45.58 -92.69,133.31 -167.56,112.31 -169.76,-47.61 -172.45,-62.76 -172.58,-238.18 -0.04,-69.02 -10.31,-113.99 -10.25,-194.48l-22.31 -376.92c-13.01,-117.53 -8.75,-266.84 -8.73,-400.72 0.01,-131.9 -4.79,-266.38 -39.24,-359.98 -135.77,-368.77 -644.77,-56.88 -818.25,116.68 -71.8,71.83 -121.26,114.03 -238.4,-83.67 -206.77,-348.99 -362.34,-627.9 -732.91,-812.8 -226.32,-112.93 -543.23,-138.3 -791.97,-78.6 -233.51,56.03 -432.92,177.46 -615.54,326.22 -118.29,96.37 -209.02,203.34 -274.67,349.74 -56.78,126.61 -112.71,329.16 -112.71,511.71z"/>
   <path class="fil0" d="M1674.66 16686.26c207.84,0 354.19,-277.41 458.58,-431.99 96.14,-142.36 182.04,-300.13 267.68,-448.88 17.63,-30.62 36.27,-61.53 51.77,-91.54 129.68,-251.14 276.14,-490.61 402.58,-743.91l651.87 -1354.46c293.67,-596.07 514.15,-1226.36 725.37,-1854.22 124.24,-369.29 206.06,-746 314.87,-1118.24 16.76,-57.35 44.29,-174.26 106.1,-190.77 37.59,78.34 11.82,216.17 1.5,308.6 -12.25,109.54 -5.95,229.17 -19.14,328.9l-31.71 316.33c-14.6,104.65 -36.59,190.28 -67.09,280.95 -92.53,275.04 -89,256.34 -203.75,492.32 -84.2,173.15 -131.64,527.5 -130.34,749.99 0.93,160.57 -68.8,1010.72 -84.62,1133.52 -39.32,305.12 -54.77,636.94 -96.39,947.73 -15.09,112.68 -33.82,229.36 -33.82,344.92 0,37.59 15.85,49.49 30.71,71.66 154.52,-12.86 156.87,-228.99 186.79,-376.23 100.42,-494.36 135.93,-1022.62 199.41,-1520.31l33.84 -529.16c-0.38,-430.56 58.73,-609.72 147.04,-999.45 204.69,-903.3 282.55,-1072.96 282.55,-2000.17 0,-91.97 -7.22,-193.94 5.92,-280.7l24.58 -548.66c-0.36,-79.84 16.67,-188.66 20.49,-266.13 18.31,-370.08 96.81,-844.9 262.77,-1170.33 30.23,-59.28 59.91,-143.59 136.64,-149.97 54.85,235.46 21.59,184.84 10.25,419.71 -1.54,31.76 1.55,57.05 -2.82,89.31l-27.87 739.86c0.29,77.78 -10.53,115.91 -10.62,183.87 -0.19,136.1 -10.55,240.88 -9.82,368.93l-83.48 1247.25c-4.96,46.2 -14.71,128.7 -18.35,176.15 -4.83,63.08 -9.98,115.61 -10.78,173.47 -0.59,42.87 -6.67,133.34 -13.11,181.39 -5.59,41.81 -11.37,124.27 -16.15,168.1l-11.92 182.58c-2.31,283.52 -83.58,747.16 -123.24,1033.48 -15.11,109.1 -32.73,220.43 -50.54,328.21 -8.18,49.49 -110.53,399.16 -0.07,399.16 111.62,0 186.4,-969.98 196.22,-1062.86l58.92 -575.75c35.5,-459.42 88.37,-906.42 124.39,-1370.13 14.81,-190.65 41.17,-382.75 50.59,-573.83 2.84,-57.54 17.26,-137.34 20.1,-194.87 6.45,-130.76 19.99,-264.04 30.36,-389.33l10.77 -419.16c0,-78.08 4.48,-131.93 9.7,-195.03 5.62,-67.83 -3.22,-145.73 0.49,-214.47 6.47,-119.74 19.46,-271.92 43.44,-386.5 21.43,-102.46 67.45,-220.25 118.27,-301.43 34.57,-55.24 144.52,-212.84 217.1,-212.84 62.46,0 116.97,79.18 136.19,129.96 56.83,150.22 20.47,334.8 43.75,488.55 26.85,177.4 -15.97,1418.27 -45.23,1696.56l-42.22 459.37c-31.89,473.2 -149.19,1273.36 -254.11,1731.75 -161.02,703.44 -309.98,1408.43 -572.42,2078.83 -124.7,318.55 -260.09,622.75 -394.9,935.84l-259.82 569.33c-92.69,183.76 -175.75,371.89 -281.74,547.42 -44.09,73.02 -79.78,139.74 -124.1,213.7l-181.64 309.71c-67.18,115.23 -61.94,144.77 80.2,176.92 59.65,13.49 100.35,21.35 165.47,7.48 148.58,-31.66 239.74,-130.73 310.98,-252.16l204.94 -378.54c169.76,-336.81 305.98,-728.89 443.92,-1081.3 146.68,-374.69 272.36,-763.43 369.48,-1155.77 50.38,-203.56 104.38,-402.63 146.29,-611.2 41.62,-207.11 93.94,-431.52 129.31,-638.43 37.41,-218.79 80.29,-421.45 116.92,-640.58 76.23,-455.94 164.06,-1223.44 204.11,-1699.87l31.39 -357.6c20.9,-197.46 60.77,-730.69 59.87,-881.88 -0.47,-77.2 9.83,-119.94 10.62,-183.87 2.62,-211.74 -19.05,-570.4 7.04,-760.71 37.88,-276.37 -44.98,-360.97 101.69,-655.79 77.19,-155.15 151.74,-268.79 312.5,-141.8 33.96,26.83 56.7,67.35 71.27,112.99 106.36,333.18 -8.92,1209.7 -58.59,1572.12 -26.25,191.56 -71.15,619.26 -76.03,814.52 -2.27,90.48 -17.97,181.9 -20.39,276.49 -4.12,161.27 -31.4,359.74 -30.56,563.14 0.25,62.72 -9.22,79.16 -10.82,132.5l-9.49 1781.89c-0.74,59.11 -11.15,77.16 -10.89,142.66 0.44,109.78 10.73,182.47 10.49,286.84 -0.45,197.9 0.94,395.92 -0.07,593.79 -0.92,177.88 21.57,395.24 20.6,573.11 -0.78,143.92 20.61,315 20.29,430.11 -0.69,256.73 100.17,978.55 137.56,1203.41 30.01,180.39 85.79,556.09 218.04,672.55 79.33,69.86 473.68,150.11 473.68,-84.69 0,-463.23 -136.44,-876.51 -222.59,-1312.88l-189.43 -916.11c-19.45,-98.04 -40.68,-207.82 -65.08,-313.66 -70.37,-305.23 -154.22,-621.55 -167.73,-937.81 -2.41,-56.39 -5.95,-110.58 -10.88,-173.38 -21.94,-279.68 -40.76,-602.1 -40.38,-880.9 0.37,-285.24 -20.47,-576.72 -20.47,-870.1 0,-485.3 53.09,-952.08 115.72,-1419.75 8.56,-63.87 22.74,-160.74 27.24,-228.67l71.43 -696.31c21.18,-150.88 47,-298.92 70.9,-440.92 20.16,-119.78 85.62,-542.77 130.97,-636.76 37.51,-77.73 138.23,-78.46 228.64,-78.46 29.01,0 74.9,58.61 95,79.02 98.95,100.53 58.71,335.19 58.54,473.76l10.24 522.05c-0.09,72.85 7.19,116.56 10.28,173.97 11.7,216.61 3.08,486.14 0.36,706.77 -0.76,61.11 -11.09,91.52 -10.71,163.31 1.24,242.06 -16.9,560.82 8.81,789.77l11.39 387.84c0.02,104.97 20.67,263.16 34.07,365.15 19.37,147.44 45.22,302.32 70.08,451.98 24.86,149.67 56.66,298.68 81.83,450.47 41.19,248.46 109.1,638.49 176.96,877.39 40.48,142.49 80.98,277.06 118.52,413.78l188.23 599.97c242.64,729.72 445.76,1473.17 730.11,2187.29 66.32,166.59 146.44,398.81 269.94,528.5 79.98,84.01 195.64,72.5 306.24,72.5 199.25,0 181.8,-186.63 128.84,-313.08 -89.44,-213.53 -277.13,-472.83 -388.27,-676.33 -64.54,-118.18 -121.06,-232.21 -180.74,-351.56 -180.43,-360.85 -560.8,-1103.18 -696.1,-1443.31 -155.08,-389.85 -288.68,-796.48 -391.03,-1205.86 -149.54,-598.14 -305.03,-1796.72 -305.03,-2376.91 0,-211.44 -17.7,-1285.44 16.16,-1509.08l34.72 -1070.81c0.36,-173.48 115.44,-205.43 194.37,-70.92 76.1,129.68 151.04,216.13 180.44,382.56 37.49,212.3 -5.02,514.71 65.54,691.96 36.83,92.53 84.14,168.89 122.84,255.91 123.12,276.84 212.46,542.06 288.82,847.43 109.76,439.01 151.8,782.8 306.22,1208.78 14.9,41.11 32.29,93.42 50.15,134.1l115.84 262.91c231.12,458.52 521.96,837.05 879.4,1198.59l143.86 132.52c24.57,20.54 31.96,22.49 56.05,46.33l271.06 291.93c108.53,113.95 332.56,400.95 427.49,524.51 253.59,330.08 430.56,711 617.46,1081.79 108.2,214.65 198.03,439.67 287.6,664.38 27.66,69.4 76.04,219.34 159.41,219.34 240.02,0 -218.42,-739.14 -307.15,-910.98 -44.68,-86.53 -96.87,-170.33 -143.25,-255.98 -204.48,-377.49 -427.69,-761.47 -694.74,-1096.63l-756.28 -840.61c-189.55,-189.52 -507.88,-546.06 -637.81,-764.59l-275.94 -512.25c-19.4,-39.38 -43.83,-95.57 -59.85,-134.64 -171.75,-419.06 -203.44,-647.47 -295.71,-1106.68 -42.63,-212.23 -75.29,-469.23 -150.11,-648.33 -82.17,-196.68 -201.4,-333.41 -244.4,-554.04 -4.68,-24.02 -18.75,-144.59 -15.12,-173.79l18.54 -187.81c4.8,-114.98 -28.85,-248.26 -49,-350.31 -40.58,-205.41 -127.42,-424.48 -233.61,-564.83 -276.42,-365.37 -452.46,-296.81 -854.41,-292.07 -67.46,0.79 -61.47,9.03 -100.17,-22.68 -38.11,-31.21 -265.33,-144.94 -325.95,-175.63 -121.61,-61.57 -255.79,-62.96 -421.8,-46.3 -52.2,5.24 -156.35,25.29 -205.05,40.63 -385.92,121.53 -584.92,12.54 -846.67,402.18 -152.93,227.66 -199.99,479.84 -252.44,750.73l-67.2 424.14c-20.39,146.82 -45.3,288.51 -74.1,427.49 -28.34,136.74 -64.02,266.81 -93.95,407.63 -27.96,131.47 -59.47,272.75 -91.6,409.99 -30.26,129.22 -63.55,267.75 -90.93,400.41 -78.73,381.26 -202.14,822.76 -306.22,1198.54 -139.08,502.18 -322.84,988.1 -514.76,1471.1l-307.59 685.35c-106.21,210.7 -215.83,482.28 -330.09,673.08l-168.23 323.12c-324.78,627.29 -812.43,1208.81 -1203.68,1795.61 -32.22,48.32 -70.34,100.56 -87.18,159.66 -17.65,61.94 34.37,133.09 103.54,133.09z"/>
   <path class="fil0" d="M11000.06 16911.47c80.39,0 194.5,-58.27 194.5,-133.07 0,-100.64 -171.78,-324.23 -231.34,-413.56 -261.48,-392.22 -407.36,-580.37 -678.27,-939.09l-134.07 -193.5c-105.85,-178.55 -194.21,-307.34 -304.38,-504.3l-395.59 -740.66c-93.93,-189.67 -335.58,-673.71 -420.56,-879.46 -31.39,-75.99 -68.71,-142.52 -99.52,-217.81l-141.95 -339.16c-15.77,-39.95 -27.8,-75.39 -45.24,-118.54 -324.26,-802.43 -618.23,-1925.78 -814.5,-2768.27 -9.42,14.86 1.05,-10.52 -9.91,20.81 -78.85,225.5 212.51,1359.02 276.06,1586.31 141.05,504.49 236.07,754.13 403.05,1224.55 30.03,84.62 60.25,152.51 94.22,233.36l908.54 1998.61c38.13,76.25 72.51,145.01 109.19,218.37l163.65 327.7c225.29,432.8 502.93,944.57 767.87,1340.84 72.33,108.2 185.64,296.85 358.27,296.85z"/>
   <path class="fil0" d="M5431.44 16409.88c0,87.05 23.78,172.9 64.1,222.51 108.56,133.61 321.1,117.05 386.29,2.68 36.22,-63.55 40.53,-279.8 40.61,-368.85 0.05,-61.52 10.27,-74.19 10.99,-132.32 1.13,-91.75 -0.41,-184.87 -0.41,-276.79 0,-191.71 10.25,-349.03 10.25,-542.53 0,-167.73 -12.79,-391.35 0.53,-552.23 7.01,-84.67 9.86,-167.43 9.46,-266.92l20.76 -388.7c2.51,-46.34 -1.79,-96.97 -0.38,-143.69 1.57,-52.41 10.85,-62.94 10.92,-122.15 0.06,-46.62 -3.81,-95.16 2.45,-140.87 25.52,-186.2 25.82,-978.55 58.62,-1046.91 -29.2,11.79 -16.65,-2.12 -47.37,85.7 -13.7,39.19 -23.84,58.24 -35.95,97.12 -47.14,151.23 -366.2,2600.34 -461.84,3090.21 -26.08,133.55 -69.01,327.93 -69.01,483.74z"/>
   <path class="fil0" d="M2636.88 16532.72c0,148.83 107.62,133.07 266.15,133.07 113.99,0 165.72,-111.57 195.88,-203.34 99.5,-302.68 240.45,-910.91 343.1,-1264.02l218.58 -794.83c12.38,-47.18 36.95,-116.47 40.89,-163.84 -67.82,49.69 -497.16,985.25 -563.04,1115.73 -23.26,46.07 -40.05,90.9 -64.77,139.96 -27,53.54 -44.47,92.75 -68.4,146.56 -91.61,206.01 -368.38,745.05 -368.38,890.7z"/>
   <path class="fil0" d="M2012.47 1874.12c139.96,0 156.12,-43.33 200.9,-177.85 50.37,-151.26 95.51,-473.01 13.85,-630.62 -108.26,-208.92 -360.34,-194.97 -431.25,49.45 -23.48,80.93 -46.63,382.66 -30.98,474.2 9.51,55.67 44.07,155.7 68.17,197.97 30.94,54.27 97.81,86.85 179.3,86.85z"/>
   <polygon class="fil0" points="10160.68,14219.28 10160.68,14209.05 10148.74,14217.57 "/>
  </g>
 </g>
</svg>
