<?xml version="1.0" encoding="UTF-8"?>
<!DOCTYPE svg PUBLIC "-//W3C//DTD SVG 1.1//EN" "http://www.w3.org/Graphics/SVG/1.1/DTD/svg11.dtd">
<!-- Creator: CorelDRAW 2021 (64-Bit) -->
<svg xmlns="http://www.w3.org/2000/svg" xml:space="preserve" width="168.857mm" height="148.731mm" version="1.1" style="shape-rendering:geometricPrecision; text-rendering:geometricPrecision; image-rendering:optimizeQuality; fill-rule:evenodd; clip-rule:evenodd"
viewBox="0 0 17265.43 15207.58"
 xmlns:xlink="http://www.w3.org/1999/xlink"
 xmlns:xodm="http://www.corel.com/coreldraw/odm/2003">
 <defs>
  <style type="text/css">
   <![CDATA[
    .fil0 {fill:#231F20}
   ]]>
  </style>
 </defs>
 <g id="Layer_x0020_1">
  <metadata id="CorelCorpID_0Corel-Layer"/>
  <g id="_2108684452064">
   <path class="fil0" d="M5751.09 1946.54c0,132.33 84.59,117.23 24.27,376.12l-84.93 0c-44.01,-65.71 -78.99,-159.05 -121.87,-229.99 -37.43,-61.91 -93.45,-174.41 -169.33,-194.67 -95.03,90.15 44.1,171.11 -150.53,322.66 -372.19,289.79 -270.39,111.77 -167.33,529.07 115.3,466.84 160.13,749.27 160.13,1259.44 0,440.85 -83.47,609.14 -291.77,957.95 -141.25,236.53 -301.09,426.89 -538.67,565.45 -130.85,76.31 -79.79,129.86 -36.13,325.97 19.26,86.55 30.29,156.38 45.08,246.1 92.18,559.09 44.64,994.33 -126.2,1531.04 -24.69,77.6 -66.29,186.44 -103.78,260.2 -40.73,80.12 -73.63,157.46 -108.13,243.74 -34.64,86.64 -67.47,165.88 -94.5,257.36 -49.83,168.72 -92.69,412.41 -92.69,623.18 39.36,-28.83 105.77,-205.65 134.01,-254.26 209.15,-359.94 322.02,-632.49 633.42,-943.89 33.63,-33.63 66.17,-62.28 96.97,-97.15 33.02,-37.37 59.23,-75.85 91.34,-114.93 123.37,-150.16 219.88,-310.23 318.87,-481.92 355.23,-616.1 502.94,-1100.76 590.51,-1787.57 16.45,-128.94 15.74,-240.93 29.51,-370.9 66.99,-632.56 -27.17,-664.69 -87.93,-1177.77 -35.64,-300.85 149.3,-285.41 218.24,-108.88 97.5,249.71 114.22,636.86 150.38,917.34l33.33 500.52c0.45,221.46 -26.33,541.97 -55.69,745.92 -23.83,165.52 -52.33,295.67 -92.86,441.01 -83.69,300.14 -247.31,662.88 -461.79,884.98l-127.16 139.77c-78.74,78.72 -200.13,185.21 -264.84,269.02l-123.61 143.31c-296.2,332.54 -558.08,712.92 -755.27,1113.23 -152.57,309.73 -193.95,654.37 -193.95,1055.76 0,369.15 80.54,735.26 252.33,1021.64 67.67,112.8 125.53,191.68 281.52,191.68 214.07,0 85.57,-418.94 65.66,-563.12 -64.45,-466.67 -18.74,-958.11 152.72,-1390.32 152.24,-383.74 183.62,-421.96 387.57,-765.08 161.21,-271.19 325.35,-393.62 603.47,-549.18 128.46,-71.86 261.59,-125.41 392.01,-190.38 117.17,-58.36 286.26,-121.21 461.19,-121.21 -66.18,57.53 -433.62,226.84 -694.54,458.13 -270.53,239.8 -477.93,524.06 -678.93,825.57 -510.01,765.08 -361.57,1351.82 -361.57,2247.05 0,52.4 -20.72,146.81 -35.95,182.45 -117.95,276.12 -680.96,-119.42 -782.26,-249.96 -38.15,-49.14 -74.04,-87.75 -103.56,-139.1 -135.92,-236.43 -309.52,-637.08 -339.2,-910.52 -8.2,-75.65 -15.87,-138.64 -31.94,-210.71 -19.86,-89.05 -48.06,-104.06 -150.35,-104.46 -607.31,-2.35 -1295.78,81.08 -1898.52,-30.63 -281.53,-52.18 -857.18,-320.88 -1072.74,8.88 -73.81,112.92 -68.51,221.33 -31.13,367.01 121.21,472.42 198.15,756.34 223.29,1244.82 2.76,53.55 11.03,50.5 12.55,108.79l15.25 433.99c17.6,123.37 -11.65,283.27 -29.85,413.58 -9.13,65.37 -15.9,127.38 -25.73,204.8 -17.19,135.49 -24.17,259.6 -33.07,416.43 -3.26,57.48 -9.86,38.2 -4.97,89.67 22.31,234.58 53.4,408.6 189.59,611.31 121.76,181.23 246.71,357.09 384.14,525.84 119.99,147.32 577.29,714.13 656.92,714.13 74.7,0 130.53,-114.92 145.09,-182.5 22.02,-102.36 50.01,-478.24 48.83,-606.35 -1.9,-206.99 64.99,-442.04 -75.66,-639.79 -59.11,-83.1 -128.99,-120.87 -239.31,-148.95 -212.25,-54.02 -449.21,-66.81 -449.21,-351.57 0,-167.66 139.38,-154.92 206.27,-254.8 -5.92,-71.09 -30.92,-154.19 -43.41,-235.64 -12.06,-78.57 -27.49,-184.79 -29.77,-261.42 -5.85,-195.91 -11.74,-365.69 -11.74,-558.51 0,-138.27 9.99,-239.3 11.65,-376.61 2.07,-171.22 43.08,-501.62 184.2,-592.32 181.83,-116.87 594.74,-55.38 777.54,-4.47 65.11,18.14 114.56,37.34 167.31,63.22 153.81,75.46 286.72,179.87 429.35,274.36 451.86,299.35 675.56,530.5 1215.7,664.94 96.85,24.11 332.46,61.62 332.46,152.86 0,36.72 -220.73,297.74 -257.84,336.68 -183.48,192.66 -393.49,450.15 -556.65,656.66l-140.93 162.39c-55.76,55.18 -103.94,91.06 -157.82,145.51l-533.59 522c-77.64,74.73 -170.02,138.26 -243.09,217.97 -180.82,197.27 -306.18,352.46 -306.18,664.46 0,161.59 108.99,303.33 266.93,303.33 262.93,0 496.82,-62.29 764.46,-60.59 98.1,0.62 144.33,-12.79 242.5,-12.29 341.8,1.76 645.02,12.21 982.87,12.21 293.77,0 546.01,-12.13 837.18,-12.13 286.36,0 563.86,-4.93 784.12,-77.34 117.8,-38.73 206.34,-63.79 316.6,-108.06 146.58,-58.85 804.19,-325.81 804.19,-494.06 0,-82.35 -127.22,-126.01 -202.06,-161.93l-245 -106.86c-116.53,-46.91 -417.35,-155.87 -559.99,-155.87 -58.69,0 -174.68,226.51 -208.43,276.89 -316.83,472.85 -729.82,2.17 -847.15,2.17 -23.36,0 -143.38,65.83 -173.76,81.03 -195.3,97.79 -435.27,114.62 -651.13,113.26l-751.77 12.61c-91.04,7.54 -206.9,61.33 -206.9,-61.3 0,-104.75 260.42,-316.22 355.49,-396.77 450.34,-381.51 936.67,-556.79 1403.77,-889.39 84.47,-60.14 173.58,-114.95 258.25,-178.54 44.82,-33.66 83.81,-57.36 128.21,-90.18 44.39,-32.82 81.35,-58.2 126.5,-91.9 45.27,-33.77 81.32,-57.65 126.68,-91.72 45.64,-34.27 80.06,-60.85 123.12,-95.29 304.22,-243.28 531.16,-449.39 805.5,-723.28 73.96,-73.83 141.96,-149.42 200.97,-235.82 32.22,-47.16 51.65,-85.35 82.08,-136.33 49.57,-83.04 103.65,-261.81 199.24,-261.81 62.39,0 42.9,110.4 36.17,157.17 -47.72,331.38 -642.82,909.73 -642.82,971.21 0,74.45 146.07,83.1 209.81,93.51 738.26,120.46 741.41,72.78 1452.51,76.44 169.04,0.87 736.7,-19.91 890.62,-55.77 45.2,-10.53 214.3,-55.08 244.29,-71.17 61.17,-32.8 88.71,-131.71 116.32,-199.15 142.35,-347.65 375.4,-675.85 638.42,-938.88 214.69,-214.7 465.76,-377.85 772.42,-501.55 142.93,-57.66 326.97,-105.06 497.5,-133.43 182.61,-30.39 386.9,-43.12 577.3,-53.63 109.59,-6.05 190.37,10.59 303.84,11.73 334.55,3.31 713.17,121.66 970.16,303.82 103.03,73.03 209.62,157.48 289.53,256.47l164.62 235.77c232.31,388.83 281.89,1160.6 147.58,1638.2 -48.52,172.5 -141.84,315.04 -230.33,449.13 -244.01,369.72 -668.12,512.18 -1123.61,562.9l-314.35 24.1c-374.12,-26.35 -677.59,-128.21 -938.34,-421.54 -124.12,-139.63 -200.19,-327.54 -182.63,-552.66 3.13,-40.04 -1.65,-35.28 -1.79,-56.84 -0.2,-30.42 9.12,-80.11 21.51,-117.44 26.12,-78.67 73.63,-173.86 153.74,-173.86 58.64,0 161.21,270.44 183.69,325.89 96.14,237.03 248.07,437.42 485.17,534.01 481.43,196.13 994.26,80.05 1378.11,-244.64 428.92,-362.81 404.26,-1083.32 259.79,-1575.25 -116.62,-397.16 -355.08,-707.14 -739.69,-861.89 -543.83,-218.79 -1294.88,-136.24 -1804.69,67.62 -149.85,59.93 -286.67,133.83 -412.8,218.13 -257.8,172.31 -459.59,362.46 -630.92,618.8 -64.05,95.82 -112.73,203.05 -172.3,300.89 -21.73,35.67 -35.83,62.38 -55.09,102.65 -35.9,75.03 -63.72,144.1 -94.61,220.85 -61.86,153.69 -107.41,324.43 -135.3,495.62l-27.77 287.85c-40.34,258.14 106.6,821.92 195.99,1043.49 91.63,227.14 197.23,414.85 347.74,598.64 69.66,85.07 141.33,174.88 224.81,248.38l259.31 213.87c492.41,370.37 1512.53,416.56 2141,324.19 604.49,-88.85 1178.63,-442.05 1597.7,-877.45 33.32,-34.62 42.76,-56.02 78.45,-91.42 355.28,-352.33 524.93,-906.35 524.93,-1464.9 0,-686.62 -54.17,-1074.07 -311.95,-1677.88 -82.05,-192.19 -194.48,-370.05 -304.33,-544.99 -79.05,-125.87 -174.72,-247.02 -272.14,-358.79 -129.99,-149.15 -259.05,-310.61 -416.84,-432.48l-353.53 -289.53c-245.29,-184.17 -518.34,-338.71 -787.94,-486.04l-547.83 -313.62c-383.75,-230.69 -683.26,-360.27 -981.54,-717.1l-97.06 -109.2c-345.26,-412.25 -745.32,-871.6 -1017.51,-1324.18l-438.05 -835.91c-77.49,-167.24 -208.32,-429.24 -243.42,-605.91 -20.4,-102.68 -25.73,-171.51 -125.98,-201.74 -54.48,-16.42 -25.52,7.78 -71.38,-13.44 -46.12,-198.01 124.76,-485.32 -194.13,-485.32 -25.33,-108.73 -33.65,-263.83 -46.36,-378.3 -5.3,-47.71 -13.47,-93.77 -14.3,-131.29 -59.05,0 -96.36,-6.96 -154.36,15.34 -215.91,83.05 -175.83,-0.43 -202.62,-192.22 -12.84,-91.99 -21.06,-170.49 -55.54,-235.64 -54.9,4.56 -68.58,38.02 -100.17,69.69 -44.1,44.22 -52.94,88.04 -118.23,88.04 -102.28,0 1.82,-366.46 -121.33,-448.92 -66.84,15.57 -85.86,55.27 -133.41,84.97 -24.52,15.32 -133.23,65.64 -151.9,31.05 -22.52,-41.75 94.96,-577.08 -54.41,-577.08 -131.07,0 -16.98,279.06 -279.07,279.06 -8.5,-102.07 -90.99,-402.74 -179.4,-475.79 -28.57,-23.61 -123.94,-67.67 -123.94,2.61 0,108.58 95.16,129.47 7.41,250.07 -27.63,37.95 -29.71,45.09 -68.08,65.39 -88.35,-59.17 -106.77,-269.07 -161.28,-396.84 -35.79,-83.86 -35.99,-197.69 -154.18,-197.69 -54.64,0 -30.34,178.54 -40.75,238.32 -13.97,80.27 -63.91,126.53 -116.98,162.07 -37.36,-55.79 -46.82,-54.09 -67.59,-138.68 -35.86,-146.01 -47.85,-287.1 -143.1,-402.89 -32.94,-40.04 -104.77,-67.58 -104.77,7.71 0,125.67 89.81,265.45 -72.8,303.33 -89.36,-59.84 -102.09,-288.59 -233.07,-422.2 -34.15,-34.84 -118.8,-81.19 -118.8,9.67z"/>
   <path class="fil0" d="M2014.1 4288.23c0,-505.44 1086.03,-863.11 841.1,-542.08 -63.55,83.29 -149.98,239.05 -217.4,340.72 -82.58,124.5 -212.88,266.78 -352.79,326.66 -69.44,29.72 -204.63,51.12 -246.96,-27.92 -7.83,-14.62 -23.95,-73.95 -23.95,-97.38zm5544.84 -3894.74c-789.57,0 -1495.65,-91.19 -2236.19,-190.43 -457.77,-61.35 -919.69,-100.76 -1391.61,-100.76 -324.5,0 -665.31,65.98 -924.6,130.98 -501.66,125.77 -1012.22,391.46 -1278.69,832.46 -109.24,180.79 -235.47,610.65 -235.47,832.25 -260.59,0 -564.53,24.88 -825.04,24.28 -204.23,-0.46 -667.34,8.67 -667.34,181.98 0,175.87 304.82,398.38 480.71,453.54 204.71,64.2 446.3,43.92 659.8,43.92 80.69,0 105.03,-12.14 181.99,-12.14 17.15,64.18 37.03,27.45 37.07,132.8 0.1,282.19 73.66,533.15 72.22,813.5 -0.74,143.86 -21.1,577.73 17,686.71 52.55,150.25 224.48,165.5 267.24,436.49 16.52,104.71 43.54,193.48 43.69,308.17 0.44,341.34 -45.12,1090.36 -9.51,1368.42 39.1,305.21 182.26,483.79 393.59,662 69.73,58.78 146.35,117.57 258.57,117.57 218.5,0 280.81,-221.55 360.09,-380.03 22.95,-45.88 33.39,-79.75 56.33,-125.66l194.26 -363.86c289.07,-542.06 452.96,-614.02 1008.21,-836.03 338.62,-135.39 333.98,-203.5 591,-525.24 116.95,-146.4 218.36,-275.1 282.08,-458.03 137.83,-395.67 169.63,-635.61 118.88,-1038.26 -29.95,-237.73 -4.21,-592.27 -341.97,-592.27l-533.51 12.48c-78.87,4.27 -143.75,23.92 -230.88,23.92 8.42,-101.04 155.56,-183.26 238.41,-222.65 178.24,-84.73 487.36,-178.42 620.24,-301.88 111.51,-103.6 124.13,-256.2 124.13,-409.73 0,-105.47 -190.22,-16.23 -237.48,-6.94 -78.95,15.49 -132.45,25.73 -216.7,38.1 -148.59,21.82 -292.76,41.65 -455.8,41.65 -86.15,0 -97.06,-69.86 -97.06,-145.6 0,-195.45 469.06,-430.19 672.1,-480.54 205.3,-50.92 424.93,-71.66 638.91,-53.95 46.12,3.81 98.6,-1.15 145.36,0.24 172.97,5.12 345.48,31.35 519.14,51.11l827.25 46.34c107.28,-0.26 164.29,12.75 266.84,12.22 96.65,-0.49 195.28,-1.75 291.76,-0.56l278.58 12.62c244.53,-0.01 1083.46,17.1 1242.7,-7.01 106.72,-16.15 249.46,-0.14 350.06,-13.94l348.66 -15.33c209.65,2.04 467.37,-42.02 679.32,-48.67 219.25,-6.87 445.95,-39.53 653.52,-74.47 105.35,-17.73 216.15,-37.23 318.28,-57.84 195.99,-39.57 395.97,-90.51 576.69,-151.29 266.08,-89.48 526.29,-185.19 768.34,-323.65 163.96,-93.78 546.6,-357.5 546.6,-557.52 0,-50.37 -48.09,-48.53 -84.94,-48.53 -120.64,0 -319.06,153.37 -407.51,211.27 -415.89,272.2 -848.97,407.91 -1354.19,526.45 -514.01,120.6 -648.44,95.14 -1103.48,146.24 -102.33,11.48 -208.8,-8.84 -310.38,5.08 -115.97,15.9 -786.1,20.95 -925.43,20.95 -154.3,0 -762.37,-8.4 -915.11,-31.27l-1086.77 -90.15c-213.79,-9.18 -440.83,-43.44 -656.07,-59.77 -658.45,-50 -1362.69,-77.56 -2023.46,-10.96 -426.21,42.96 -923.33,255.4 -1184.22,599.35 -111.43,146.9 -131.49,204.68 -310.12,163.06 -60.07,-257.86 293.49,-625.04 487.55,-750.02 431.44,-277.88 862.16,-281.73 1356.71,-257.05 98.95,4.94 223.21,24.44 327.7,24.16l1467.49 97.68c57.57,0.72 125.68,-4.49 181.84,0.15 199.65,16.52 437.61,10.48 643.85,11.66l497.94 -23.79c41.76,-3.45 90.76,0.35 133.31,-0.15 62.67,-0.74 66.87,-9.88 120.8,-12.66 631.74,-32.52 1221.11,-118.52 1813,-286.02 879.02,-248.77 841.25,-497.76 393.66,-358.6 -338.31,105.18 -565.81,221.12 -948.29,277.16 -466.78,68.38 -1034.35,76.31 -1561.66,76.31z"/>
   <path class="fil0" d="M11611.4 5732.08c0,143.85 252.82,245.91 415.58,397.33l293.38 313.27c167.03,211.97 252.33,401.56 355.21,663.97 155.44,396.43 148.72,943.15 84.95,1376.13 -30.73,208.65 -76.44,159.6 293.13,454.04l864.79 676.11c213.8,160.41 207.69,136.46 309.9,10.07 33.7,-41.67 58.11,-73.86 91.54,-114.72 65.08,-79.56 121.72,-159.48 188.63,-236.03 84.72,-96.92 160.46,-179.03 262.5,-259.22 202.72,-159.32 353.38,-245.5 570.34,-376.03 314.81,-189.4 832.63,-248.48 1224.19,-190.93 121.16,17.81 175.27,38.65 267.27,84.59 225.82,112.75 432.61,342.73 432.61,137.64 0,-251.17 -515.06,-747.58 -684.45,-880.72 -383.87,-301.7 -788.29,-344.72 -1305.38,-344.72 -267.21,0 -618.86,80.63 -862.95,156.24 -80.26,24.86 -197.35,53.75 -265.43,86.43 -14.68,-30.6 -18.04,-64.48 -29.27,-104.19 -11.45,-40.48 -20.92,-63.83 -31.39,-102.07 -50.19,-183.16 -85.06,-242.54 -152.61,-405.53 -30.79,-74.3 -58.08,-117.24 -94.09,-184.97 -30.08,-56.57 -67.11,-114.65 -103.27,-163.65 -20.28,-27.46 -35.44,-47.13 -57.2,-76.28 -330.07,-442.21 -936.13,-746.22 -1457.12,-896.7 -32.1,-9.27 -610.88,-190.64 -610.88,-20.04z"/>
   <path class="fil0" d="M2863.42 6933.25c0,139.71 45.23,221.99 48.94,351.46 3.6,125.8 -11.23,261.7 6.33,381.93 18.37,125.88 20.63,223.31 -14.28,338.9 -16.88,55.9 -118.12,262.35 -4.58,262.35 89.63,0 348.14,-269.58 405.78,-346.47 86.56,-115.46 122.91,-180.92 192.64,-304.82 198.15,-352.14 212.54,-685.12 138.51,-1080.55 -18.81,-100.49 -76.4,-355.05 -178.8,-355.05 -52.18,0 -137.48,121.35 -168.06,159.54l-247.41 262.18c-26.04,29.45 -50.08,61.66 -75.29,94.58 -39.01,50.97 -103.77,156.01 -103.77,235.96z"/>
  </g>
 </g>
</svg>
