<?xml version="1.0" encoding="UTF-8"?>
<!DOCTYPE svg PUBLIC "-//W3C//DTD SVG 1.1//EN" "http://www.w3.org/Graphics/SVG/1.1/DTD/svg11.dtd">
<!-- Creator: CorelDRAW 2021 (64-Bit) -->
<svg xmlns="http://www.w3.org/2000/svg" xml:space="preserve" width="170.328mm" height="187.197mm" version="1.1" style="shape-rendering:geometricPrecision; text-rendering:geometricPrecision; image-rendering:optimizeQuality; fill-rule:evenodd; clip-rule:evenodd"
viewBox="0 0 14205.56 15612.51"
 xmlns:xlink="http://www.w3.org/1999/xlink"
 xmlns:xodm="http://www.corel.com/coreldraw/odm/2003">
 <defs>
  <style type="text/css">
   <![CDATA[
    .fil0 {fill:#231F20}
   ]]>
  </style>
 </defs>
 <g id="Layer_x0020_1">
  <metadata id="CorelCorpID_0Corel-Layer"/>
  <path class="fil0" d="M5354.22 11336.6c-289.98,0 -356.52,-49.97 -549.13,-240.34 -211.26,-208.79 -209.98,-407.61 -209.98,-680.71 0,-271.57 112.19,-474.42 295.92,-645.38 221.37,-205.98 903.58,-358.63 1159.31,-101.35 48.41,48.71 67.45,107.63 89.26,184.02 33.18,116.2 72.5,331.95 -40.16,417.25 -35.82,27.12 -121.82,74.61 -178.43,74.61 -97.14,0 -67.06,-120.29 -143.42,-281.69 -123.3,-260.64 -468.61,-162.6 -592.64,-49.52 -145.2,132.37 -178.31,584.93 47.63,746.37 240.49,171.82 586.44,144.4 840.48,20.29 273.88,-133.8 444.65,-470.14 621.24,-735.03l327.1 -482.61c40.76,-54.27 72.78,-106.44 112.61,-160.66 75.3,-102.53 107.64,-128.9 191.31,-213.56 48.53,-49.1 76.5,-60.09 141.78,-131.49 112.59,-123.14 307.7,-274.74 498.44,-230.3 -6.39,76.82 -84.34,121.17 -146.13,167.64 -216.22,162.62 -440.97,461.04 -584.59,690.7 -221.59,354.32 -488.88,958.28 -785.03,1219l-131.01 111.92c-249.22,210.78 -315.51,246.37 -666.67,294.87 -99.31,13.71 -190.93,25.99 -297.89,25.99zm4493.9 -2661.93c0,-80.99 34.43,-161.95 121.46,-161.95 51.67,0 148,75.38 182.18,101.22 55.5,41.95 107.32,75.53 170.03,113.37 120.07,72.44 174.83,82.78 299.57,125.54 45.08,15.45 64.34,35.72 97.2,44.49 -1.37,61.6 -22.85,58.22 -84.69,67.14 -134.9,19.44 -217.47,5.43 -348.14,46.59 -126.12,39.72 -176.22,16.06 -298.38,-121.37 -21.87,-24.61 -139.22,-189.6 -139.22,-215.03zm-1275.3 -981.78c0,202.93 91.09,236.95 91.09,313.76 0,116.97 -125.77,101.46 -198.34,87.03 -279.07,-55.46 -317.78,-470.32 -232.9,-619.48 79.92,-140.47 211.86,-237.59 390.63,-236.88l294.51 -19.93c27.81,-1.52 119.68,12.74 138.75,22.12 34.74,17.06 52.68,69.5 52.68,109.26 0,43.38 -40.28,29.43 -80.42,30.9 -40.62,1.49 -56.38,12.06 -101.43,10.01 -40.52,-1.84 -54.13,-13.6 -97.3,-7.11 -206.09,30.97 -257.28,93.02 -257.28,310.33zm-3593.09 -70.85c0,424.12 315.33,465.59 637.64,465.59 228.05,0 613.06,-140.3 826.16,-216.33 268.34,-95.74 558.06,-249.25 853.99,-249.25 87.52,0 228.4,73.72 260.33,125.46 17.6,28.51 24.91,76.97 -47.78,76.97 -163.55,0 -206.99,-195.09 -867.06,134.95 -64.74,32.37 -117.41,58.76 -182.19,91.09 -408.72,204.03 -990.01,624.21 -1436.71,326.74 -209.45,-139.48 -429,-437.38 -429,-694.48 0,-335.16 207.82,-616.51 516.06,-738.99 292.24,-116.13 693.95,-103.98 896.89,166.12 69.2,92.09 87.37,192.11 69.06,313.99 -9.85,65.53 -1.01,115.44 -18.96,173.36 -15.98,51.61 -44.44,95.64 -106.78,95.64 -229.76,0 -103.33,-317.84 -286.11,-472.99 -111.82,-94.91 -575.55,-121.39 -658.95,185.83 -15.75,58.02 -26.6,147.51 -26.6,216.31zm2236.82 -2854.23c-157.94,3.52 -433.44,123.23 -566.95,192.16 -146.52,75.64 -299.38,243.11 -371.04,398.18 -116.59,252.3 -166.69,672.55 -20.27,944.85 128.3,238.6 394.09,416.76 668.66,485.17 346.17,86.25 707.44,54.98 1079.08,54.52 170.13,-0.21 552.92,26.45 719.2,50.02 84.94,12.03 280.45,31.63 232.21,132.17 -33.69,16.17 -185.23,-0.01 -253.04,0 -189.05,0.02 -338.48,19.23 -524.44,42.36 -484.57,60.26 -790.87,102.64 -1293.15,14.12 -302.72,-53.35 -552.49,-150.44 -785.2,-338.28 -164.31,-132.63 -403.35,-439.81 -403.6,-729.99 -0.28,-317.07 93.11,-617.89 270.67,-853.5 322.85,-428.4 967.82,-719.28 1482.43,-774.64 310.19,-33.37 772.5,-58.85 1060.99,8.37 -159.57,-301.57 -628.41,-312.82 -919.84,-261.95 -178.55,31.17 -353.5,111.69 -513.51,5.02 -160.54,-107.02 -253.98,-291.6 -520.19,-410.98 -258.14,-115.76 -528.37,-109.49 -778.15,-19.27 -298.79,107.92 -550.32,285.61 -669.22,585.82 -73.01,184.33 -83.99,354.92 -186.1,431.32 -59.16,44.25 -126.04,89.31 -236.51,72.66 -312.34,-47.07 -301.76,-315.91 -575.01,127.95 -41.56,67.5 -77.45,133.31 -115.09,198.68 -19.12,33.21 -36.33,61.4 -54.54,97.29 -174.23,343.52 -329.88,579.21 -439.79,977.2l-135.76 491.78c-138.95,555.53 -170.02,1096.08 -170.02,1702.43 0,219.92 3.31,407.07 39.52,588 43.54,217.56 211.1,557.63 461.01,398.37 67.49,-43 92.59,-113.56 118.22,-195.54 46.02,-147.21 49.74,-418.82 59.73,-567.8 18.72,-279.29 70.54,-541.95 137.15,-804.14 101.04,-397.73 248.69,-781.85 398.92,-1159.78 59.69,-150.18 125.46,-288.36 189.4,-438.13 115.51,-270.55 283.01,-571.48 424.55,-830.5 178.23,-326.17 404.28,-669.03 768.53,-800.29 68.91,-24.82 204,-41.32 206.59,75.02 -340.93,180.4 -340.07,143.7 -592.83,480.03 -198.6,264.27 -227,498.61 -227,845.87 -321.72,74.95 -533.63,597.63 -638.84,889.49 -177.23,491.72 -231.61,739.22 -231.61,1296.73 0,305.93 14.29,429.62 148.83,610.28 103.43,138.9 262.28,264.88 465.58,303.64 241.94,46.12 446.09,-31.39 646.5,-88.24 204.21,-57.93 373.67,-137.43 631.8,-137.43 -27.02,101.19 -335.72,187.48 -471.25,277.73 -77.3,51.48 -138.99,107.75 -223.72,150.76l-128.35 63.97c-305.57,147.07 -698.94,257.99 -1023.03,38.1 -42.14,-28.6 -70.12,-52.75 -104.56,-87.75 -41.85,-42.52 -63.33,-54.2 -113.86,-78.45 -86.14,179.52 63.59,1042.45 108.81,1267.71 41.85,208.5 99.03,368.39 198.94,519.68 59.38,89.91 113.49,179.01 185.6,259.74l85.09 97.1c181.72,227.03 432.24,388.27 730.05,433.9 319.9,49.03 600.91,17.48 863.35,-173.52 157.64,-114.73 253.34,-176.17 374.51,-344.11 150.81,-209 271.16,-447.21 403.04,-669.81 13.59,-22.93 23.02,-33.43 38.7,-52.4 42.35,-51.23 81.34,-96.49 135,-138.28 63.99,-49.82 140.26,-110.71 219.66,-136.37 83.78,-27.07 55.46,27.26 31.28,73.38 -169.91,324.01 -219.08,213.79 -472.64,782.58 -127.29,285.51 -131.17,505.3 -368.76,714.23 -94.16,82.8 -328.88,209.9 -463.99,254.62 -190.45,63.04 -382.24,87.23 -631.39,87.23 73.01,99.65 628.44,160.06 822.63,134.38 156.39,-20.69 262.79,-25.64 415.77,-70.06 137.11,-39.82 235.84,-75.65 357.97,-127.85 316.4,-135.24 625.75,-349.23 875.8,-581.68 82.18,-76.4 170.61,-162.13 270.73,-215.1 0,136.94 -165.33,343.96 -249.85,448.53 -85.15,105.36 -238.82,297.48 -341.31,377.3l-215.15 139.1c-33.46,16.96 -47.11,28.72 -77.53,43.94 -28.31,14.15 -51.5,20.48 -77.84,33.49l-255.83 108.54c-121.27,47.61 -226.78,79.96 -359.31,116.4 -212.46,58.44 -654.76,109.35 -872.56,58.61 5.88,70.66 184.19,163.47 242.96,202.4 31.98,21.18 55.77,40.69 88.93,62.88 252.99,169.35 486.2,330.98 800.66,393.66 83.72,16.69 180.45,25.09 266.96,36.68l288.01 10.12c232.38,-31.35 122.54,-4.59 211.32,-385.85 111.29,-477.9 297.66,-825.94 603.47,-1198.13 45.14,-54.94 87.5,-109.37 129.37,-164.16 47.91,-62.68 81.28,-107.38 139.15,-164.49 30.16,-29.77 38.79,-47.17 65.58,-76.13 75.93,-82.1 198.88,-156.24 104.83,-281.7 -41,-54.68 -92.28,-114.4 -116.19,-177.33 -21.01,-55.29 -44.51,-185.47 -42.33,-261.98 2.11,-73.99 5.84,-189.61 45.01,-259.32 33.28,-59.21 104.72,-107.29 182.28,-121.92 187.61,-35.38 130.91,232.51 156.12,433.7 54.8,437.43 161.54,736.62 426.96,1081.13 22.38,29.04 44.89,52.28 73.28,78.55l84.29 67.53c258.44,178.15 1241.39,303.87 1519.66,164.73 61.52,-30.76 125.55,-141.06 54.24,-190.03 -82.27,-56.47 -672.86,-13.59 -849.41,-31.18 -145.02,-14.45 -374.52,-68.35 -480.53,-126.75 -68.35,-37.66 -99.88,-88.22 -135.12,-158.4 -119.11,-237.22 -138.23,-499.72 -79.98,-761.78 28.16,-126.68 91.29,-363.66 170.09,-427.09 99.84,-80.36 338.36,52.44 444.35,87.62 227.08,75.38 491.35,194.71 740.69,146.03 361.31,-70.52 438.82,-527.78 39.93,-926.65 -153.7,-153.7 -329.71,-272.61 -508.6,-392.2 -57.91,-38.71 -150.02,-71.2 -151.82,-151.82 105.74,-55.95 223.26,-77.76 347,-98.35 404.02,-67.2 425.64,-61.76 800.93,-7.07 271.94,39.63 473.47,-126.45 515.22,-377.17 38.14,-229.04 -88.61,-511.83 -214.2,-682.96 -328.93,-448.23 -1025.39,-625.43 -1686.22,-529.21 -317.06,46.16 -427.18,-29.64 -592.72,-278.88 -102.88,-154.9 -129.18,-290.7 -324.88,-353.25 -63.34,-20.25 -127.09,-23.04 -181.15,-51.64 48.01,-65.54 231.14,-62.37 329.29,-35.77 147.9,40.07 323.79,255.22 419.67,379.92 28.31,36.82 62.84,70.13 105.38,97.12 144.36,91.58 214.27,-104.23 128.85,-341.47 -69.17,-192.16 -214.58,-316.92 -381.6,-417.99 -95.36,-57.71 -169.2,-86.66 -318.19,-86.66 43.54,59.42 86,46.55 141.7,151.82 -207.54,0 -348.23,-101.39 -556.33,-101.56 -54.08,-0.04 -108.2,0.52 -162.32,0.32 -69.79,-0.26 -105.81,9.02 -161.71,10.35 -150.65,3.59 -320.77,31 -465.55,30.4 -155.66,-0.63 -341.13,1.63 -488.9,-17.65 -197.78,-25.79 -356.47,-41.89 -540.41,-127.6 -335.87,-156.5 -554.3,-307.98 -466.16,-813.78 66.95,-384.15 220.88,-546.24 554.04,-731.37l30.26 -20.35z"/>
  <path class="fil0" d="M3815.77 1599.81c-223.7,52.12 -507.73,310.36 -675.6,478.24 -197.33,197.32 -369.23,406.96 -495.11,658.74 -54.19,108.39 -215.92,419.09 -215.92,553.3 54.49,-36.49 152.87,-186.82 337.08,-290.44 130.67,-73.51 336.77,-144.78 492.87,-144.78 144.9,0 252.84,80.74 338.43,147.4 87.44,68.1 168.94,165.96 218.47,267.35 127.27,260.52 194.43,761.09 145.81,1097.68l-24.58 309.43c0,41.41 10.25,57.37 50.61,60.73 29.59,-110.83 301.55,-309.03 420.63,-358.73 188.75,-78.78 397.51,-113.38 561.35,-238.24 20.36,-15.51 23.51,-20.21 42.84,-38.14 83.56,-77.49 119.36,-115.09 173.01,-221.72l113.53 -210.35c104.77,-173.42 220.35,-294.55 439.31,-350.16 162.56,-41.28 412.09,-28.61 569.29,8.31 393.23,92.33 709.99,477.86 797.44,477.86 118.33,0 101.22,-83.4 101.22,-172.07 0,-323.78 -76.4,-628.09 -178.4,-914.71 -97.5,-273.98 -232.22,-470.56 -436.27,-666.96 -476.04,-458.2 -1227.06,-705.51 -1899.98,-598.97 -200.75,31.78 -465.15,117.82 -582.71,-106.58 -114.38,-218.34 -81.2,-508.48 48.66,-700.75 280.24,-414.92 711.23,-463.42 1186.37,-463.42 192.73,0 367.89,30.38 518.37,68.67 264.13,67.21 481.7,199.5 716.52,315.87 162.69,80.62 330.59,172.58 477.68,271.3 292,195.95 573.6,409.77 845.82,631.91l1275.25 1093.15c24.83,22.18 51.14,40.88 78.97,62.73 31.15,24.47 54.58,44.35 84.01,67.81l515.47 375.21c180.9,121.41 373.98,223.51 568.81,321.87 209.25,105.64 621.45,253 931.21,253 514.3,0 947.54,-79.03 1278.42,-472.58 195.7,-232.75 272.28,-471.03 309.39,-794.31 7.56,-65.77 -21.57,-236.49 -35.2,-295.87 -39.57,-172.43 -106.05,-331.65 -182.87,-485.15 -111.77,-223.39 -223.24,-441.73 -362.1,-650.03 -68.35,-102.52 -216.71,-306.87 -309.28,-368.85 6.96,29.9 20.82,53.84 34.63,86.82 14.32,34.18 23.69,49.67 37.68,83.78 130.62,318.66 207.15,551.72 107.99,920.62 -24.89,92.56 -72.21,178.08 -132.23,242.26 -61.84,66.13 -117.7,129.86 -188.26,186.24 -321.3,256.7 -489.78,444.72 -783.18,735.02 -40.3,39.87 -175.66,164.28 -220.34,164.28 -157.9,0 -768.32,-251.74 -938.06,-337.24l-464.75 -274.1c-254.44,-169.86 -502.43,-352.14 -735.92,-549.5 -68.06,-57.52 -132.86,-105.51 -202.49,-161.89 -138.8,-112.37 -276.93,-214.79 -421.84,-317.01l-439.47 -299.39c-152.93,-100.1 -296.18,-189.95 -454.49,-284.38l-583.98 -326.95c-40.77,-21.23 -71.56,-41.12 -117.95,-64.24 -389.97,-194.37 -678.25,-291.94 -1122.36,-355.36 -113.27,-16.18 -247.46,-8.65 -351.63,-23.34 -84.92,-11.98 -242.04,12.89 -331.1,27.73 -529.09,88.14 -843.15,357.98 -940.01,902.09 -24.86,139.66 -48.23,348.63 -5.45,488.91 19.02,62.38 14.4,102.54 14.4,177.91z"/>
  <path class="fil0" d="M9038.4 4777.93c3.5,42.05 26.84,57.67 48.16,164.39 13.64,68.26 53.92,220.22 -7.67,220.22 -97.73,0 -194.07,-161.94 -506.07,-161.94 -77.07,0 -127.03,24.92 -169.32,63.47 -132.25,120.52 -94.04,413.02 161.87,510.77 112.65,43.03 453.69,84.46 594.25,83.88 291.99,-1.19 613.42,13.08 901.11,60.42 158.9,26.16 293.81,67.75 404.95,141.61l154.12 119.16c49.82,43.92 89.48,90.67 127.25,146.04 183.91,269.64 179.35,460.84 203.16,748.92l-8.97 322.07c0,53.21 31.49,61.18 76.95,74.87 172.19,51.85 202,2.84 492.68,124.86 88.22,37.03 96.07,21.56 186.87,-80.87 115.13,-129.88 225.89,-330.32 293.32,-496.15 99.53,-244.79 36.45,-493.83 -131.72,-692.64 -50.34,-59.52 -103.73,-100.34 -161.6,-152.16 -54.85,-49.12 -119.41,-90.42 -181.58,-132.18 -280.67,-188.52 -626.04,-266.47 -854.35,-400.71 -67.95,-39.96 -115.31,-121.85 -115.31,-218.69 0,-148.71 346.64,-286.4 0.96,-355.21 -172.38,-34.3 -465.55,-93.22 -628.56,-100.18 -145.98,-6.24 -303.91,-31.32 -455.32,-30.5 -171.86,0.93 -307.42,-38.3 -425.17,40.55z"/>
  <path class="fil0" d="M1224.69 5790.07l0 101.22c0,138.04 99.06,273.27 232.79,273.27 227.94,0 353.54,-59.43 539.39,-199.48 32.45,-24.44 62.44,-43.6 90.87,-71.06 29.77,-28.75 51.5,-51.92 80.77,-81.18 139.15,-139.14 198.24,-233.45 303.65,-344.12 19.99,-20.98 20.01,-23.99 36.45,-44.52 14.35,-17.92 23.76,-24.58 39.54,-41.43 127.8,-136.56 260.4,-294.21 356.24,-453.47 81.93,-136.15 149.09,-276.36 219.8,-427.98l186.88 -460.89c25.4,-69.82 52.56,-176.29 68.83,-255.05 8.83,-42.68 19.96,-93.68 21.14,-140.86 0.68,-27.13 0.54,-50.67 1.99,-77.85 33.63,-629.16 -515.79,-448.52 -683.04,-279.25 -188.33,190.58 -228.1,196.85 -412.42,437.78 -342.35,447.52 -777.62,1106.4 -960.24,1610.6 -38.11,105.21 -122.63,324.59 -122.63,454.29z"/>
  <path class="fil0" d="M8087 6255.65c199.08,0 385.37,2.39 578.41,-18.75 57.34,-6.28 138.18,-10.83 190.87,-11.56 289.21,-3.98 401.18,-44.41 755.25,74.59 128.39,43.15 308.01,113.08 391.14,195.9 112.93,112.5 116.16,238.06 178.06,408.98 60.12,165.99 145.25,302.25 325.28,302.25 89.69,0 175.36,-62.02 207.71,-126.3 98.13,-194.97 60.76,-638.13 -46.17,-804.46 -81.45,-126.69 -208.19,-215.89 -350.46,-287.19 -773.51,-387.63 -1479.52,-69.76 -1929.96,-286.63 -334.07,-160.84 -589.21,-483.14 -355.11,-817.58 23.22,-33.18 35.36,-30.96 44.85,-66.49 -281.26,0 -265.05,-57.17 -598.63,79.51 -126.61,51.88 -275.3,150.05 -351.13,266.28 -24.44,37.46 -53.24,95.96 -69,143.55 -18.02,54.45 -28.57,101.2 -38.56,163.86 -55.19,345.94 43.86,526.91 372.75,638.65 229.49,77.97 388.92,145.39 694.68,145.39z"/>
  <path class="fil0" d="M3016.17 12034.98c51.96,4.32 35.93,11.05 87.5,-13.24 124.78,-58.76 407.37,-103.19 540.4,-37.75 83.08,40.86 47.66,46.55 100.84,50.98l27.26 -357.36c16.8,-124.99 38.87,-211.48 72.6,-312.02 146.39,-436.37 232.63,-670.11 56.24,-1126.38 -26.61,-68.83 -92.4,-236.92 -95.13,-309.74 -2.08,-55.75 9.27,-118.43 -78.41,-99.63 -44.58,9.56 -105.19,29.02 -164.74,29.02 -137.04,0 -337.01,-98.53 -407.69,-169.23 -149.57,-149.61 -155.53,-336.75 -189.48,-387.45 -111.7,29.83 -194.73,507.61 -202.17,597.41l-20.88 282.87c1.05,43.64 9.34,41.48 10.83,91.04 4.31,143.04 6.16,248.32 24.19,380.68 62.51,459.05 152.33,622.97 206.6,1007.96 8.05,57.15 20.61,124.09 22.25,180.18 2.24,76.95 -5.54,126.88 9.78,192.64z"/>
  <path class="fil0" d="M9949.34 13117.96c0,346.02 87.14,413.35 292.09,568.22 128.65,97.22 261.9,161.45 369.01,248.4 110.57,89.78 131.43,159.08 175.33,9.7 35.85,-121.96 106.2,-172.57 206.07,-239.29 62.47,-41.73 112.68,-71.59 185.56,-107.95 38.11,-19.02 178.81,-88.28 178.81,-124.83 0,-47.76 -30.19,-121.37 -53.25,-149.18 -86.87,-104.82 -182.36,-173.05 -251.81,-365.59 -78.31,-217.11 -4.25,-352.7 -148.75,-468.66 -128.22,-102.89 -159.86,-66.93 -303.52,-47.19 -214.83,29.53 -334.26,97.26 -476.06,272.92 -87.45,108.34 -173.47,218.04 -173.47,403.44z"/>
  <path class="fil0" d="M890.68 6802.22c0,341.7 -21.33,843.04 -186.45,1119.2 -26.41,44.18 -44.23,77.28 -71.01,121.3 -38.33,63.03 -56.3,84.52 -56.3,166.37 0,78.44 199.96,283.4 303.64,283.4 86,0 112.39,-106.33 242.38,-142.23 94.85,-26.2 294.06,-0.23 294.06,-110.8 0,-102.58 -20.24,-160.58 -20.24,-263.16 0,-567.84 43.44,-671.57 213.84,-1182.92 15.15,-45.48 31.41,-98.09 49.18,-143.12 42.91,-108.73 60.86,-86.44 60.86,-161.82 0,-71.97 -118.23,-0.19 -188.2,24.34 -97.99,34.36 -166.68,36.39 -267.26,36.39 -175.43,0 -274.46,-359.33 -307.95,-511.88 -9.3,-42.34 -17.26,-77.68 -24.83,-116.86 -11,-56.9 -11.38,-62.78 -51.83,-89.87 -38.75,20.5 -47.89,28.63 -58.25,73.33 -24.11,104.03 11.27,251.21 26.07,373.82 20.31,168.24 42.3,340.8 42.3,524.5z"/>
  <path class="fil0" d="M13046.48 15597.7c339.57,0 394.01,11.64 589.29,-159.7 232.62,-204.1 242.41,78.73 352,78.73 25.6,0 53.53,-12.48 73.26,-17.84 74.85,-20.33 98.85,-30.62 131.65,-171.99 29,-124.97 6.19,-224.56 -39.85,-329.49 -88.78,-202.33 -274.44,-330.89 -519.31,-330.89 -127.54,0 -280.97,189.8 -560.1,54.03 -182.99,-89 -361.79,-123.35 -387.48,142.23 -9.48,98.05 47.04,205.63 70.82,285.77 64.64,217.96 21.61,449.13 289.72,449.13z"/>
  <path class="fil0" d="M10971.59 14332.53c0,131.48 -22.47,312.6 137.67,358.33 174.15,49.73 239.22,-65.38 348.64,-135.19 323.87,-206.62 472.58,-172.62 775.39,-7.12 77.33,42.26 84.72,73.33 182.91,34.33 166.06,-65.97 223.44,-70.12 406.82,-46.99 96.24,12.14 112.12,22.87 112.12,-61.67 0,-47.22 -99.36,-46.22 -192.42,-70.73 -648,-170.65 -822.98,-597.28 -1295.42,-597.28 -159.06,0 -258.43,40.42 -342.8,153.15 -68.54,91.57 -132.91,216.2 -132.91,373.16z"/>
  <path class="fil0" d="M12560.66 15233.33c0,-201.76 -92.88,-318.28 -237.02,-430.99 -244.5,-191.17 -332.98,-176.29 -633.42,-176.29 -52.64,0 -177.17,103.87 -204.24,139.89 -33.37,44.39 -86.44,192.28 -75.67,270.79 34.84,254.1 285.84,475.07 506.24,547.2 123.17,40.3 177.89,27.21 310.16,23.95 186.43,-4.59 333.96,-180.11 333.96,-374.55z"/>
  <path class="fil0" d="M11244.87 9322.43c0,115.58 108.98,329.23 151.82,414.98 43.94,87.95 150.51,323.89 253.04,323.89 92.49,0 303.64,-294.28 303.64,0 0,218.94 -313.76,316.57 -313.76,506.07 0,194.86 257.02,21.67 327.02,-37.36 109.18,-92.03 206.97,-183.25 282.35,-304.68 67.66,-109 182.62,-322.73 129.73,-437.5 -133.38,-289.39 -420.56,-348.03 -740.46,-453.92 -94.96,-31.43 -393.38,-185.75 -393.38,-11.48z"/>
  <path class="fil0" d="M3714.55 4089.67c0,-51.89 13.19,-161.94 -50.61,-161.94 -63.01,0 -98.59,192.26 -117.74,256.76 -54.73,184.37 -135.54,359.83 -219.62,529.36l-358.9 572.27c-79.73,119.65 -97.05,124.26 -165.65,208.85 -26.12,32.21 -61.26,74.38 -72.65,120.62 -14.64,59.47 4.95,102.88 66.11,111.77 88.26,12.84 86.85,-10.29 153.12,39.18 97.47,72.76 127.66,127.3 186.28,188.21 42.92,44.59 146.95,165.15 224.27,46.73 73.99,-113.36 231.41,-1045.31 264.23,-1243.85 26.18,-158.37 91.16,-518.22 91.16,-667.95z"/>
  <path class="fil0" d="M11012.08 11022.84c312.45,0 267.75,129.86 321.72,174.23 44.9,36.91 99.69,40.85 153.98,28.2 25.93,-54.03 32.37,-139.67 14.49,-196.18 -17.74,-56.03 -64.23,-107.1 -112.57,-130.83 -83.63,-41.07 -302.33,-67.71 -428.23,-67.71 -63.38,0 -101.72,23.16 -138.69,53.61l-196.78 187.84c-101.36,128.66 -220.45,88.48 -276.64,6.29 -32.83,-48.02 -39.39,-102.03 -53.72,-158.83 -15.8,-62.57 -28.97,-104.35 -70.24,-142.31 -128.89,-118.52 -296.97,-70.94 -348.51,92.3 -29.61,93.78 -30.7,218 -11.46,318.27 37.4,194.78 127.34,340.59 324.5,394.13 122.17,33.18 179.94,20.53 316.34,18.2 270.73,-4.62 252.4,-329.34 294.76,-423.86 27.66,-61.72 119.17,-153.32 211.05,-153.32z"/>
  <path class="fil0" d="M2661.93 12743.47c0,108.12 52.38,60.72 253.04,60.72 96.93,0 135.27,50.61 242.91,50.61 133.25,0 205.83,-80.97 334,-80.97 145.1,0 129.86,121.46 425.1,121.46 120.29,0 111.33,-63.73 111.33,-131.58 0,-180.99 -366.37,-506.07 -647.77,-506.07 -166.74,0 -368.92,62.94 -465.68,131.48 -83.26,58.97 -252.94,222.46 -252.94,354.35z"/>
  <path class="fil0" d="M8087 13097.72c0,192.95 44.03,354.26 263.16,354.26 141.16,0 161.94,-66.26 161.94,-202.43 0,-394.75 -209.39,-560.43 94.38,-1130.31 49.01,-91.92 159.1,-229.2 232.23,-304.21 27.21,-27.92 68.13,-71.93 68.13,-114.06 0,-27.32 -42.26,-121.45 -60.73,-121.45 -82.32,0 -257.92,202.84 -305.03,261.75l-116.91 166.49c-205.91,349.19 -337.16,654.26 -337.16,1089.95z"/>
  <path class="fil0" d="M9230.72 12915.54l22.58 240.57c31.99,149.02 119.43,227.55 276.49,249.61 194.42,27.3 172.62,-416.07 210.77,-567.39 16.46,-65.28 45.91,-134.21 73.74,-189.4 89.86,-178.21 128.73,-185.23 -0.68,-265.68 -58.93,-36.64 -242.04,-50.51 -288.18,-33.78 -35.38,12.84 -84.62,33.33 -118.81,53.74 -149.59,89.26 -175.92,344.57 -175.92,512.33z"/>
  <path class="fil0" d="M738.86 8988.44c0,153.94 -9.42,239.41 108.61,356.97 140.88,140.31 353.76,158.92 500.63,49.83 183.52,-136.31 56.01,-585.76 -127.71,-706.15 -137.53,-90.12 -292.84,-86.4 -408.55,38.31 -49.73,53.61 -72.98,160.51 -72.98,261.04z"/>
  <path class="fil0" d="M2226.71 13269.78c0,189.96 6.69,526.31 263.16,526.31l50.61 0c208.35,0 354.25,-185.84 354.25,-394.73 0,-246.04 20.48,-225.47 -108.76,-356.83 -83.85,-85.24 -92,-68.99 -225.91,-58.81 -117.2,8.9 -163.6,7.83 -229.94,73.71 -44.81,44.49 -103.41,126.02 -103.41,210.35z"/>
  <path class="fil0" d="M8714.52 12915.54c0,116.64 -3.69,230.23 23.93,340.44 9.77,38.97 18.22,61.29 36.08,85.37 65.39,88.2 209.81,55.51 238.5,-77.17 28.16,-130.24 -101.04,-366.01 96.09,-743.51 127.45,-244.06 238.28,-347.42 116.07,-530.78 -40.36,-60.56 -75.13,-62.52 -146.64,-36.35 -123.8,45.3 -147.86,122.53 -197.76,247.72 -87.08,218.49 -166.27,411.94 -166.27,714.29z"/>
  <path class="fil0" d="M3157.88 13482.33c0,227.63 122.53,450.53 333.34,443.89 112.78,-3.54 164.71,-93.32 199,-184.81 32.73,-87.34 64.81,-242.01 64.81,-350.17 0,-268 -368.93,-384.85 -538.36,-173.98 -51.12,63.64 -58.8,154.39 -58.8,265.07z"/>
  <path class="fil0" d="M-0 8968.19c0,73.13 45.38,193.32 82.91,230.85 72.55,72.58 211.46,72.79 321.95,72.79 287.56,0 298.93,-452.39 172.74,-577.6 -25.55,-25.34 -149.95,-110.67 -192.98,-110.67 -89.53,0 -186.44,98.76 -241.5,143.12 -69.04,55.63 -143.12,141.93 -143.12,241.5z"/>
  <path class="fil0" d="M1609.3 8715.16c0,71.57 62.28,154.33 87.37,216.27 63.48,156.72 -93.28,304.81 109.24,437.31 92.65,60.63 254.91,115.33 332.24,-13.39 17.51,-29.14 48.07,-133.4 48.07,-174.6 0,-77.31 -121.9,-284.16 -165.84,-350.36 -77.25,-116.41 -190.64,-175.96 -340.24,-175.96 -22.42,0 -70.85,51.39 -70.85,60.73z"/>
  <polygon class="fil0" points="7216.55,4767.81 7226.68,4767.81 7218.25,4756 "/>
 </g>
</svg>
