<?xml version="1.0" encoding="UTF-8"?>
<!DOCTYPE svg PUBLIC "-//W3C//DTD SVG 1.1//EN" "http://www.w3.org/Graphics/SVG/1.1/DTD/svg11.dtd">
<!-- Creator: CorelDRAW 2021 (64-Bit) -->
<svg xmlns="http://www.w3.org/2000/svg" xml:space="preserve" width="143.118mm" height="180.814mm" version="1.1" style="shape-rendering:geometricPrecision; text-rendering:geometricPrecision; image-rendering:optimizeQuality; fill-rule:evenodd; clip-rule:evenodd"
viewBox="0 0 14312.28 18081.97"
 xmlns:xlink="http://www.w3.org/1999/xlink"
 xmlns:xodm="http://www.corel.com/coreldraw/odm/2003">
 <defs>
  <style type="text/css">
   <![CDATA[
    .fil0 {fill:#231F20}
   ]]>
  </style>
 </defs>
 <g id="Layer_x0020_1">
  <metadata id="CorelCorpID_0Corel-Layer"/>
  <g id="_2108670705264">
   <path class="fil0" d="M3737.52 10365.76c0,481.65 6.35,823.28 216.66,1250.28 62.8,127.5 124.79,276.87 198.91,400.63 72.49,121.06 136.14,268.9 200.98,398.56 69.67,139.34 134.62,262.63 185.65,413.88 113.66,336.9 98.53,735.59 102.98,1096.08 0.85,68.77 11.76,75.17 13.68,139.39 15.15,506.45 -13.19,1016.74 -13.17,1518.39 0.02,630.75 -74.75,999.05 -402.94,1472.21l-180.07 215.37c-198.53,236.11 -386.45,284.25 -386.45,634.03 0,60.82 48.73,127.56 102.04,127.56 195.58,0 255.63,-229.62 369.93,-229.62 114.47,0 29.77,239.9 109.75,273.95 75.58,32.19 443.74,-86.66 510.29,-113.12 231.33,-91.99 263.46,-489.84 305.77,-714.7 111.76,-593.87 17.15,-445.82 285.44,-479.92 77.32,-9.83 86.29,-84.03 89.72,-165.41 3.78,-90.05 12.88,-147.41 13.02,-242.27 0.15,-100.24 -13.63,-145.2 -13.05,-242.15 2.87,-479.65 -37.57,-850.98 30.94,-1347.06 36.02,-260.84 77.47,-385.02 173.52,-579.09 148.31,-299.67 70.86,-833.42 101.19,-1199.93l102.71 -1581.08c26.23,-425.67 127.56,-982.78 127.56,-1390.4 0,-427.34 -153.14,-886.73 -424.08,-1157.67 -59.41,-59.41 -277.5,-189.51 -277.5,-271.02 0,-121.05 522.3,-169.84 769.24,417.08 216.02,513.42 187.46,1019.87 187.46,1572.86l-12.75 357.17c2.54,223.95 -98.22,872.67 -63.78,1020.48 332.03,77.36 799.56,-260.79 1074.17,-443.79l343.51 -256.02c166.86,-124.13 506.76,-442.14 632.28,-592.31l485.4 -522.31c41.18,-40.71 56.34,-69.4 95.31,-108.79 188.54,-190.55 748.47,-800.12 928.68,-908.19 293.87,-176.25 156.77,85.74 123.72,123.72 -18.36,21.1 -32.21,30.6 -50.67,51.37 -24.09,27.08 -25.46,36.2 -50.99,63.81 -84.79,91.67 -182.25,191.42 -279.51,269.01 -23.67,18.88 -36.77,33.94 -58.71,56.08 -39.05,39.4 -69.16,69.21 -108.4,108.45 -79.16,79.16 -138.56,151.38 -216.86,229.61 -149.86,149.75 -290.22,290.33 -440.07,440.08l-440.09 452.84c-123.39,123.39 -249.57,270.36 -383.25,382.1 -28.42,23.76 -34.91,23.76 -63.35,51.46 -109.29,106.39 -242.19,207.78 -369.11,294.19 -288.25,196.26 -709.68,467.06 -1081.48,474.76 -192.83,4 -217.12,27.68 -217.12,229.35 0,90.4 -2.86,153.12 95.94,171.95 500.45,95.34 1216.72,-97.64 1695.34,-281.32 237.03,-90.96 475.04,-180.05 704.64,-290.33l175.48 -79.64c67.61,-27.92 102.28,-48.83 164.64,-77.73 133.24,-61.74 790.11,-354.09 827.62,-422.47 31.27,-57 2.56,-166.43 -2.01,-220.21 -8.49,-99.91 12.42,-151.94 12.54,-241.24 0.74,-546.72 126.25,-1166.12 387.48,-1602.47 89.26,-149.11 194.98,-300.77 316.71,-423.13 57.73,-58.02 63.78,-79.58 175.54,-79.58 38.5,160.8 -103.63,160.2 -238.23,412.33 -68.27,127.89 -129.27,287.17 -177.93,434.35 -118.87,359.54 -221.65,681.42 -221.65,1117.74 0,539.46 240.95,1216.98 412.55,1602.9 132.06,297.03 278.9,550.39 452.31,810.53 144.07,216.14 168.38,294.29 168.38,596.99 0,282.51 -11.48,532.49 -84.64,782.77 -47.99,164.16 -131.81,328.3 -194.21,481.86 -60.87,149.83 -152.27,301.61 -230.69,432.63 -168.58,281.69 -534.99,826.83 -804.33,1032.52 -38.19,29.16 -55.12,53.05 -94.62,83.97l-565.77 429.19c-204.03,202.41 -148.38,354.25 48.09,354.25 537.66,0 346.35,-114.8 561.27,-114.8 98.78,0 100.56,179.59 204.33,189.78 0.63,0.06 169.17,-14.83 173.72,-15.83 102.44,-22.52 258.83,-210.86 302.49,-297.05 46.26,-91.3 78.99,-178.88 115.11,-280.33 45.04,-126.47 103.26,-295.89 209.58,-377.2 142.01,-108.64 208.72,75.8 376.95,-222.58 33.16,-58.8 69.35,-230.41 85.83,-309.61 126.58,-608.61 383.74,-1153.11 698.12,-1674.5 181.77,-301.48 244.77,-311.61 244.77,-699.18 0,-147.04 -109.16,-269.63 -170.1,-391.17 -161.5,-322.16 -147.37,-673.45 -62.15,-1014.63 73.76,-295.27 238.9,-531.5 390.89,-782.66l160.83 -285.63c19.9,-34.43 33.83,-55.8 54.72,-98.34 35.45,-72.17 65.66,-118.39 102.03,-191.37 33.86,-67.95 68.74,-130.81 97.62,-195.76l182.95 -403.83c67.33,-133.5 114.08,-272.03 170.68,-416.11 53.84,-137.08 103.4,-314.63 129.63,-469.89 85.74,-507.39 59.84,-1043.85 -164.19,-1490.82 -130.27,-259.93 -301.27,-480.62 -528.39,-657.93 -59.8,-46.69 -108.64,-82.88 -172.45,-120.94 -524.75,-313.09 -859.56,-330.9 -1493.22,-330.9 -906.96,0 -1287.3,189.01 -2185.12,-161.99 -442.2,-172.88 -752.23,-456.03 -1128.77,-708.09 -419.57,-280.86 -821.31,-507.57 -1393.08,-507.57 -61.65,0 -111.87,49.97 -143.49,86.11 -110.78,126.59 -188.51,264.57 -285.01,403.82 -65.96,95.2 -123.94,173.26 -188.92,270.3 -166.61,248.87 -449.4,757.74 -581.57,1025.7 -26.92,54.57 -52.07,90.01 -80.89,148.7l-238.08 450.75c-101.11,203.33 -220.07,398.94 -309.85,608.59l-192.47 496.36c-147.03,441.76 -314.08,944.3 -314.08,1522.79z"/>
   <path class="fil0" d="M4732.49 3770.89c-403.92,0 -203.2,-269.67 -552.76,429.45 -126.08,252.16 -124.07,282.03 -186.12,592l-90.26 432.73c-44.33,-3.69 -43.47,-6.54 -67.02,-35.02 -10.89,-13.17 -30.89,-47.26 -37.06,-64.98 -16.98,-48.75 -36.75,-311.5 -36.4,-371.8 0.41,-72.33 0.17,-144.68 0.17,-217.02 -57.85,38.73 -72.51,75.37 -117.83,124.53 -45.07,48.88 -79.68,71.15 -127.76,114.6 -105.04,94.92 -512.87,272.28 -651.95,317.51 -144.68,47.04 -399.07,81.81 -568.73,67.72 -159.97,-13.28 -179.58,-53.82 -247.23,85.77 -28.14,58.08 -56.7,100.11 -85.11,157.25 -27.21,54.71 -51.52,103.36 -80.79,161.57 -56.67,112.74 -99.06,216.01 -153.09,331.64 -411.97,881.72 -604.37,1569.17 -460.45,2548.26 16.37,111.38 25.21,175.72 54.83,264.07 30.26,90.28 54,155.01 95.08,236.58 135.7,269.41 477.85,824.11 856.29,583.8 54.92,-34.87 89.58,-89.03 117.91,-149.95 57.81,-124.29 80.1,-244.59 152.74,-395.77l336.09 -760.93c156.91,-352.86 381.5,-725.68 596.83,-1048.7l1230.28 -1512.27c119.27,-118.18 350.07,-358.11 485.33,-471.36 133.48,-111.76 237.32,-222.58 291.43,-397.4 50.17,-162.09 61.98,-398.06 61.98,-588.58 0,-118.83 -132.94,-535.76 -216.86,-535.76 -5.23,0 -374.97,102.05 -599.54,102.05z"/>
   <path class="fil0" d="M2780.82 3209.62c-137.44,0 -204.99,9.88 -336.85,-33.07 -51.79,-16.87 -122.36,-34.75 -122.36,-94.49 0,-68.92 81.18,-204.32 141.48,-266.7 1.83,-1.89 4.48,-4.58 6.34,-6.42 1.86,-1.85 4.59,-4.46 6.48,-6.27 210.69,-201.63 606.51,-417.25 835.31,-123.44 85.62,109.96 61.02,38.15 70.86,133.23 4.8,46.38 9.96,42.72 11.03,91.01 -51.74,27.38 -104.8,42.92 -155.72,73.88l-273.46 185.76c-43.38,24.53 -119.72,46.51 -183.11,46.51zm-1722.06 829.15c0,492.92 -23,615.3 -473.59,763.74 -134.7,44.37 -196,25.81 -108.11,328.2 179.21,616.54 550.36,111.32 734.45,-20.76 28.61,-20.53 71.82,-44.9 102.86,-62.96 62.46,-36.35 157.54,-71.82 239.13,-92.53 532.98,-135.32 972.96,-104.6 1181.51,-157.88 353.12,-90.24 512.02,-177.38 785.78,-375.02 146.3,-105.62 251.25,-250.37 365.86,-386.73 101.67,-120.96 271.83,-321.34 271.83,-493.54 0,-109.19 -178.31,-267.74 -267.47,-421.36 -141.33,-243.5 -115.72,-801.08 -60.8,-1093.22 25.42,-135.21 85.91,-286.28 85.91,-437.09 0,-165.31 -103.43,-77.59 -242.47,-357.07 -208.59,-419.29 -101.95,-350.32 -101.95,-867.51 0,-143.09 -551.87,15.76 -621.45,41.86 -196.11,73.55 -358.86,164.32 -512.16,278.72 -307.53,229.5 -469.02,616.39 -622.38,959.37 -328.65,734.98 -7.83,1110 -547.27,1825.36 -56.98,75.55 -129.77,144.32 -171.83,223.61 -76.16,143.59 -37.86,168.07 -37.86,344.83z"/>
   <path class="fil0" d="M2525.7 9893.78c0,267.02 132.79,773.89 265.22,984.87 67.45,107.46 142.97,176.53 142.97,277.98 -46.04,10.72 -77.74,19.34 -143.43,-47.9l-102.37 -114.48c-261.71,-270.82 -322.27,-628.3 -430.27,-870.84 -176.3,-395.9 -471.99,-280.73 -723.38,-577.75 -48,-56.71 -143.13,-222.73 -182.29,-251.41 2.52,113.32 70.56,404.43 101.95,523.09 41.78,157.94 95.55,340.93 153.02,484.77 194.14,485.86 598.19,889.47 1015.22,1191.58 214.3,155.25 670.5,394.44 905.48,320.73 220.84,-69.28 140.06,-347.73 97.58,-532.92 -202.56,-882.99 -189.62,-1379.73 30.47,-2260.25 122.72,-491.02 251.76,-713.61 472.78,-1159.99 30.63,-61.87 54.29,-95.35 84.98,-157.37l170.06 -301.92c147.42,-270.04 644.81,-1028.39 837.34,-1254.66 38.47,-45.22 67.31,-75.52 105.48,-124.12 73.19,-93.2 135.3,-170.99 206.11,-265.88 57.51,-77.08 360.67,-506.73 360.67,-583.27 0,-83.31 -126.84,-63.78 -178.59,-63.78 -126.21,0 -233.98,122.44 -313.52,183.97l-684.54 680.35 -716.72 903.3c-142.95,189.06 -360.82,524.26 -502.25,735.09 -429.88,640.84 -660.39,1061.16 -891.02,1851.53 -30.23,103.6 -80.96,309.55 -80.96,429.28z"/>
   <path class="fil0" d="M5395.81 1691.65c0,472.09 362.26,635.8 62.81,726.12 -132.71,40.03 -229.78,27.41 -320.49,-85.76 -143.83,-179.45 -4.9,-682.89 50.67,-872.89 25.9,-88.55 65.85,-174.34 112.4,-244.77 39.6,-59.93 108.74,-178.3 158.38,-211.54 109.42,25.49 60.46,85 20.43,199.03 -43.68,124.45 -84.21,358.58 -84.21,489.81zm-280.63 1798.6c229.94,0 447.28,-44.09 608.27,-118.82 422.72,-196.26 782.13,-869.89 782.13,-1424.65 0,-391.52 -60.18,-672.12 -189.36,-996.95 -31.52,-79.26 -111.81,-214.55 -165.84,-280.64 -106.39,-130.18 -219.44,-210.27 283.91,-311.66 183.21,-36.9 351.92,-20.62 351.92,-222.11 0,-66.05 -56.28,-112.42 -104.98,-124.64 -284.48,-71.37 -1012.57,231.3 -1234.5,341.4 -159.32,79.04 -409.13,241.46 -551.51,366.92 -156.29,137.73 -322.53,314.74 -448.85,482.34 -354.14,469.84 -474.31,1295.62 -253.41,1820.61 56.17,133.49 87.65,182.95 193.15,266.07 203.5,160.35 463.21,202.14 729.06,202.14z"/>
   <path class="fil0" d="M2908.38 11973.02c0,69.68 182.38,514.71 218.48,623.42 69.95,210.67 144.19,422.44 207.86,646.8 290.77,1024.74 357.14,1232.77 188.16,2431.23 -82.32,583.84 -146.64,764.2 -466.87,1191.42 -37.84,50.49 -76.78,105.74 -118.65,149.21 -160.94,167.09 -254.31,245.92 -433.39,395.75 -201.05,168.21 -241.36,469.42 -153.45,567.56 37.57,41.94 77.07,23.2 120.19,-0.91 95.32,-53.31 150.48,-123.94 259.11,-123.94 80.48,0 69.78,178.59 293.39,178.59 272.39,0 381.39,-248.15 507.77,-448.94 144.12,-228.99 221.95,-406.76 307.12,-675.1 31.23,-98.41 64.4,-273.08 158.89,-326.42 79.02,-44.6 292.98,77.9 262.04,-180.12 -33.08,-275.92 -62.26,-698.1 -62.26,-984.41 0,-129.29 13.83,-243.37 29.21,-366.23 50.04,-399.78 111.1,-782.08 111.1,-1190.01 0,-307.98 -128.83,-572.38 -208.92,-811.56 -44.38,-132.52 -77.65,-258.08 -112.55,-397.69l-99.47 -423.51c-24.02,-11.53 -220.3,-40.19 -258.32,-47.83 -184.31,-37.03 -437.75,-82.51 -593.99,-184.14 -96.65,-62.87 -65.34,-61.43 -155.42,-61.43l0 38.27z"/>
   <path class="fil0" d="M9069.55 13286.89c0,541.09 -75.51,926.46 -243.95,1427.1 -73.66,218.98 -200.53,624.55 -316.56,818.73l-163.5 219.19c-169.42,191.12 -456.61,480.88 -656.74,657.13 -73.01,64.28 -95.68,104.41 -190.16,179.78l-499.23 457.47c-174.38,181.45 -166.93,411.83 41.91,411.83 142.89,0 147.85,-229.61 306.14,-229.61 63.1,0 134.2,165.83 191.35,165.83 286.26,0 351.81,5.85 586.14,-128.19 418.02,-239.12 200.24,-362.3 361.2,-786.84 102.59,-270.57 162.41,-143.71 430.31,-143.71 107.53,0 154.09,-136.23 168.29,-239.9 57.85,-422.43 64.69,-578.86 256.85,-993.24 40.21,-86.7 91.18,-193.17 136.7,-271.51l377.94 -655.29c103.06,-189.71 40.81,-165 -13.91,-436.96 -19.78,-98.3 -32.45,-181.72 -49.61,-282.05 -31.48,-184.01 -14.62,-422.69 -21.19,-642.13 -4.48,-149.85 -27.13,-86.21 -2.27,-307.59 10.74,-95.65 -0.25,-366.78 1.35,-496.14 0.87,-70.67 12.7,-81.23 13.79,-152.07 3.23,-210.7 90.77,-224.06 -603.75,72.36 -92.08,39.3 -384.79,178.16 -374.58,279.43 7.11,70.42 67.85,161.99 90.62,241.52 63.12,220.51 172.85,622.58 172.85,834.88z"/>
   <path class="fil0" d="M13585.19 5441.93c0,218.05 102.04,288.14 102.04,510.24 0,446.85 -31.57,737.86 -386.06,991.59 -26.96,19.3 -43.1,26.46 -70.63,44.17l-242.88 127.05c-26.39,10.67 -47.56,20.39 -84.15,30.64 -151.83,42.55 -88.68,63.11 63.93,266.19 262.72,349.58 342.32,612.18 365.8,641.93 138.88,176.03 614.82,-284.37 700.42,-390.25 223.4,-276.34 278.62,-585.6 278.62,-971.47 0,-261.15 -128.67,-599.68 -216.67,-778.3 -54.31,-110.26 -106.35,-220.86 -173.49,-324 -179.67,-276.08 -336.94,-289.64 -336.94,-147.78z"/>
   <path class="fil0" d="M1339.38 2610.08c2.54,-113.71 83.54,-533.27 113.16,-639.44 103.29,-370.22 247.18,-757.98 471.76,-1058.96 81.9,-109.77 194.41,-178.73 281.06,-292.96 129.44,-170.66 -20.3,-355.14 -98.08,-396.55 -126.9,-67.55 -352.86,-61.24 -512.78,-61.24 -130.17,0 -250.24,72.23 -322.22,136.99 -77.33,69.59 -165.63,147.8 -229.08,242.9 -154.3,231.25 -155.04,412.5 -197.85,733.35 -47.87,358.85 55.41,823.52 246.5,1111.45 53.2,80.16 148.23,201.33 247.52,224.46z"/>
   <path class="fil0" d="M-0 1576.85c0,331.15 27.48,555.04 211.54,834.45 129.18,196.11 421.78,526.31 641.57,570.27 25,5 109.24,22.02 131.16,22.62 26.13,0.73 37.47,-0.71 56.8,-15.74 118.61,-92.22 -123.79,-274.09 -197.4,-456.67 -157.26,-390.09 -227.94,-522.88 -315.41,-960.2 -90.4,-452 -79.02,-554.59 -44.64,-965.29 9.59,-114.58 48.86,-266.77 -62.68,-266.77 -147.53,0 -267.37,390.61 -307.81,521.33 -54.49,176.14 -113.13,486.38 -113.13,716.01z"/>
   <path class="fil0" d="M4018.15 1181.41c143.9,0 93.49,-111.63 259.08,-314.94 263.56,-323.57 359.88,-477.02 783.24,-645.44l207.77 -85.61c-24.71,-33.74 -74.31,-40.74 -118.18,-47.65 -242.57,-38.18 -495.87,3.67 -722.6,48.75 -367.39,73.05 -434.93,72.37 -571.09,360.11 -37.06,78.32 -49.12,168.94 -45.87,258.36 5.34,147.32 4.13,426.42 207.66,426.42z"/>
   <path class="fil0" d="M140.31 4153.57c0,133.69 8.26,250.59 59.67,374.03 100.87,242.16 405.38,175.78 545.37,-36.87 74.92,-113.8 130.72,-522.3 -72.41,-564.24 -83.52,-17.24 -368.81,-9.41 -446.21,45.61 -45.16,32.1 -86.41,107.39 -86.41,181.47z"/>
  </g>
 </g>
</svg>
