<?xml version="1.0" encoding="UTF-8"?>
<!DOCTYPE svg PUBLIC "-//W3C//DTD SVG 1.1//EN" "http://www.w3.org/Graphics/SVG/1.1/DTD/svg11.dtd">
<!-- Creator: CorelDRAW 2021 (64-Bit) -->
<svg xmlns="http://www.w3.org/2000/svg" xml:space="preserve" width="165.56mm" height="97.4379mm" version="1.1" style="shape-rendering:geometricPrecision; text-rendering:geometricPrecision; image-rendering:optimizeQuality; fill-rule:evenodd; clip-rule:evenodd"
viewBox="0 0 16264.43 9572.19"
 xmlns:xlink="http://www.w3.org/1999/xlink"
 xmlns:xodm="http://www.corel.com/coreldraw/odm/2003">
 <defs>
  <style type="text/css">
   <![CDATA[
    .fil0 {fill:#231F20}
   ]]>
  </style>
 </defs>
 <g id="Layer_x0020_1">
  <metadata id="CorelCorpID_0Corel-Layer"/>
  <g id="_2113544853008">
   <path class="fil0" d="M6865.71 1835.55c0,66.88 133.3,190.37 175.16,240.36 75.99,90.76 290.97,307.57 299.72,412.6 -164.67,87.13 -311.84,22.61 -779.79,328.27l-320.67 233.37c-97.11,79.92 -207.69,167.75 -296.98,257.04 -101.43,101.43 -230.42,258.9 -321.74,370.81l-184.69 230.83c-141.37,187.48 -411.18,489.69 -411.18,736.45 0,213.35 401.37,388.18 580.4,478.19 35,17.59 49.8,24.59 88.18,40.44 261.59,108.05 352.39,159.78 665.76,264.21 281.48,93.81 541.52,158.61 818.91,239.68 141.54,41.37 278.81,70.11 410.39,113.96 152.72,50.89 237.55,90.3 443.94,90.3 639.96,0 1202.51,-214.6 1809.24,-416.79 274.33,-91.41 544.96,-198.07 803.93,-304.13 220.15,-90.15 602.19,-237.5 602.19,-515.76 0,-134.05 -108.58,-301.41 -166.22,-387.81 -183.68,-275.36 -379.04,-538.34 -612.88,-772.19 -49.03,-49.03 -93.03,-97.05 -143.33,-143.58l-217.6 -197.93c-28.23,-28.11 -46.38,-35.79 -74.53,-63.97l-147.86 -129.15c-56.84,-42.15 -103.62,-77.42 -161.15,-115.86 -52.74,-35.24 -112.22,-73.78 -171.44,-105.58 -62.86,-33.75 -123.4,-61.61 -184.73,-92.29 -62.31,-31.16 -120.85,-58.44 -190.79,-86.23l-175.94 -71.4c-3.85,-2.46 -24.21,-3.82 -24.61,-39.75 -0.19,-18.04 -2.58,-1.67 2.84,-21.48 5.31,-19.43 10.93,-25.82 20.13,-40.58 48.53,-77.92 84.16,-115.34 137.85,-178.82 36.64,-43.31 32.57,-50.62 92.01,-95.97 46.73,-35.65 178.08,-154.98 178.08,-207.77 0,-35.53 -10.85,-79.14 -39.57,-79.14 -92.11,0 -107.92,54.54 -151.43,105.8l-241.83 282.53c-134.1,133.31 -129.64,155.98 -266.6,53.87 -38.11,-28.41 -78.44,-49.25 -122.99,-64.99 -226.22,-79.99 -789.23,-86.12 -1022.09,73.55 -67.84,46.52 -132.95,148.28 -257.12,-11.23l-93.35 -114.42c-12.33,-16.56 -347.63,-467.49 -347.63,-295.43z"/>
   <path class="fil0" d="M11545.28 3913.17c172.49,0 275.4,-40.95 433.88,-100.36l515.63 -196.7c135.77,-59.94 619,-273.19 689.22,-379.74 21.11,-32.03 21.81,-46.93 10.74,-81.32 -28.32,-87.93 -117.34,-242.33 -165.48,-310.34 -136.15,-192.32 -374.4,-375.97 -633.15,-375.97 -149.88,0 -389.7,206.48 -688.47,281.09 -134.72,33.65 -252.18,63.87 -395.62,89.15 -213.84,37.69 -409.51,41.66 -517.07,205.15 -48.38,73.55 -52.58,97.44 -3.7,168.73 123.63,180.33 80.84,116.47 208.41,276.38l236.24 248.53c90.83,87.43 186.69,175.41 309.36,175.41z"/>
   <path class="fil0" d="M3066.64 3181.05c0,101.04 215.67,197.89 319.84,253.99 248.92,134.04 1081.2,478.13 1273,478.13 89.79,0 139.4,3.55 219.94,-47.18 120.93,-76.17 284.88,-273.26 391.17,-380.51 55.88,-56.39 124.83,-147.4 168.54,-217.31 55.73,-89.17 107.79,-116.93 31.97,-225.97 -65.93,-94.82 -152.41,-139.48 -275.87,-159.43 -279.35,-45.16 -676.94,-118.31 -918.41,-239.12 -33.86,-16.95 -61.03,-30.71 -92.3,-46.22 -236.27,-117.18 -320.6,-208.08 -636.34,-32.99 -149.24,82.76 -283.71,216.44 -366.04,366.07 -21.63,39.32 -115.49,212.49 -115.49,250.56z"/>
   <path class="fil0" d="M9467.66 64.64c40.4,76.32 101.29,87.51 211.67,114.82 93.97,23.25 177.75,41.83 271.12,65.25 88.28,22.13 167.35,40.87 246.28,80.21 120.27,59.96 150.42,138.6 268.83,225.83 37.85,27.9 54.8,47.14 87.91,80.27 58.45,58.5 109.7,109.71 168.18,168.19l479.83 509.52c15.06,15.1 24.09,25.48 39.45,39.69 140.09,129.58 367.82,305.28 522.46,397.62 141.62,84.56 258.31,173.11 450.41,212.45 485.82,99.51 681.37,-374.79 538.73,-667.35 -69.29,-142.11 -225.85,-226.98 -366.24,-296.61 -497.4,-246.7 -1309.74,-596.91 -1851.57,-799.86 -76.32,-28.59 -171.53,-57.79 -247.87,-78.61 -90.18,-24.6 -175.86,-46.7 -270.89,-65.49 -126.6,-25.01 -466.94,-107.44 -548.3,14.06z"/>
   <path class="fil0" d="M3472.27 1449.71c0,216.87 62.63,409.38 275.55,486.23 341.46,123.26 731.84,-154.9 995.05,-353.37 303.17,-228.59 305.92,-272.57 557.29,-521.1l435.07 -455.33c35.35,-35.54 61.64,-48.07 98.68,-79.4 69.46,-58.76 105.35,-113.15 185.03,-171.13 71.97,-52.37 164.32,-76.03 255.18,-100.99 98.92,-27.17 355.22,-79.92 426.6,-107.64 50.26,-19.52 90.56,-30.17 95.72,-92.26 -158.37,-166.95 -983.53,106.42 -1137.85,168.09 -247.81,99.01 -563.62,220.82 -807.78,329.95 -34.5,15.42 -61.64,27.26 -96.66,41.85 -39.19,16.33 -62.95,28.95 -96.08,42.44l-397.2 176.6c-35.97,15.35 -57.26,29.94 -93.22,45.3 -41.37,17.65 -65.77,28.53 -101.8,46.6l-184.81 92.21c-148.12,83.16 -408.79,190.28 -408.79,451.93z"/>
   <path class="fil0" d="M11634.32 9572.19c144.09,0 271.55,-86.11 318.08,-216.15 19.71,-55.08 35.66,-133.09 48.9,-198.44 39.23,-193.63 46.73,-358.08 -28.95,-546.72 -126.75,-315.94 -172,-209.51 -338.02,-126.94 -65.54,32.59 -121.37,63.11 -194.9,92.01 -37.56,14.77 -62.24,23.01 -106.64,31.87 -107.98,21.54 -30.55,30.42 -104.09,321.32 -16.23,64.18 -46.49,163.03 -30.79,227.85 25.68,106.08 188.54,222.18 265.94,298.77 36.98,36.61 105.78,116.44 170.46,116.44z"/>
   <path class="fil0" d="M4234.07 8909.33c0,125.62 43.39,325.23 75.34,429.22 40.71,132.56 168.52,233.64 310.49,233.64 82.93,0 199.7,-125.48 259.7,-185.49 276.64,-276.73 200.26,-204.3 140.19,-540.86 -43.2,-241.97 2.36,-222.51 -95.47,-240.92 -179.43,-33.76 -431.31,-210.03 -462.71,-210.03 -75.96,0 -134.04,142.78 -161.85,204.21 -30.1,66.48 -65.69,219.09 -65.69,310.25z"/>
   <path class="fil0" d="M2651.11 2231.29c0,141.47 24.49,277.96 62.83,392.26 24.5,73.02 86.89,261.41 144.93,300.28 35.58,-23.82 116.19,-160.67 149.9,-206.26 53.32,-72.11 97.41,-142.09 154.5,-211.55 36.29,-44.17 126.95,-160.63 165.82,-190.35 64.37,-49.24 188.54,-92.41 271.79,-94.27 -11.94,-44.67 -89.46,-96.14 -135.6,-151.32 -88.88,-106.29 -255.05,-305.57 -287.64,-444.46 -10.29,-43.84 -12.39,-85.32 -21.97,-126.44 -71.42,0 -150.67,62.3 -200.28,106.41 -55.56,49.39 -103.85,97.5 -148.92,157.78 -87.3,116.72 -155.36,268.08 -155.36,467.92z"/>
   <path class="fil0" d="M12663.24 2221.4c71.03,1.58 214.8,44 268.84,87.32 38.32,30.73 53.87,57.11 85.11,92.96 29.59,33.95 58.23,65.57 85.72,102.25 27.99,37.35 49.3,66.07 76.2,101.88l151.05 215c35.26,53.88 40.64,91.19 84.96,103.01 80.39,-58.89 197.87,-461.73 197.87,-633.18 0,-223 -22.43,-355.61 -153.94,-528.7 -54.09,-71.18 -251.02,-262.77 -320.95,-262.77 -59.97,0 -11.76,62.13 -82.36,214.44 -53.2,114.76 -131.9,208.51 -211.37,303.09 -16.64,19.8 -16.71,24.2 -35.09,44.06 -26.31,28.41 -47.95,43.82 -72.63,75.77 -27.23,35.27 -52.67,53.86 -73.42,84.87z"/>
   <path class="fil0" d="M8280.46 6139.18l-316.58 0c-183.06,0 -558.63,-75.17 -657.47,15.28 -49.23,45.04 -181.93,275.75 183.72,339.76 206.73,36.19 568.06,41.82 783.22,13.78 101.55,-13.22 188.41,-14.19 288.48,-28.11 102.15,-14.2 183.86,-25.07 273.61,-42.97 84.57,-16.88 177.14,-42.05 177.14,-139.45 0,-28.57 -23.15,-123.41 -34.25,-143.84 -68.38,-125.99 -214.2,-49.12 -390.89,-33.96 -101.8,8.74 -192.99,19.51 -306.98,19.51z"/>
   <path class="fil0" d="M12485.15 5941.32c53.01,79.15 368.71,315.67 419.89,381.47 32.95,42.35 165.13,150.56 210.7,194.93l227.02 188.5c98.76,79.96 222.27,204.65 359.27,204.65 60.62,0 207.88,-121.19 43.92,-330.83l-209.48 -206.04c-28.88,-29.02 -46.37,-36.84 -74.54,-63.96 -48.96,-47.13 -88.79,-93.14 -138.18,-138.83 -169.62,-156.88 -276.78,-224.19 -468.56,-352.59 -261.73,-175.22 -229.57,-84.08 -333.32,60.47 -19.68,27.42 -21.74,33.95 -36.71,62.23z"/>
   <path class="fil0" d="M2453.25 6713c0,264.51 158.24,225.98 320.73,112.97l438.53 -362.84c27.65,-28.12 42.4,-34.18 69.44,-59.18l207.62 -198.02c328.81,-305.67 335.29,-191 220.62,-383.81 -102.96,-173.13 -146.2,-104.69 -447.63,97.44 -172.76,115.86 -288.15,217.85 -435.83,365.54 -44.45,44.45 -87.56,92.91 -133.63,133.49 -46.87,41.28 -169.87,147.17 -200.12,195.61 -12.18,19.5 -39.72,70.1 -39.72,98.79z"/>
   <path class="fil0" d="M11070.39 7425.33l28.76 139.43c31.89,162.1 50.16,264.3 103.47,420.88 29.24,85.88 62.67,174.06 93.48,252.78 37.23,95.11 149.99,87.21 288.75,87.21 105.77,0 220.67,-26.2 235.11,-130.95 20.57,-149.41 11.74,-268.3 -18.05,-412.6 -25.52,-123.68 -127.96,-373.03 -261.81,-401.05 -50.8,-10.63 -105.06,-1.21 -158.84,-9.34 -59.06,-8.93 -310.88,-17.73 -310.88,53.65z"/>
   <path class="fil0" d="M8775.13 331.76c0,174.69 214.6,297.55 343.22,369.11 82.08,45.68 143.64,75.48 239.16,107.09 172.53,57.1 372.97,111.78 554.33,148.1 256.08,51.3 419.64,47.85 677.96,202.56 26.99,16.16 91.82,53.64 124.44,53.64 24.14,0 49.46,-22.95 49.46,-59.36 0,-37.84 -130.28,-177.07 -160.6,-205.46 -177.79,-166.49 -807.16,-341.33 -1060.47,-413.64 -108.65,-31.02 -420.11,-147.27 -526.83,-205.28 -46.65,-25.37 -67.55,-46.73 -129.47,-58.93 -39.55,-7.8 -111.21,13.32 -111.21,62.17z"/>
   <path class="fil0" d="M5500.41 1162.8c0,122.48 244.93,-38.24 293.5,-62.67 254.75,-128.11 515.36,-118.53 838.53,-210.17 184.69,-52.37 361.98,-94.93 508.48,-184.05 126.21,-76.77 348.06,-190.3 348.06,-364.26 0,-143.4 -196,-35.58 -227.54,-19.8 -321.04,160.65 -500.01,195.74 -822.38,295.58 -216.23,66.97 -608.02,186.88 -777.49,330.57 -33.46,28.38 -161.16,171.79 -161.16,214.79z"/>
   <path class="fil0" d="M4441.82 7979.35c0,142.31 -23.47,261.21 68.68,307.26 112.17,56.06 233.74,39.21 356.32,28.71 99.47,-8.53 109.59,-79.43 152.62,-203.54 130.45,-376.26 97.9,-343.68 171.91,-659.89 4.6,-19.63 17.44,-51.53 -51.27,-71.87 -89.6,-26.53 -289.79,-11.01 -381.56,-4.05 -97,7.36 -133.62,66.61 -176.25,130.44 -77.92,116.71 -140.45,282.21 -140.45,472.94z"/>
   <path class="fil0" d="M3907.58 5021.22c0,122.44 -17.71,164.51 142.56,193.82 161.95,29.61 609.41,53.52 787.41,53.52 105.55,0 187.98,-9.57 187.98,-89.03 0,-123.14 -98.17,-168.57 -193.93,-201.8 -204.55,-71.02 -470.06,-111.15 -696.89,-114.41 -81.6,-1.17 -227.14,-51.39 -227.14,157.91z"/>
   <path class="fil0" d="M11436.45 5268.56c181.85,0 362.34,-5.55 527.12,-26.91 387.63,-50.26 392.97,3.62 392.97,-230.32 0,-193.63 -128.38,-148.87 -297.13,-148.73 -124.38,0.1 -311.11,34.13 -415.3,59.58 -106.74,26.06 -279.51,66.42 -347.92,126.95 -20.12,17.8 -35.18,43.48 -43.87,74.99 -28.95,104.85 -5,144.44 184.15,144.44z"/>
   <path class="fil0" d="M13791.08 4773.9c0,171.01 223.68,158.29 316.59,158.29 132.43,0 482.86,-20.5 595.23,-67.63 107.38,-45.05 123.94,-262.65 24.42,-304.69 -39.65,-16.75 -94.43,-32.09 -144.72,-33.37 -110.74,-2.8 -210.97,-13.57 -332.28,4.2 -210.53,30.83 -459.25,7.22 -459.25,243.19z"/>
   <path class="fil0" d="M1483.69 4635.38c0,198.44 -27.31,228.1 283.88,270.16 193.81,26.19 339.07,26.65 537.28,26.65 29.9,0 168.18,-50.86 168.18,-138.51 0,-254.3 -185.25,-226.46 -442.44,-260 -93,-12.13 -220.79,-18.18 -311.03,-8.7 -72.57,7.62 -235.87,10.7 -235.87,110.4z"/>
   <path class="fil0" d="M1641.99 3240.42c0,71.51 6.13,104.92 9.74,168.34 3.67,64.83 28.37,78.31 71.15,106.93 206.59,138.24 525.09,288.65 799.62,288.65 124.23,0 123.98,11.86 138.34,-49.64 31.5,-134.95 47.87,-127.41 -194.38,-240.59 -87.42,-40.85 -171,-80.91 -259.16,-116.79l-400.49 -163.43c-72.45,-36.58 -164.82,-100.13 -164.82,6.52z"/>
   <path class="fil0" d="M13593.21 3655.94c0,38.18 6.13,148.4 49.46,148.4 235.45,0 365.84,-8.74 570.56,-112.08 115,-58.05 285.44,-122.72 372.63,-211.08 34.98,-35.45 28.49,-63.25 36.6,-151.51 21.15,-230.37 -34.33,-151.46 -287.41,-39.93l-646.59 273.5c-30.16,14.4 -95.26,57.99 -95.26,92.71z"/>
   <path class="fil0" d="M15077.22 4506.78c0,76.66 -10.17,134.59 53.18,174.36 117.23,73.61 189.39,6.31 270.26,-38.91 99.64,-55.72 418.06,-291.99 510.68,-369.84l182.42 -153.95c43.88,-40.81 170.68,-129.48 170.68,-165.7 0,-16.19 -5.92,-29.68 -19.79,-29.68 -144.16,0 -740.01,319.55 -914.37,391.56 -56.23,23.22 -97.54,41.5 -153,64.65 -53.19,22.21 -100.06,49.03 -100.06,127.5z"/>
   <path class="fil0" d="M1018.71 4714.53c192.26,0 168.18,-146.16 168.18,-227.55 0,-88.12 -138.17,-122.44 -250.59,-174.82 -53.61,-24.98 -90.06,-39.89 -141.84,-65.93l-591.16 -269.57c-28.45,-10.9 -257.85,-107.63 -191.22,1.44 18.81,30.81 150.12,126.72 187.78,160.29 133.07,118.62 516.98,422.59 657.39,500.14 41.37,22.85 125.49,75.99 161.46,75.99z"/>
   <path class="fil0" d="M6272.1 5921.52c0,88.15 38.43,195.48 73.17,253.32 44.48,74.05 106.85,111.54 187.23,149.14 121.27,56.74 152.69,55.21 252.28,31.08 48.39,-11.72 87.74,-17.51 109.39,-58.81 185.17,-353.14 -366.6,-523.13 -424.21,-523.13 -89.89,0 -197.86,-1.66 -197.86,148.4z"/>
   <path class="fil0" d="M9329.16 6168.86c0,53.65 34.49,157.8 134.14,182.46 144.37,35.72 127.41,23.54 255.63,-20.25 294.82,-100.66 373.07,-557.95 134.59,-557.95 -202.75,0 -524.35,167.22 -524.35,395.74z"/>
   <path class="fil0" d="M12653.34 4961.87c0,197.57 126.08,178.08 336.37,178.08 136.05,0 333.49,-21.58 427.92,-106.32 110.03,-98.77 94.06,-129.45 14.83,-207.81 -143.33,-141.75 -133.14,-111.59 -352.8,-90.58 -135.04,12.92 -278.35,23.9 -369.96,114.82 -22.3,22.12 -56.37,72.67 -56.37,111.82z"/>
   <path class="fil0" d="M2769.84 4922.3c0,67.79 118.94,143.39 184.84,171.32 148.94,63.13 386.92,44.88 547.8,36.96 135.13,-6.64 194.24,-284.76 -85.89,-360.35l-401.16 -54.57c-100.48,-6.64 -245.59,160.36 -245.59,206.65z"/>
   <path class="fil0" d="M11317.73 5703.88c0,59.37 -4.29,82.12 86.18,121.59 68.89,30.05 404.54,66.38 487.65,66.38 93.79,0 209.37,16.69 252.75,-63.85 14.39,-26.72 34.16,-124.37 34.16,-163.71 0,-84.06 -398.35,-148.4 -504.56,-148.4 -124.33,0 -356.17,-16.85 -356.17,187.98z"/>
   <path class="fil0" d="M4253.85 5891.85c159.31,0 686.69,-3.97 697.82,-160.29 25.16,-353.77 -657.39,-188.8 -795.25,-125.12 -82.15,37.94 -70.86,70.19 -50.55,166.24 7.72,36.54 13.91,65.12 42.67,85.98 22.97,16.65 68.66,33.19 105.32,33.19z"/>
   <path class="fil0" d="M12593.98 4150.61c0,49.35 16.93,55.06 87.55,80.64 153.67,55.64 313.27,12.31 453.85,-43.8 110.49,-44.11 177.81,-86.09 230.28,-185.24 -24.97,-37.3 -56.83,-63.93 -94.76,-93.22 -116.39,-89.88 -5.9,-84.87 -241.61,-84.87 -243.48,0 -435.32,46.29 -435.32,326.49z"/>
   <path class="fil0" d="M2898.45 4002.21c62.77,93.73 96.11,130.28 217.53,178.21 403.43,159.23 472.67,26.44 554.16,19.66 32.02,-384.68 -264.49,-375.95 -554.03,-375.95 -63.7,0 -98.74,76.16 -168.23,128.58 -24.29,18.32 -32.03,23.53 -49.42,49.51z"/>
   <path class="fil0" d="M11060.51 6920.76c0,62.52 41.41,139.64 85.86,161.48 172.21,84.6 497.85,53.51 497.85,-102.12 0,-0.07 -191.63,-474.88 -316.58,-474.88 -86.59,0 -110.54,71.79 -176.29,179.87 -32.13,52.82 -90.83,157.95 -90.83,235.66z"/>
   <path class="fil0" d="M4906.81 7128.52c168.64,0 296.81,-47.79 296.81,-227.54 0,-93.72 -173.6,-395.74 -237.44,-395.74 -47.15,0 -76.94,-1.38 -124.75,63.23 -44.26,59.8 -191.34,326.64 -211.44,393.02 -14.93,49.32 0.71,68.91 36.61,100.55 54.89,48.37 141.92,66.48 240.21,66.48z"/>
   <path class="fil0" d="M10219.56 5713.77c0,93.33 95.07,98.94 187.97,98.94 119.11,0 512.42,11.7 605.69,-17.6 53.55,-16.83 57.17,-56.87 57.17,-120.91 0,-90.47 -10.36,-217.65 -98.93,-217.65 -107.95,0 -751.9,53.81 -751.9,257.23z"/>
   <path class="fil0" d="M5193.72 5684.08c0,52.62 14.11,92.31 50.26,108.03 77.82,33.83 524.04,20.59 632.38,20.59 248.68,0 186.31,-169.95 56.43,-234.51 -57.28,-28.48 -120.05,-41.09 -188.94,-58.4 -113.78,-28.59 -309.4,-63.26 -441.3,-63.26 -99.37,0 -108.83,150.98 -108.83,227.54z"/>
   <path class="fil0" d="M14869.45 3032.65c0,117.05 160.13,181.71 344.42,-90.9 30.19,-44.66 54.76,-77.13 84.99,-122.77l268.86 -374.21c30.56,-42 152.57,-224.01 152.57,-272.84 0,-27.28 -17.3,-69.26 -49.46,-69.26 -32.92,0 -74.39,83.61 -94.79,112.97 -213.48,307.04 -706.58,568.76 -706.58,817z"/>
   <path class="fil0" d="M2136.67 7494.57c0,132 7.95,229.11 9.49,356.56 0.73,60.17 10.63,95.85 10.32,167.76l3.77 134.74c30.06,71.97 71.3,-17.22 84.19,-56.62 15.69,-47.9 23.7,-76.51 34.89,-133.3 32.16,-163.18 79.38,-391.81 132.98,-539.76 28.6,-78.93 150.91,-301.44 31.12,-374.65 -155.61,-95.11 -206.18,0.52 -256.08,149.69 -26.29,78.56 -50.68,193.42 -50.68,295.58z"/>
   <path class="fil0" d="M13771.29 7138.42c0,110.89 40.65,180.09 75.07,261.3 32.68,77.07 55.26,171.28 77.33,259.05 33.24,132.2 74.31,474.8 154.28,528.35 1.79,-1.54 5.03,-5.76 5.77,-4.13 0.04,0.09 20.11,-8.72 24.32,-44.93l19.38 -584.11c0,-152.15 -41.43,-544.14 -187.98,-544.14 -75.49,0 -168.18,55.08 -168.18,128.61z"/>
   <path class="fil0" d="M553.71 2162.04c0,86.13 95.81,210.98 144.36,281.05l180.62 244.79c129.71,175.66 247.46,443.71 436.81,443.71 123.16,0 82.83,-168.55 19.88,-257.33 -14.24,-20.09 -30.32,-40.94 -47.26,-61.56 -18.15,-22.09 -29.09,-38.97 -49.09,-59.74l-344.79 -308.18c-26.89,-20.57 -35.29,-31.01 -53.63,-55.2 -32.35,-42.64 -107.77,-111.38 -150.51,-175.97 -30.27,-45.72 -53,-91.5 -96.81,-120.84 -1.78,1.54 -4.83,1.26 -5.59,4.3 -0.76,3.04 -4.45,3.44 -5.47,4.42 -19.55,18.97 -28.52,26.97 -28.52,60.53z"/>
   <path class="fil0" d="M4075.76 4130.83c-68.12,0 -126.43,-18.12 -159.58,18.47 -16.66,18.4 -29.94,102.92 -25.04,135.8 15.76,105.67 81.58,134.59 188.66,158.28 104.17,23.07 334.53,33.6 438.16,-18.76 123.25,-62.27 95.53,-164.92 25.62,-237.25 -116.82,-120.85 -234.67,-56.54 -467.81,-56.54z"/>
   <path class="fil0" d="M11664 4308.9c0,202.25 476.43,161.03 612.46,107.9 146.56,-57.25 97.78,-248.57 67.77,-273.74 -35.76,-30 -90.92,-12.23 -165.78,-12.23 -117.53,0 -246.07,-26.35 -336.79,-10.44 -113.22,19.84 -177.66,131.08 -177.66,188.52z"/>
   <path class="fil0" d="M5322.34 6426.09c0,172.09 26.83,239.19 108.72,346.37 56.43,73.86 49.27,63.47 156.85,47.84 76.23,-11.07 124.77,-21.1 179.63,-57.83 -3.84,-46.14 -28.69,-67.03 -41.82,-176.52 -15.45,-128.88 99.8,-337.94 -156.04,-337.94 -92.02,0 -247.34,44.62 -247.34,178.08z"/>
   <path class="fil0" d="M10526.27 6366.73c0,157.87 52.7,165.5 -13.52,344.11l-7.94 31.77c-1.39,42.73 37.26,48.33 64.65,55.8l186 32.19c82.9,2.22 186.32,-191.92 186.32,-355.05l0 -69.26c0,-171.22 -415.51,-228.43 -415.51,-39.57z"/>
   <path class="fil0" d="M9902.98 6485.45c0,70.15 62.46,191.76 194.91,210.83 124.56,17.94 230.51,-57.45 230.51,-171.25 0,-50.09 -41.43,-108.36 -65.05,-142.71 -132.11,-191.99 -360.36,-10.75 -360.36,103.13z"/>
   <path class="fil0" d="M5935.72 6525.03c0,31.31 44.99,151.55 130.86,166 86.88,14.62 173.26,9.88 228.15,-54.34 78.47,-91.81 92.56,-196.77 -1.1,-281.6 -31.22,-28.27 -104.59,-57.83 -159.4,-56.2 -125.25,3.71 -198.51,202.1 -198.51,226.14z"/>
  </g>
 </g>
</svg>
