<?xml version="1.0" encoding="UTF-8"?>
<!DOCTYPE svg PUBLIC "-//W3C//DTD SVG 1.1//EN" "http://www.w3.org/Graphics/SVG/1.1/DTD/svg11.dtd">
<!-- Creator: CorelDRAW 2021 (64-Bit) -->
<svg xmlns="http://www.w3.org/2000/svg" xml:space="preserve" width="186.207mm" height="167.086mm" version="1.1" style="shape-rendering:geometricPrecision; text-rendering:geometricPrecision; image-rendering:optimizeQuality; fill-rule:evenodd; clip-rule:evenodd"
viewBox="0 0 19330.18 17345.24"
 xmlns:xlink="http://www.w3.org/1999/xlink"
 xmlns:xodm="http://www.corel.com/coreldraw/odm/2003">
 <defs>
  <style type="text/css">
   <![CDATA[
    .fil0 {fill:#231F20}
   ]]>
  </style>
 </defs>
 <g id="Layer_x0020_1">
  <metadata id="CorelCorpID_0Corel-Layer"/>
  <g id="_2108679060304">
   <path class="fil0" d="M6243.36 12809.86c-63.38,-119.78 -370.55,-494.76 -459.99,-613.27 -113.38,-150.22 -217.85,-319.26 -312.7,-483.59 -263.03,-455.72 -600.62,-1188.07 -600.62,-1822.87 0,-394.7 17.23,-651.07 327.96,-895.32 185.37,-145.72 367.47,-212.55 629.9,-212.55 216.35,0 420.67,32.38 634.32,46.56 69.58,4.61 135.03,22.68 208.13,22.68 -66.58,-99.43 -166.62,-183.84 -250.84,-268.48 -109.22,-109.78 -236.43,-202.18 -346.61,-311.2l-192.23 -211.68c-23.04,-29.48 -33.63,-38.18 -57.8,-69.14 -22.49,-28.8 -39.11,-49.58 -61.57,-76.92 -190.88,-232.32 -407.66,-515.61 -525.31,-790.31 -321.45,-750.58 -244.72,-1595.99 346.67,-2187.35l365.62 -326.8c232.85,-182.9 436.53,-318.06 710.52,-455.06 509.07,-254.54 1145.05,-456.22 1743.56,-576.06 1219.69,-244.2 2525.09,-132.15 3725,69.88 131.07,22.07 277.33,40.88 406.52,66.64 142.72,28.46 250.9,50.07 384.81,88.34 41.05,11.72 468.17,162.16 468.17,39.6 0,-141.38 -430.04,-356.51 -552.18,-405.68 -146.08,-58.81 -385.46,-144.41 -565.3,-123.76 -84.74,9.73 -285.01,61.7 -348.16,-24.5 24.88,-93.2 217.63,-46.98 314.87,-182.46 52.11,-72.59 -71.45,-166.63 -123.36,-205.23 -159.42,-118.59 -388.09,53.03 -560.8,53.03 -80.52,0 -86.21,8.65 -126.95,-11.54 11.82,-44.27 31.59,-50.94 68.86,-69.63 282.58,-141.66 356.08,-77.1 171.29,-366.71 -117.35,-183.91 -255.94,-175.95 -449.27,-119.01 -89.46,26.35 -165.15,59.11 -275.57,59.11 64.73,-122.31 76.09,-97.77 207.76,-150.01 240.49,-95.42 250.56,-163.05 150.05,-380.91 -85.2,-184.67 -273.71,-106.82 -417.06,-59.2 -54.74,18.19 -321.58,151.74 -333.12,13.09 40.09,-10.7 83.56,-50.7 135.07,-72.67 54.68,-23.33 106.22,-44.33 154.97,-64.29 69.24,-28.36 252.36,-79.68 252.36,-174.63 0,-100.42 -82.83,-288.52 -173.1,-288.52 -68.5,0 -320.06,141.17 -407.77,180.81 -68.99,31.17 -86.73,46.84 -146.17,15.38 50.04,-214.77 484.7,-264.19 484.7,-588.56l-44.14 -729.07c-22.27,-79.03 -42.08,-102.57 -94.34,-148 -130.83,69.23 -199.32,208.27 -286.85,324.8l-453.26 585.37c-264.73,332.28 -374.66,463.26 -688,754.55 -437.42,406.66 -1190.09,790.29 -1788.38,889 -114.8,18.95 -237.3,29.75 -367.6,47.86 -128.82,17.9 -250.09,17.77 -379.22,36.23 -123.06,17.59 -255.34,21.68 -367.77,36.16 -131.86,16.98 -248.5,30.89 -367.88,47.57 -245.4,34.27 -475.22,83.79 -692.75,138.16 -423.67,105.91 -820.93,258.22 -1201.73,448.55 -226.23,113.08 -431.53,243.58 -635.76,391.33 -44.98,32.53 -78.04,55.51 -120.47,87.26 -236.29,176.81 -447.24,382.44 -656.53,589.83 -40.75,40.38 -59.93,71.42 -98.01,109.72 -25.17,25.31 -25.69,26.74 -48.26,55.61 -75.89,97.08 -155.83,191.38 -221.01,298.3 -131.4,215.53 -254.58,448.13 -341.02,686.09 -192.57,530.19 -320.49,938.37 -321.26,1536.74 -0.1,74.84 -12.13,111.89 -12.17,195.87 -0.05,83.48 12.36,115.74 12.03,195.84 -2.62,635.29 127.04,1332.57 359.13,1914.32 19.67,49.29 41.17,93.11 62.72,145.02 81.8,197.05 188.73,368.9 281.78,549.12 158.76,307.46 359.05,599.34 575.39,867.16 276.52,342.33 638,610.83 994.21,863.8 256.79,182.35 613.55,405.37 896.26,546.29 385.96,192.37 798.08,346.24 1222.22,439.59 63.31,13.93 105.47,29.71 178.02,29.71z"/>
   <path class="fil0" d="M14460.13 7489.73c0,167.83 -7.18,382.73 -59.11,517.91 -65.77,171.26 -192.69,285.07 -333.08,393.96 -241.37,187.22 -510.29,156.46 -773.28,149.74 -140.57,-3.59 -286.86,-25.54 -426.69,-34.91 -64.2,-4.31 -144.47,-22.68 -208.13,-22.68 65.24,97.45 217.55,249.83 314.99,331.28 100.65,84.13 262.66,221.56 351.6,317.73l121.72 143.7c43.29,51.52 79.82,90.96 120.07,145.37 190.58,257.64 403.98,496.06 529.31,797.84 278.24,670.04 262.4,1322.47 -138.15,1929.4 -33.29,50.45 -65.2,84.85 -100.83,129.98 -195.39,247.51 -604.23,572.87 -879.18,736.48 -882.49,525.15 -2232.8,880.67 -3296.96,880.67 -823.77,0 -1299.75,-40.11 -2077.93,-149.36 -268.9,-37.76 -542.32,-73.6 -808.17,-126.61 -66.53,-13.27 -128.81,-23.09 -194.38,-36.43 -100.24,-20.4 -646.05,-230.47 -663.77,-89.53 -3.64,29.04 10.8,43.7 30.4,64.77 40.37,43.37 72.4,65.72 115.82,103.78 222.59,195.1 638.7,360.31 943.75,360.31 91.72,0 166.28,-23.08 265.43,-23.08 46.04,0 74.35,25.06 115.41,34.62 -3.63,43.66 -10.15,50.62 -50.53,64.87 -32.88,11.61 -72.67,17.05 -101.23,25.71 -74.33,22.57 -213.89,87.73 -164.92,178.63 13.71,25.45 35.75,55.6 53.71,74.55 204.17,215.45 374.42,2.45 724.58,2.45 64.82,0 10.79,55.62 -11.08,69.29 -285.8,178.75 -402.72,37.62 -177.5,407.81 165.59,272.18 473.82,30.69 707.9,30.69 -8.8,16.63 -15.77,37.01 -26.4,54.39 -21.9,35.85 -6.18,20.05 -49.82,42.5 -236.43,121.64 -451.85,101.33 -281.91,434.34 94.05,184.28 265.81,109.29 417.31,58.81 52.73,-17.58 321.86,-149.21 333.19,-13.02l-216.03 107.1c-81.85,35.33 -160.25,62.09 -234.27,100.41 -95.64,49.51 -122.93,105.12 -80.77,208 117.18,286.04 212.2,177.29 434.89,65.33 65.86,-33.11 137.65,-73.88 211.49,-89.63 40.8,-8.69 32.23,-6.92 69.33,12.71 -18.41,79 -63.2,102.48 -118.04,147.38 -391.97,320.89 -403.22,208.63 -344.21,961.14 10.31,131.42 1.94,280.7 116.05,357.12 93.68,-49.57 138.29,-116.98 198.35,-205.56 164.57,-242.73 361.68,-477.2 540.15,-706.21l278.74 -332.9c35.21,-43.72 60.8,-67.3 95.51,-112.23 68.29,-88.42 171.61,-185.69 257.76,-261.55l169.12 -142.48c271.67,-213.53 578.46,-407.11 898.74,-543.82 144.48,-61.67 283.46,-126.87 440.06,-171.58 113.94,-32.53 215.62,-53.76 338.21,-77.23 113.73,-21.78 237.99,-30.03 367.44,-48.02 128.72,-17.88 250.56,-17.82 379.18,-36.28 232.52,-33.36 492.28,-41.92 737.08,-82.28 763.99,-125.96 1496.33,-336.99 2154.03,-731.08l374.83 -248.36c44.97,-32.53 78.03,-55.51 120.46,-87.26l172.13 -139.47c24.46,-21.31 32.89,-23.73 57.36,-46.5l427.05 -403.86c437.7,-433.77 692.22,-1032.03 869.86,-1611.33 99.14,-323.32 160.4,-716.42 160.1,-1074.72 -0.05,-64.55 10.42,-155.79 9.25,-195.11 -9.02,-302.85 -29.64,-666.7 -71.94,-953.94 -34.92,-237.02 -81.57,-464.72 -138.04,-692.87 -28.43,-114.87 -65.94,-209.78 -100.75,-314.71 -149.74,-451.42 -613.32,-1254.67 -885.59,-1595.59l-188.99 -226.48c-418.54,-452.5 -986.86,-835.3 -1525.46,-1151.91 -47.07,-27.67 -88.07,-51.76 -133.54,-74.19 -49.99,-24.65 -84.17,-47.49 -134.53,-73.2 -256.42,-130.84 -1102.28,-469.13 -1400.42,-469.13 114.6,216.58 571.32,676.05 873.24,1284.82 260.99,526.22 500.06,1067.5 500.06,1669.54z"/>
   <path class="fil0" d="M7455.11 12509.81c-62.55,0 -128.27,-48.68 -173.36,-80.54 -166.18,-117.38 -63.45,-342.38 -14.74,-396.08 82,-90.37 329.63,-92.2 435.22,-59.02 85.52,26.88 282.13,271.29 -18.3,452.85 -44.29,26.76 -164.54,82.78 -228.82,82.78zm-1292.53 -1546.42c0,585.44 442.29,1509.78 839.56,1907.05 160.94,160.94 201.33,124.06 533.74,124.06 211.12,0 316.6,-17.45 508.78,-33.62 660.19,-55.56 1145.28,-202.67 1729.91,-462.76 42.86,-19.08 77.34,-45.97 127.09,-57.55 -47.23,-70.53 -187.47,-184.17 -238.95,-245.76l-618.06 -686c-182.11,-187.06 -481.68,-669.35 -481.68,-914.71 0,-73.35 183.34,-107.69 240.68,-117.07l627.98 -87.52c133.63,-17.29 203.71,0.97 308.46,-49.3 -17.69,-66.25 -127.4,-179.36 -175.99,-227.93 -125.58,-125.49 -185.82,-177.03 -331.7,-279.93 -42.24,-29.79 -73.99,-55.25 -123.35,-84.39 -169.83,-100.24 -344.3,-212.76 -529.66,-289.7 -348.61,-144.72 -917.81,-394.45 -1292.73,-244.34 -102.55,41.06 -179,92.43 -265.56,149.9 -126.21,83.8 -225.61,178.63 -340.94,270.71 -292.77,233.73 -421.89,586.13 -478.12,952.89 -9.66,63.1 -18.17,129.87 -24.83,182.89 -6.73,53.51 -14.65,146.55 -14.65,193.08z"/>
   <path class="fil0" d="M11828.92 5389.37c-88.55,0 -210.13,9.76 -270.09,-64.58 -117.63,-145.87 -94.1,-295.1 58.36,-389.51 219.8,-136.08 284.77,-124.27 429.53,-17.61 168.21,123.94 65.7,340.07 16.45,394.36 -46.19,50.9 -140.47,77.33 -234.26,77.33zm-2400.4 -484.7c36.04,53.84 141.05,145.81 193.52,198.85l705.01 783.7c18.46,22.87 30.03,32.37 47.98,55.88 57.37,75.16 115.84,150.69 168.05,235.88 69.47,113.37 224.13,408.11 224.13,572.16 0,111.87 -461.63,152.2 -550.4,165.1 -92.75,13.5 -221.55,31.24 -316.86,40.9 -127.12,12.88 -214.43,2.1 -309.86,47.89 22.93,98.43 253.92,310.79 356.11,394.01l266.96 194.67c240.9,159.89 535.18,301.34 804.49,407.25 250.83,98.65 713.81,237.67 991.81,142.44 250.82,-85.91 680.76,-433.99 851.53,-660.25 273.92,-362.93 351.09,-1015.58 261.55,-1460.14 -87.52,-434.56 -435.13,-1190.84 -759.69,-1513.76 -27.98,-27.84 -47.6,-46.9 -75.07,-74.96 -110.96,-113.31 -263.99,-83.56 -470.39,-83.56 -237.24,0 -458.86,24.5 -678.88,48.17 -582.44,62.67 -938.34,181.07 -1454.49,391.97 -44.08,18.01 -78.23,38 -126.93,57.73 -41.37,16.75 -84.01,45.71 -128.56,56.08z"/>
   <path class="fil0" d="M6139.49 11978.94c-5.34,-64.14 -34.28,-93.35 -57.84,-138.34 -184.65,-352.64 -168.93,-386.6 -222.59,-792.96 -60.17,-455.58 -59.67,-1100 277.73,-1437.19l245.1 -193.44c73.72,-52.35 137.59,-91.15 229.1,-128.64 124.34,-50.97 412.15,-160.47 544.07,-171.45 -9.72,-36.35 -11.08,-32.03 -84.45,-65.58 -37.99,-17.38 -70.17,-27.45 -110.23,-39.8 -272.89,-84.13 -708.43,-41.06 -958.63,13.8 -183.91,40.32 -323.57,117.44 -460.29,209.05 -227.81,152.65 -282.64,425.11 -315.8,688.21 -6.48,51.4 -7.82,87.01 -9.44,152.91 -6.53,265.23 31.02,433.41 146.21,672.47 151,313.35 253.55,591.77 463.72,874.96 24.32,32.77 42.23,61.79 68.26,93.33 75.63,91.65 146.84,196.88 245.1,262.67z"/>
   <path class="fil0" d="M13502.28 6681.9c0,365.87 -49.33,793.48 -308.89,1052.88 -22.11,22.09 -26.97,19 -51.56,40.77 -67.18,59.49 -121.57,101.57 -193.53,152.67 -136.59,96.99 -324.99,179.33 -489.53,225.97 -74.4,21.09 -211.45,72.51 -283.64,74.12 17.8,66.69 130.89,83.86 186.07,102.44 158.03,53.2 204.41,47.59 367.86,47.59 427.71,0 750.28,-60.37 1011.03,-235.35 147.32,-98.88 214.52,-172.74 281.73,-341.45 83.99,-210.83 92.1,-440.78 92.1,-681.11 0,-234.36 -235.16,-736.53 -357.63,-981.07 -35.6,-71.08 -77.92,-143.29 -120.52,-214.14 -43.6,-72.48 -83.58,-137.76 -131.69,-202.99 -73.87,-100.11 -217.37,-291.64 -313.39,-355.94 2.53,113.6 162.86,242.93 229.93,577.9 29.3,146.32 81.67,581.79 81.67,737.71z"/>
   <path class="fil0" d="M-0 8932.27c118.05,0 191.97,11.54 311.59,11.54l1096.35 0c56.8,0 28.15,-51.29 24.08,-92.53 -4.85,-49.11 2.68,-99.14 -2.68,-148.15l-88.23 -650.36c-17.08,-109.21 -108.43,-111.28 -272.19,-166.35l-688.08 -212.06c0,332.24 4.27,489.15 -79.31,740.06 -110.85,332.74 -290.33,383.2 -301.53,517.84z"/>
   <path class="fil0" d="M18949.35 9670.86c0,-317.06 -22.23,-435.29 79.3,-740.06 38.52,-115.64 65.66,-180.87 136.3,-267.61 44.25,-54.33 159.12,-176.83 165.23,-250.22 -133.18,0 -223.27,-11.54 -357.76,-11.54l-1050.17 0c-55.74,0 -29.25,61.79 -25.17,93.61 6.28,48.86 -1.24,98.97 2.68,148.15l69.29 519.27c5.53,39.94 12.58,97.2 18.75,131.29 20.49,113.27 101.16,107.55 273.48,165.06l688.07 212.07z"/>
   <path class="fil0" d="M426.99 9151.54c154.23,230.31 150.03,288.76 150.03,530.86 0,184.98 -141.78,408.77 -150.03,507.78 192.85,0 1383.02,22.57 1454.1,-11.54 24.23,-25.61 -90.64,-238.07 -129.39,-378.39 -12.37,-44.78 -29.17,-91.38 -45.19,-139.46l-154.2 -468.98c-19.05,-64.76 10.31,-51.8 -190.54,-51.8 -324.67,0 -610.52,11.53 -934.78,11.53z"/>
   <path class="fil0" d="M17818.39 8205.23l1084.79 -11.53c-123.9,-185.03 -199.4,-400.79 -134.22,-653.55 14.21,-55.13 26.77,-80.13 43.31,-129.78 26.98,-80.97 70.9,-169.47 90.91,-255.31 -157.16,0 -1398.46,-11.4 -1438.3,5.17 -58.71,24.42 33.71,165.56 63.52,238.65l249.46 754.55c9.27,31.5 3.53,51.8 40.53,51.8z"/>
   <path class="fil0" d="M16687.42 6139.5c0,65.89 258.25,370.65 310,440.12l246.45 307.51c38.79,45.59 40.96,71.73 124.45,71.73l992.48 0c39.79,0 44.68,-8.53 80.78,-11.53 -110.98,-165.74 -450.08,-318.35 -450.08,-819.37 -216.26,0 -424.93,-23.72 -646.53,-22.81 -70.72,0.28 -89.25,-10.39 -149.38,-12.2 -56.99,-1.7 -116.67,1.55 -173.94,0.84 -66.66,-0.82 -86.97,-12.57 -160.83,-12.27 -57.8,0.24 -115.57,0.27 -173.38,0.27l0 57.71z"/>
   <path class="fil0" d="M888.61 10397.91c33.79,50.46 105.94,111.79 152.91,158.68 59.23,59.15 99.17,106.79 148.99,174.14 88.91,120.2 148.17,281.41 148.17,486.55 205.05,0 421.4,22.37 646.66,22.68 69.33,0.1 83.68,11.6 149.16,12.39 57.27,0.71 116.96,-2.53 173.94,-0.83l334.3 11.92c0,-132.66 -35.52,-141.51 -145.16,-281.84l-328 -422.12c-76.08,-97.42 -118.26,-173.1 -207.73,-173.1l-969.39 0c-57.92,0 -51.62,10.28 -103.86,11.53z"/>
   <path class="fil0" d="M6554.95 4662.33c0,322.71 6.61,160.84 595.31,258.68 109.9,18.26 219.5,42.57 320.48,71.89 72.57,21.07 251.98,84.89 319.03,84.89 54.22,0 138.49,-74.06 138.49,-161.57 0,-166.37 -188.19,-221.76 -279.07,-390.27 -60.71,-112.57 -35.93,-293.68 -127.28,-369.27 -40.62,-33.61 -72.46,-20.8 -132.51,-10.29 -38.69,6.78 -98.84,11.72 -142.44,19.29 -176.93,30.74 -417.85,179.46 -544.89,297.56 -37.67,35.03 -147.12,113.59 -147.12,199.1z"/>
   <path class="fil0" d="M11401.92 12417.48c0,190.15 182.63,219.21 277.35,403.54 54.87,106.8 50.29,303.41 124.89,371.64 50.97,46.62 341.69,-25.92 412.3,-52.95 144.68,-55.4 558.76,-307 558.76,-456.8 0,-101.07 -0.78,-100.49 -23.08,-196.19l-631.59 -72.38c-130.66,-22.4 -549.78,-146.89 -568.61,-146.89 -70.77,0 -150.03,79.27 -150.03,150.03z"/>
   <path class="fil0" d="M18545.44 10605.64c25.28,0 129.52,-228.99 153.64,-273.36 99.7,-183.45 331.06,-340.41 331.06,-407.53 0,-40.24 -64.28,-46.75 -102.38,-59.18l-640.57 -213.43c-85.39,-28.48 -178.26,-65.85 -261.07,-85.13 0,79.31 -8.02,122.09 -11.63,184.63 -4.65,80.46 10.05,118.79 12,184.29 3.09,103.08 -12.74,399.66 10.94,473.76 17.02,53.23 80.68,59.28 200.77,99.28 54.09,18.02 268.26,96.68 307.24,96.68z"/>
   <path class="fil0" d="M300.05 7408.94c0,54.78 41.1,50.72 102.38,70.73 40.52,13.24 89.44,29.73 129.9,43.21l771.73 255.36c0,-33.08 -1.82,-71.5 -0.05,-103.92 2.83,-51.98 13.33,-49.68 12.03,-103.49 -1.42,-58.67 -12.01,-86.28 -11.98,-219.59 0.02,-73.08 -0.23,-146.21 0.04,-219.3 0.33,-91.52 -11.57,-135.08 -11.57,-219.23 -44.71,-23.67 -461.83,-173.11 -507.78,-173.11 -25.34,0 -142.85,263.7 -215.86,361.17 -78.24,104.42 -268.84,277.83 -268.84,308.18z"/>
   <path class="fil0" d="M12348.24 10028.62c0,257.32 422.88,-56.41 491.23,-97.33 103.27,-61.83 443.55,-237.67 443.55,-352.75 0,-53.45 -96.17,-113.12 -152.92,-170.22 -58.38,-58.71 -109.48,-108.42 -167.56,-167.11 -96.44,-97.48 -216.99,-259.16 -325.79,-332.02 -92.13,395.45 19.27,326.36 -201.06,849.11 -26.92,63.87 -87.45,193.95 -87.45,270.31z"/>
   <path class="fil0" d="M6047.17 7755.16c0,49 30.97,76.06 60.99,100.57 203,165.77 465.49,500.1 585.27,580.31 46.43,-199.28 35.81,-418.19 102.3,-601.66 58.69,-161.94 311.99,-623.64 97.7,-616.31 -137.35,4.71 -284.01,125.22 -395.52,191.54 -80.77,48.03 -162.95,95.61 -245.28,147.1 -50.19,31.38 -205.46,135.18 -205.46,198.45z"/>
   <path class="fil0" d="M17818.39 11448.09c72.64,0 190.29,-137.4 285.53,-222.25l286.87 -220.91c80,-54.73 125.43,-90.41 177.72,-168.49l-328.15 -121.91c-162.28,-64.37 -206.3,-129.03 -267.24,34.31 -20.81,55.81 -243.19,699.25 -154.73,699.25z"/>
   <path class="fil0" d="M761.66 6508.8l328.2 121.87c265.61,106.03 198.83,156.94 377.32,-374.21 9.01,-26.8 106.35,-359.31 44.62,-359.31 -76.62,0 -148.86,96.51 -193.25,141.42 -150.67,152.43 -454.6,317.5 -556.88,470.23z"/>
  </g>
 </g>
</svg>
