<?xml version="1.0" encoding="UTF-8"?>
<!DOCTYPE svg PUBLIC "-//W3C//DTD SVG 1.1//EN" "http://www.w3.org/Graphics/SVG/1.1/DTD/svg11.dtd">
<!-- Creator: CorelDRAW 2021 (64-Bit) -->
<svg xmlns="http://www.w3.org/2000/svg" xml:space="preserve" width="149.676mm" height="213.451mm" version="1.1" style="shape-rendering:geometricPrecision; text-rendering:geometricPrecision; image-rendering:optimizeQuality; fill-rule:evenodd; clip-rule:evenodd"
viewBox="0 0 13252.62 18899.45"
 xmlns:xlink="http://www.w3.org/1999/xlink"
 xmlns:xodm="http://www.corel.com/coreldraw/odm/2003">
 <defs>
  <style type="text/css">
   <![CDATA[
    .fil0 {fill:#231F20}
   ]]>
  </style>
 </defs>
 <g id="Layer_x0020_1">
  <metadata id="CorelCorpID_0Corel-Layer"/>
  <g id="_2113548413776">
   <path class="fil0" d="M7118.85 4561.38c0,129.02 183.88,282.16 183.88,433.43 0,486.24 -738.59,460.48 -971.67,314.94 -237.85,-148.51 -187.05,-393.54 -77.63,-604.37 99.39,-191.51 -395.48,-79.76 -395.48,578.38 0,234.34 262.78,414.31 328.36,512.24 -156.53,82.83 -332.89,355.76 -502.2,548.55 -94.61,107.73 -114.5,134.43 -272.73,134.43 -625.06,0 -874.15,-170.74 -1208.36,-170.74 -107.45,0 -170.74,64.1 -170.74,170.74 0,166.02 116.07,194.31 238.07,234.76 124.51,41.28 246.56,74.92 378.95,107.03 368.45,89.37 827.76,-35.79 827.76,131.05 0,16.73 -45.55,110.09 -56.27,140.75 -67.27,192.21 -114.48,401.75 -114.48,607.91 0,152.51 374.81,346.14 498.91,407.37 455.25,224.59 1203.82,223.41 1668.44,39.37 730.22,-289.25 380.72,-449.23 380.72,-1064.06 0,-62.34 146.73,-64.3 262.7,-91.94 93.92,-22.39 199.03,-41.49 303.28,-51.34 124.15,-11.73 574.25,-22.7 616.12,-93.14 8.44,-17.92 2.39,2.26 2.82,-21.18 1.35,-71.98 -30.09,-203.36 -71.2,-251.95 -68.1,-80.46 -193.25,-40.8 -312.31,-41.88l-786.24 54.45c-32.12,3.54 -40.82,12.06 -81.79,12.06 -66.02,0 -76.36,-31.72 -114.16,-69.86 -75.58,-76.29 -101.31,-134.99 -162.58,-218.31 -167.26,-227.43 -313.38,-302.05 -313.38,-474.69 0,-44.43 153.98,-160.69 221.72,-251.11 226.87,-302.94 108.39,-738.1 -139.42,-987.01 -32.78,-32.92 -83.14,-97.3 -127.07,-78.71 -17.1,7.23 -34.04,27.72 -34.04,42.8z"/>
   <path class="fil0" d="M10704.54 2210.32c0,437.44 88.76,1078.4 271.24,1436.24 215.23,422.06 544.2,706.32 1048.18,618.72 220.5,-38.33 516.87,-239.75 650.86,-413.03l89.98 -120.18c198.04,-269.22 285.22,-589.69 367.02,-920.16 96.32,-389.13 120.81,-473.27 120.81,-890.53 0,-277.39 -24.24,-557.26 -54.81,-812.07 -15.86,-132.29 -41.07,-234.18 -93.99,-339.45 -57.22,-113.79 -157.49,-233.53 -166.42,-267 -114.81,9.55 -373.81,457.2 -418.5,566.59 -113.37,277.56 -187.98,576.1 -461.52,576.1 -143.6,0 -267.42,-282.36 -313.39,-395.87 -26.2,-64.72 -54.39,-110.44 -80.48,-169.08l-212.01 -497.25c-20.49,-56.82 -36.36,-133.34 -63.98,-185.56 -59.33,15.83 -111.21,106.69 -144.67,157.42 -233.97,354.81 -381.94,664.79 -467.2,1095.79 -32.88,166.21 -71.13,370.58 -71.13,559.33z"/>
   <path class="fil0" d="M1786.28 3825.85c539.21,0 805.84,-238.86 1024.68,-682.79 72.08,-146.24 170.06,-434.24 206.78,-607.55 102.97,-486.04 82.78,-1235.09 -2.34,-1711.93 -54.84,-307.29 -98.3,-400.67 -238.05,-615.69 -30.69,-47.22 -11.64,-41.41 -58.53,-72.81 -111.21,25.92 -177.91,224.46 -223.29,315.23 -100.3,200.61 -270.06,526.64 -358.47,731.68 -52.43,121.6 -162.09,455.42 -304.28,259.44l-164.29 -242.87c-67.92,-117.32 -110.73,-237.05 -163.63,-374.89 -51.2,-133.42 -92.31,-262.36 -133.34,-405.17 -91.1,-317.02 -58.91,-611.45 -307.55,-257.06 -185.15,263.89 -175.52,430.04 -277.47,773.27 -55.37,186.38 -68.84,378.85 -92.46,603.66 -21.67,206.2 -37.95,429.03 -37,659.13 0.32,76.98 -11.53,97.83 -14.03,157.76l54.13 471.37c72.62,362.73 192.84,696.62 519.97,872.27 129.59,69.59 373.16,126.95 569.18,126.95z"/>
   <path class="fil0" d="M5030.48 9605c0,438.14 199.77,592.87 496.4,777.64 206.59,128.68 448.3,212.34 698.04,247.64 502.94,71.07 802.44,-24.83 1254.1,-152.86 54.39,-15.42 80.96,-21.81 129.76,-40.99 458.22,-180.13 560.82,-360.96 560.82,-805.16 0,-63.52 -17.2,-160.22 -38.83,-197.59 -35.74,-61.73 -104.17,-52.42 -175.98,-30.53 -473.07,144.18 -733.46,293.79 -1243.11,293.79 -506.49,0 -772.4,-100.3 -1204.05,-332.68 -59.17,-31.86 -105.89,-65.46 -167.47,-95.22 -242.45,-117.17 -309.69,-151.73 -309.69,335.96z"/>
   <path class="fil0" d="M4938.54 10603.21c0,163.78 -2.12,245.91 39.09,407.47 60.16,235.89 307.9,403.38 516.77,507.71 83.47,41.69 146.89,76.54 233.7,107.8 87.67,31.57 164.65,57.18 261,80.48 457.89,110.74 783.89,99.42 1234.82,-13.32 273.55,-68.38 466.93,-152.97 628.51,-356.57 57.27,-72.15 128,-115.57 189.87,-256.7 29.02,-66.19 78.62,-197.51 84.96,-269.98 7.95,-91.01 -54.96,-233.17 -128.4,-233.17 -279.05,0 -783.15,367.76 -1339.71,367.76 -695.03,0 -896.73,-120.08 -1402.58,-462.51 -41.85,-28.32 -110.2,-76 -173.55,-76 -74.52,0 -144.47,112.82 -144.47,197.02z"/>
   <path class="fil0" d="M5148.69 8514.84c0,384.42 209.15,530.76 534.72,660.51 408.37,162.74 643.91,206.37 1120.21,206.37 334.14,0 900.07,-68.3 1126.45,-278.93 83.95,-78.1 173.85,-173.52 173.85,-298.98 0,-113.84 -60.92,-564.78 -131.34,-564.78 -210.28,0 -621.66,354.63 -1234.63,354.63 -347.09,0 -497.2,-10.83 -825.75,-146.2 -183.88,-75.76 -405.63,-208.43 -619.03,-208.43 -117.07,0 -144.48,156.98 -144.48,275.83z"/>
   <path class="fil0" d="M5017.35 12021.73c0,402.87 241.31,620.71 513.95,825.75 250.63,188.5 682.95,264.4 1009.64,264.4 372.54,0 736.76,-103.04 988.64,-364.21 111.55,-115.67 246,-440.49 246,-594.61 0,-416.72 -598.79,26.27 -1260.9,26.27 -548.82,0 -718.06,-118.36 -1114.69,-277.56 -217.37,-87.26 -382.64,-300.81 -382.64,119.96z"/>
   <path class="fil0" d="M6619.74 13571.58c-250.73,0 -384.9,9.39 -633.21,-49.78 -60.32,-14.37 -110.54,-28.48 -167.62,-42.56 -107.18,-26.41 -146.02,-37.79 -142.69,21.83 8.54,152.91 361.23,708.39 466.94,849.19 186.67,248.65 406.11,574.17 752.41,574.17 99.5,0 542.69,-57.77 642.2,-93.33 334.3,-119.46 -64.28,-321.69 -64.28,-1062.5l0 -249.56c0,-105.24 30.15,-106.81 -13.14,-197.01 -59.34,31.4 -29.26,12.66 -71.93,59.41 -54.73,59.97 -187.67,115.94 -267.64,139.52 -118.87,35.05 -342.15,50.61 -501.03,50.61z"/>
   <path class="fil0" d="M1326.58 4219.88c0,58.58 46.34,136.9 70.59,205.24 59.58,167.94 99.56,232.92 170.37,381.27l91.83 183.99c63.06,127.31 124.09,229.66 193.14,345.38 114.52,191.94 173.13,197.56 419.75,197.56 89.11,0 237.62,-14.64 304.72,-63.05 12.26,-8.85 63.04,-57.18 63.04,-68.29 0,-189.4 -262.64,-682.66 -345.86,-849.36 -223.88,-448.43 -296.71,-490.35 -849.36,-490.35 -83.3,0 -118.21,75.07 -118.21,157.61z"/>
   <path class="fil0" d="M7171.39 15226.53c30.64,63.84 -15.57,51.11 112.67,150.02 233.81,180.33 705.59,821.92 1082.56,821.92 375.72,0 704.69,-326.26 273.88,-667.91l-355.61 -314.25c-65.04,-56.69 -120.45,-98.38 -190.24,-151.24 -217.82,-164.98 -277.97,-96.78 -406.44,-30.98 -63.46,32.5 -97.32,43.47 -166.01,70.4 -108.77,42.63 -255.86,76.47 -350.81,122.04z"/>
   <path class="fil0" d="M3756.44 16802.65c0,347.59 50.87,468.52 205.77,779.31 98.1,196.81 214.54,442.19 424.68,442.19 77.7,0 138.47,-96.11 174.88,-154.58 71.6,-114.97 -127.37,-207.71 -248.33,-363.01 -29.1,-37.36 -123.56,-170.28 -123.56,-217.94 0,-188.83 499.11,-133.5 499.11,-249.56 0,-85.28 -310.69,-213.51 -393.78,-341.75 -113.78,-175.61 -64.73,-297.19 25.62,-472.98 100.16,-194.87 570.2,-466.33 591.44,-524.98 -373.57,87.03 -833.34,316.9 -1015.93,678.4 -49.43,97.87 -139.9,290.32 -139.9,424.89z"/>
   <path class="fil0" d="M10573.2 5743.47c0,186.83 273.29,260.4 544.03,71.19 40.79,-28.51 79.74,-61.7 116.08,-94.07 43.79,-39.01 68.73,-55.36 111.57,-98.58 188.22,-189.93 250.72,-224.98 383.49,-457.1 134.11,-234.44 125.06,-265.33 201.98,-415.38 23.3,-45.45 91.93,-104.55 9.55,-122.11 -59.72,-12.72 -197.38,19.95 -392.46,-28.94 -64.35,-16.12 -96.04,-24.29 -155.71,-54.44 -286.58,-144.83 -109.77,-29.81 -464.48,581.54 -58.65,101.08 -119.28,206.06 -183.12,302.85 -49.79,75.51 -170.93,206.59 -170.93,315.04z"/>
   <path class="fil0" d="M8432.29 9749.47c0,168.04 25.46,268.52 140.94,384.44 166.32,166.94 794.51,456.16 962.35,456.16 53.63,0 114.4,-38.09 141.3,-68.84 71.15,-81.32 90.54,-281.76 -19.31,-394.64 -178.31,-183.22 -844.22,-626.68 -1067.67,-626.68 -102.79,0 -157.61,142.9 -157.61,249.56z"/>
   <path class="fil0" d="M7972.59 18260.57c0,53.33 56.18,27.29 102.81,199.29 42.57,157.04 -43.93,340 466.18,54.47 371.91,-208.18 449.76,-258.53 754.42,-559.02 89.53,-88.29 95.11,-109.6 95.11,-233.26 -342.15,0 -498.79,-156.27 -617.32,-183.88 -116.52,220.2 -801.2,645.74 -801.2,722.39z"/>
   <path class="fil0" d="M8563.63 16448.02c0,26.58 100.83,213.9 118.43,249.34 86.62,174.33 111.23,461.06 199.19,549.47 81.45,81.86 265.49,81.2 391.63,81.2 241.3,0 236.42,-172.47 236.42,-328.36 0,-227.67 -72.16,-536.25 -196.77,-709.5 -15.16,-21.08 -18.52,-22.31 -35.45,-43.36 -145.5,-180.95 -149.25,-85.16 -435.89,32.2 -89.09,36.47 -277.56,97.68 -277.56,169.01z"/>
   <path class="fil0" d="M3401.81 10196.04c0,436.35 450.88,161.03 709.43,26.44 294.42,-153.26 678.31,-341.55 646.03,-711.89 -30.39,-348.71 -326.87,-138.37 -497.22,-45.57 -116.34,63.38 -215.17,131.76 -322.36,203.03l-447.42 340.63c-42.77,38.7 -88.46,109.98 -88.46,187.36z"/>
   <path class="fil0" d="M8340.35 8514.84c0,265.03 37.08,409.03 283.46,570.28 227.36,148.8 423.06,191.52 688.5,191.52l223.64 -11.92c64.6,-35.51 65.31,-201.37 65.31,-277.04 0,-141.44 -343.23,-217.84 -556.03,-323.99 -107.08,-53.41 -477.58,-293.33 -586.66,-293.33 -80.63,0 -118.21,62.51 -118.21,144.47z"/>
   <path class="fil0" d="M3598.83 8974.54l14.57 129.91c28.01,105.76 52.82,53.81 59.1,69.99l96.38 -3.05c353.04,-13.93 384.08,-12.21 740.81,-192.26 254.64,-128.53 428.85,-336.97 428.85,-648.17 0,-268.9 -367.76,-3.96 -452.26,46.86 -107.59,64.7 -203.62,125.81 -313.86,185.25 -105.84,57.07 -418.65,181.09 -497.24,238.3 -57.05,41.53 -76.37,79.05 -76.37,173.18z"/>
   <path class="fil0" d="M6449 18391.92c-80.66,0 -93.13,11.24 -157.61,26.27 0,61.31 -18.15,132 -23.99,186.16 -8.46,78.61 -15.42,124.52 -15.42,207.87 61.3,41.05 65.87,39.96 155.45,54.69 196.54,32.33 390.39,40.51 580.76,24.8l394.49 -25.82c43.01,-3.62 353.49,-0.66 353.49,-79.94 0,-112.96 -17.64,-168.68 -35.7,-266.4 -28.02,-151.63 -60.09,-140.76 -226.99,-140.76l-506.73 31.87c-87.69,13.33 -358.23,-18.74 -517.76,-18.74z"/>
   <path class="fil0" d="M2456.14 5822.28c0,218.56 205.91,367.88 381.04,446.42 102.1,45.79 782.88,304.1 855.32,40.06 58.3,-212.48 -284.64,-432.82 -427.56,-520.35 -166.39,-101.9 -491.15,-310.79 -693.97,-179.66 -61.43,39.72 -114.83,117.64 -114.83,213.53z"/>
   <path class="fil0" d="M8445.43 10747.69c0,217.65 45.72,285.1 214.61,376.45l726.68 376.61c386.68,194.4 345.89,83.65 345.89,-135.74 0,-157.83 -95.97,-208.6 -267.96,-323.1l-725.95 -482.41c-68.15,-38 -136.26,-85.46 -209.57,-30.55 -52.04,38.98 -83.7,131.77 -83.7,218.74z"/>
   <path class="fil0" d="M9942.75 11483.22c0,484.27 586.6,604.29 1072.83,363.57 159.43,-78.94 214.33,-130.81 214.33,-363.57 0,-238.91 -53.28,-65.67 -669.85,-65.67 -300.97,0 -505.13,-118.21 -604.19,-118.21 0,84.18 -13.13,108.5 -13.13,183.88z"/>
   <path class="fil0" d="M3349.27 11220.53c0,93.97 -8.76,91.41 26.27,157.61 184.98,-4.12 716.83,-336.85 919.41,-446.56 59.08,-31.99 115.55,-65.42 173.36,-102.48 174.08,-111.58 207.54,-171.31 207.54,-396.63 0,-87.31 -47.07,-171.42 -129.51,-166.96 -96.56,5.23 -460.03,284.15 -563.99,353.45 -193.89,129.25 -360.75,231.64 -543.44,375.99 -59.15,46.73 -89.64,124.38 -89.64,225.59z"/>
   <path class="fil0" d="M3795.84 7950.06c0,96.45 117.4,78.8 197.02,78.8 273.73,0 521,-64.86 730.74,-136.13 116.58,-39.61 200.24,-77.72 298.02,-135.42 51.28,-30.26 87.95,-54.98 123.84,-99.44 108.15,-133.99 40.22,-469.61 -36.17,-469.61 -80.43,0 -223.94,118.02 -336.92,175.32 -411.76,208.84 -328.04,158.81 -741.87,295.75 -138.86,45.96 -234.65,64.86 -234.65,290.73z"/>
   <path class="fil0" d="M4715.25 18102.96c0,179.83 17.27,191.52 183.83,302.14 192.28,127.7 1005.83,504.58 1105.89,265.18 18.89,-45.22 36.86,-129.93 36.86,-199.56 0,-96.99 -138.97,-139.08 -244.47,-175.84 -112.35,-39.14 -215.8,-66.73 -324.26,-109.17 -259.67,-101.6 -757.85,-429.34 -757.85,-82.76z"/>
   <path class="fil0" d="M8143.33 7647.96c0,227.54 98.64,274.14 343.32,365.95 296.38,111.2 503.33,106.9 812.51,106.9 117.96,0 156.72,-20.6 163.84,-97.55 23.93,-258.66 -125.17,-251.06 -444.93,-330.62 -146.5,-36.45 -259.22,-82.86 -384.44,-140.93 -125.54,-58.22 -305.58,-179.56 -372.08,-179.56 -79.17,0 -118.21,181.88 -118.21,275.82z"/>
   <path class="fil0" d="M1851.95 11312.47c-16.1,193.4 -68.61,326.61 162.98,414.93 467.05,178.1 1124.19,26.47 1124.19,-441.2 0,-301.68 19.63,-90.49 -547.55,4.1 -201.33,33.58 -497.64,22.17 -739.63,22.17z"/>
   <path class="fil0" d="M1773.15 9119.02c41.68,-62.24 94.78,-251.52 23.59,-312.2 -39.62,-33.77 -227.22,-100.23 -293.79,-126.86 -455.22,-182.07 -1029.15,-418.73 -1287.26,-840.51l-106.54 -208.69c-14.63,-38.21 -14.82,-53.75 -43.47,-74.74 6.51,292.02 135.47,493.77 301.97,709.37 197.87,256.21 512.1,485.84 801.32,630.34 120.54,60.23 446.27,219.77 604.19,223.29z"/>
   <path class="fil0" d="M11348.13 9040.21c84.51,-7.03 223.09,-78.78 293.34,-113.82 51.58,-25.73 84.13,-44.32 127.64,-69.37 148.73,-85.63 364.3,-221.78 482.12,-332.22 21.85,-20.49 30.51,-32.71 53.75,-51.31 26.07,-20.87 31.09,-21.11 58.05,-47.04 272.6,-262.32 574.36,-658.44 574.36,-1054.3 -73.22,84.23 -86.5,434.99 -653.93,817.13l-875.28 490.7c-25.28,14.83 -47.18,21.91 -68.41,36.67 -59.78,41.62 -40.76,87.57 -33.36,154.74 13.28,120.45 -16.89,81.33 41.7,168.82z"/>
   <path class="fil0" d="M2101.51 8987.68c0,93.49 -11.66,154.07 57.19,205.5 42.34,31.63 76,47.5 131.23,65.78 181.56,60.08 890.45,60.99 1031.22,15.81 87.57,-28.1 95.5,-97.34 111.68,-204.63 15.72,-104.1 -11.2,-160.34 -135.46,-161.89 -113.9,-1.42 -191.71,-12.51 -315.85,-12.51l-814.33 0c-42.46,0 -65.67,47.68 -65.67,91.94z"/>
   <path class="fil0" d="M9758.87 9079.61c0,306.9 76.54,262.7 302.1,262.7 215.76,0 634.98,-33 819.1,-126.57 41.95,-21.32 59.6,-34.81 95.34,-62.27 78.09,-59.99 57.5,-106.93 57.5,-257.73 0,-48.29 -28.04,-39.4 -91.94,-39.4 -214.11,0 -714.86,59.65 -961.29,89.46 -107.45,13 -220.81,18.74 -220.81,133.81z"/>
   <path class="fil0" d="M2245.98 7608.56c0,132.32 59.87,196.51 152.69,241.34 187.13,90.38 1004.49,227.15 1187.02,139.56 57.28,-245.83 -18.59,-329.04 -289.15,-341.3 -159.89,-7.23 -281.49,-25.36 -419.16,-53.67 -123.88,-25.48 -243.2,-62.5 -365.95,-93.76 -34.84,-8.88 -158.61,-46.45 -187.5,-44.45 -57.54,3.97 -77.94,81.6 -77.94,152.28z"/>
   <path class="fil0" d="M10034.69 10222.31c-138.06,0 -131.89,50.3 -141.63,148.36 -7.49,75.28 36.85,182.54 80.72,214.64 77.98,57.06 367.84,96.71 507.48,96.71 171.55,0 517.43,-133.35 561.39,-187.27 16.08,-19.71 69.48,-214.6 16.51,-324.98l-765.47 62.17c-86.03,12.23 -161.49,-9.63 -259.01,-9.63z"/>
   <path class="fil0" d="M564.78 6111.24c3.78,169.72 264.66,639.76 436.91,810.86 33.96,33.73 52.77,67.57 88.21,95.68 36.43,28.9 54.32,46.81 88.86,81.88 39.11,39.69 59.54,50.96 98.35,85.54 112.94,100.6 523.96,425.54 627.38,449.64 49.22,-73.5 79.25,-202.88 63.55,-299.35 -13.02,-79.93 -109.61,-125.41 -197.51,-184 -237.9,-158.57 -536.86,-350.84 -742.57,-557.74 -39.9,-40.14 -70.05,-53.21 -105.68,-91.33l-262.38 -289.28c-41.98,-44.89 -41.22,-65.8 -95.12,-101.89z"/>
   <path class="fil0" d="M2035.84 10182.91c-24.49,105.14 -32.27,77.9 -9.8,193.5 17.25,88.73 -44.99,133.57 290.99,208.3 232.41,51.69 413.19,26.71 645.96,-39.43 261.62,-74.34 268.09,-139.23 268.09,-362.37 0,-48.3 -28.04,-39.41 -91.94,-39.41 -102.39,0 -183.77,11.81 -266.24,22.73 -88.74,11.73 -195.94,2.13 -275.86,13.09 -83.81,11.49 -196.25,5.9 -274.17,14.82 -102.41,11.73 -180.04,-11.23 -287.02,-11.23z"/>
   <path class="fil0" d="M9653.79 7936.92c0,85.51 8.7,64.94 13.14,118.21 189.84,44.23 592.22,-62.8 782.79,-110.34 265.46,-66.21 623.42,-195.84 451.84,-520.12 -60.22,5.01 -530.47,178.68 -665.22,214.79 -312.95,83.86 -582.56,18.74 -582.56,297.45z"/>
   <path class="fil0" d="M9351.7 6439.6c0,71.19 53.64,123.94 106.17,143.39 109.25,40.43 198.13,40.5 314.13,40.5 182.1,0 312.04,-94.92 433.51,-157.54 68.98,-35.57 318.29,-187 354.55,-236.5 -19.18,-71.83 -81.03,-62.55 -144.86,-91.56 -161.11,-73.24 -81.34,-242.23 -468.09,-48.54 -289.75,145.12 -250.47,114.2 -494.72,214.54 -55.28,22.7 -100.7,65.07 -100.7,135.72z"/>
   <path class="fil0" d="M11203.65 7332.74c0,99.66 12.33,176.38 52.53,236.42 65.04,-15.15 150.88,-94.92 204.48,-137.02 34.57,-27.16 62.78,-48.47 94.24,-76.52 38.08,-33.96 62.02,-49.03 98.54,-85.34l177.38 -164.11c186.28,-186.28 347.58,-329.96 471.9,-578.85 52.53,-105.16 198.39,-380.07 201.24,-508.02 -92.67,106.61 -270.22,343.32 -364.29,436.91 -31.85,31.7 -53.89,53.51 -85.57,85.18 -208.52,208.53 -480.04,420.22 -717.33,596.12 -62.79,46.53 -133.12,88.77 -133.12,195.24z"/>
   <path class="fil0" d="M1641.8 10393.06c49.82,0 -1.16,-222.7 -10.83,-251.86 -29.19,-88.09 -71.22,-84.5 -195.4,-132.96 -161.99,-63.2 -316.2,-114.69 -472.28,-184.44 -275.78,-123.23 -382.66,-173.22 -632.31,-339.64 -34.34,-22.89 -62.56,-41.69 -94.6,-63.01 -30.69,-20.43 -69.85,-56.32 -105.04,-65.72 24.52,91.82 214.03,276.34 285.41,345.04 31.97,30.79 51.85,41.66 85.74,71.88 230.87,205.85 854.56,620.7 1139.32,620.7z"/>
   <path class="fil0" d="M12884.86 9132.15l-179.82 148.55c-225.61,189.75 -439.64,329.85 -704.75,464.2l-336.94 175.3c-64.35,32 -170.99,74 -199.34,142.16 -17.52,42.15 -70.1,240.2 -33.53,276.77 49.5,49.5 394.69,-158.82 445.7,-192.96 255.98,-171.33 944.99,-740.64 1008.68,-1014.02z"/>
   <path class="fil0" d="M11532.01 11259.93c0,294.75 -85.07,379.32 284.5,179.42l218.5 -149.26c71.29,-53.1 127.42,-111.19 193.14,-161.5 193.31,-148 755.93,-787.76 761.79,-1050.76 -45.85,30.71 -411.36,529.38 -812.43,829.38 -180.69,135.15 -421.92,300.64 -645.49,352.73z"/>
   <path class="fil0" d="M1484.19 11522.62c84.07,0 51.89,-209.07 39.4,-262.69 -45.62,-21.89 -54.29,-19.45 -114.62,-29.87 -96.7,-16.69 -253.51,-88.21 -340.74,-132.11 -109.58,-55.14 -303.28,-163.3 -396.54,-233.9l-346.53 -283.94c-89.09,-78.46 -260.88,-288.11 -325.17,-305.28 18.9,39.4 26.43,78.18 47.88,122.87 21.39,44.55 36.52,69.02 61.13,109.62 173.94,287.05 588.65,637.01 889.93,817.54 91.98,55.12 353.58,197.75 485.25,197.75z"/>
   <polygon class="fil0" points="564.78,6111.24 564.78,6098.1 549.46,6109.05 "/>
  </g>
 </g>
</svg>
