<?xml version="1.0" encoding="UTF-8"?>
<!DOCTYPE svg PUBLIC "-//W3C//DTD SVG 1.1//EN" "http://www.w3.org/Graphics/SVG/1.1/DTD/svg11.dtd">
<!-- Creator: CorelDRAW 2021 (64-Bit) -->
<svg xmlns="http://www.w3.org/2000/svg" xml:space="preserve" width="166.869mm" height="157.78mm" version="1.1" style="shape-rendering:geometricPrecision; text-rendering:geometricPrecision; image-rendering:optimizeQuality; fill-rule:evenodd; clip-rule:evenodd"
viewBox="0 0 15875.53 15010.81"
 xmlns:xlink="http://www.w3.org/1999/xlink"
 xmlns:xodm="http://www.corel.com/coreldraw/odm/2003">
 <defs>
  <style type="text/css">
   <![CDATA[
    .fil0 {fill:#231F20}
   ]]>
  </style>
 </defs>
 <g id="Layer_x0020_1">
  <metadata id="CorelCorpID_0Corel-Layer"/>
  <g id="_2108680715376">
   <path class="fil0" d="M10329.82 7156.42l0 -27.91c0,-130.8 621.53,164.15 660.34,186.52 128.85,74.28 289.04,187.03 410.04,278.6 25.12,19.01 34.32,33.01 58.41,53.27l168.73 175.61c111.62,142.79 190.84,233.66 281.54,416.41 48.8,98.31 97.21,228.13 132.17,333.13 30.61,91.9 81.7,287.41 177.91,287.41 205.54,0 133.62,-260.47 120.81,-520.97 -2.67,-54.39 -13.88,-119.78 -18.69,-176.75 -8.27,-97.8 -42.22,-255.28 9.55,-363.19 53.08,14.18 48.84,66.89 57.52,128.61l33.86 347.69c10.47,93.28 13.21,240.85 139.9,80.7 80.86,-102.23 140.97,-75.3 140.97,-54.46l-138.51 475.7c-46.18,156.95 -82.98,333.24 -111.46,502.75 -71.12,423.11 -51.29,558.35 -227.28,1001.13 -59.23,149.03 -127.28,278 -204.99,409.2 -37.26,62.9 -79.54,126.14 -123.29,183.82 -148.08,195.17 -276.43,308.46 -478.61,442.7 -144.27,95.78 -289.15,186.02 -474.72,186.02 -130.85,0 -194.14,-130.41 61.11,-283.22 259.1,-155.11 442.18,-251.28 634.32,-510.34 223.11,-300.82 318.95,-806.02 318.95,-1207.27 0,-247.05 -55.4,-646.17 -109.73,-876.72 -31.04,-131.74 -69.44,-263.91 -122.88,-370.34 -42.26,-84.16 -139.13,-227.11 -206.92,-295.61 -348.97,-352.6 -461.65,-393.65 -859.36,-629.62 -48.17,-28.58 -113.17,-65.23 -164.63,-86.65 -44.53,-18.54 -165.05,-40.66 -165.05,-86.2zm418.78 -1703.02l0 -27.92c144.92,-33.76 118.02,-93.61 130.78,-250.77 4.05,-49.88 15.4,-126.69 18.38,-177.48 4.34,-73.95 -18.09,-116.61 -26.02,-169.5 -20.44,-136.24 18.82,-237.26 -43.04,-338.51l-116.79 -171.7c-19.71,-26.04 -23.7,-33.19 -65.67,-36.69 12.86,-17.57 108.1,-125.02 163.78,-90.35 43.59,27.13 102.06,112.32 130.2,159.31 76.73,128.17 126.31,244.72 167.66,409.32 26.73,106.41 74.72,400.65 29.06,505.66 -59.5,136.86 -239.82,188.64 -388.33,188.64zm-1321.48 -1851.92c0,-141.27 165.54,69.88 277.57,159.81 121.18,97.28 223.35,67.14 355.28,44.95 128.9,-21.67 260.94,-39.79 388.59,-67.41 210.63,-45.58 249.57,-85.87 318.64,58.07 -73.74,1.65 -351.21,52.59 -441.31,70.54 -253.86,50.55 -496.38,176.33 -716.77,306.9 -36.12,21.4 -41.6,28.06 -70.34,50.64 -45.23,35.53 -103.82,76.53 -131.95,128.63 -49.04,90.83 -54.49,125.25 38.89,187.79 26.12,-6.09 102.39,-51.06 128.48,-66.95 179.91,-109.47 628.53,-334.88 838.03,-363.26 88.85,-12.04 88.29,2.99 122.31,67.26 -70.27,47.06 -130.07,63.51 -215.23,91.88 -350.72,116.85 -438.82,173.76 -749.39,330.12 -108.54,54.65 -198.04,115.54 -312.86,161.75 -174.24,70.13 -463.03,76.99 -676.82,76.99 -83.88,0 -170.19,-17.34 -248.63,-30.55 -154.97,-26.11 -353.37,-48.56 -514.47,-53.21 -311.88,-9 -187.26,-214.03 -74.45,-214.03 50.95,0 150.15,29.04 198.72,43.23l620.21 124.28c59.45,0 188.3,-450.12 20.48,-532.32 -52.34,-25.64 -141.94,-16.74 -215.91,-16.74 -3.23,-38.81 -14.77,-69.13 46.03,-112.19 66.07,-46.8 112.88,-46.02 186.63,-46.02 107.64,0 247.92,156.75 309.62,220.83 56.85,59.06 198.36,263.5 239.44,291.01 38.6,-25.85 163.26,-165.31 249.72,-234.2 61.33,-48.86 234.21,-164.13 234.21,-249.72 0,-296.49 -204.75,-273.7 -204.75,-428.08zm912.01 -344.33c-145.15,0 -274.12,9.33 -414.7,32 -268.51,43.3 -465.83,56.86 -694.72,-95.16 -50.92,-33.82 -91.08,-61.7 -91.08,-122.97 0,-194.25 204.74,-400.97 204.74,-716.58 0,-166.58 10.54,-355.15 -24.15,-515.62 -56.84,-263 -122.16,-330.32 161.96,-500.53 94.84,-56.82 190.18,-103.11 313,-133.7 123.42,-30.74 452.68,-56.06 543.79,-116.94 153.5,-102.61 116.65,-479.44 -511.17,-528.82 -442.09,-34.77 -1187.62,74.71 -1432.28,483.82 -119.27,199.46 -209.23,694.08 -174.65,946.31 6.07,44.31 2.35,98.52 8.12,150.08 8.78,78.43 29.22,223.12 1.66,292.87 -42.01,106.38 -174.96,175.15 -282.1,201.82 -49.35,12.28 -93.16,10.86 -93.16,74.34 0,261.12 478.67,460.69 716.36,474.96 331.6,19.9 352.42,-121.48 435.03,85.99 14.72,36.96 45.83,116.26 49.1,155.64 -47.9,22.99 -192.12,33.6 -254,43.79 -393.95,64.94 -534.28,151.3 -765.74,444.05 -144.47,182.73 -160.95,173.27 -390.86,223.35 -86.78,18.9 -161.39,39.64 -240.25,66.85 -214.8,74.14 -359.13,260.52 -474.78,437.22 -52.08,79.58 -59.81,112.88 -137.01,170.09 -121.97,90.4 -232.95,156.37 -340.74,264.16 -153.46,153.46 -179.13,308.58 -179.13,528.13 0,84.99 21.81,198.69 62.64,244.46 52.2,58.53 99.3,97.69 168.13,138.98 250.82,150.47 697.82,136.12 992.35,95.2 271.55,-37.73 423.4,-53.84 674.25,-144.7 101.98,-36.94 196.39,-80.71 297.45,-121.32 250.71,-100.76 937.09,-445.27 1201.92,-445.27 278.76,0 367.99,65.16 707.27,65.14 77.55,0 155.1,0 232.65,0 7.71,11.52 41.06,61.22 27.92,74.45 -29.19,14 -391.93,46.71 -455.9,47.06l-349.81 -23.07c-82.27,-12.42 -226.4,-16.24 -285.9,38.36 -118.68,108.89 -47.5,298.22 62.25,380.71 225.3,169.36 1037.12,3.95 1289.92,-117.35l104.43 109.64c-34.7,9.65 -82.69,31.12 -117.66,44.64 -42.53,16.44 -82.96,29.39 -125.18,42.34 -276.66,84.84 -314.49,61.23 -555.6,95.82 -103.45,14.84 -227.29,-7.19 -227.29,107.73 0,117.93 149.66,209.86 232.54,251.37 367.49,184.03 723.21,145.27 1111.5,59.69 37.41,-8.25 75.3,-19.87 107.71,-22.58 15.13,28.6 38.55,77.43 46.53,111.67 -30.71,41.92 -245.89,126.72 -309.22,146.8 -357.11,113.17 -612.51,77.27 -957.77,-61.69 -163.36,-65.76 -360.9,-183.11 -474.65,-325.68 -136.32,-170.86 -211.97,-266.64 -328.3,-462.73 -138.58,-233.58 -75.4,-226.33 -338.49,-160.29 -127.58,32.02 -513.71,93.86 -513.71,240.09 0,208.18 82.08,272.9 237.88,367 39.86,24.08 78.22,45.47 118.81,67.33 113.52,61.13 347.61,159.16 436.37,215.06 23.21,14.62 34.05,26.03 53.8,39.25l-20.23 258.96c-22.16,69.6 -71.32,118.5 -134.84,153.65 -205.16,113.54 -593.53,80.62 -850,80.62 -478.23,0 -910.8,-174.91 -1330.64,-381.69 -283.2,-139.48 -579.57,-240.2 -887.61,-340.79 -386.92,-126.35 -813.73,-191.32 -1239.9,-129.96 -115.91,16.7 -194.66,39.81 -291.04,71.91 -132.84,44.25 -259.85,95.95 -382.63,157.12 -163.31,81.35 -214.25,64.73 -214.42,-158.16 -0.08,-91.6 9.58,-168.24 9.58,-270.03 0,-319.65 8.7,-600.71 -149.26,-874.42 -85.6,-148.34 -234.35,-289.43 -391.75,-352.73 -308.46,-124.07 -722.24,-91.77 -1016.07,70.23 -299.26,165 -464.17,593.4 -563.62,906.76 -187.75,591.56 -452.79,1247.15 -829.24,1739.25 -27.43,35.86 -57.35,66.27 -85.22,100.9 -135.46,168.25 -385.09,355 -603.53,355 -208.86,0 -260.14,-172.79 -390.86,-241.96 -25.82,38.57 -27.91,62.47 -27.91,111.67 0,278.39 261.16,591.25 429.38,799.02 30.98,38.25 58.87,75.91 94.14,110.61l102.31 111.72c105.56,105.48 318.6,320.02 493.27,335.33 92.34,8.09 210.08,-94.32 264.78,-140.31 140.51,-118.13 453.08,-552.11 539.58,-698.13 150.31,-253.72 310.12,-511.76 498.28,-739.44 179.71,-217.44 364.64,-560.51 686.5,-560.51 106.58,0 192.15,-29.6 238.32,87.39 79.89,202.47 20.53,205.51 31.45,340.36 5.81,71.83 46.64,98.83 46.64,186.44 0,64.19 -233.38,322.67 -307.2,604.8 -94.01,359.24 -129.83,776.27 -238.46,1138.85l-213.39 707.91c-52.06,179.37 -178.94,367.82 -38.68,533.12 46.45,54.74 98.26,86.35 183.54,86.35 149.22,0 365.07,-84.8 490.17,-151.95 210.02,-112.75 680.23,-548.27 820.61,-724.21 13.81,-17.32 24.75,-26.64 41.05,-42.71 113.85,-112.25 262.24,-311.96 367.73,-432.6 128.33,-146.76 244.48,-299.52 362.36,-456.57 144.06,-191.92 282.83,-392.56 350.31,-626.85 58.16,-201.98 61.32,-484.67 -16.39,-678.89 -62.3,-155.67 -233.48,-316.8 -383.89,-397.84 -193.56,-104.3 -536.89,-81.54 -746.74,-14.45 -79.25,25.34 -122.58,81.45 -177.76,-0.95 14.36,-61.66 83.89,-84.26 134.13,-117.14 60.56,-39.63 86.14,-65.37 162.35,-88.91 153.54,-47.44 412.68,-45.22 596.91,-45.22 132.17,0 205.43,39.65 283.32,98.23 134.13,100.88 288.5,239.13 392.13,370.97 182.35,232 322.18,425.61 421.49,723.17 189.2,566.96 201.64,1059.5 449.11,1663.39l187.76 389.22c105.91,189.33 242.38,410.03 395.01,563.52l93.02 102.42c440.78,440.06 1098.79,676.26 1711.86,763.57 241.49,34.39 208.87,9.19 331.62,254.67 105.18,210.36 161.01,282.24 361.48,401.62 153.02,91.12 416.93,163.78 593.69,178.73 356.48,30.15 451.61,72.27 764.56,184.66 67.14,24.12 352.44,157.02 352.44,233.85 0,23.77 -6.61,16.92 -18.64,37.2 -69.93,117.95 8.53,56.77 -244.62,164.84 -58.9,25.14 -97.91,52.78 -152.28,80.38l-781.85 409.33c-86.33,43.16 -469.47,266.3 -566.71,254.46 -40.25,-4.91 -65.71,-11.2 -93.59,-28.46 -144.3,-89.35 -247.77,-226.69 -394.67,-312.6 -233.18,-136.38 -401.2,13.03 -587.88,137.47l-266.08 180.62c-31.55,20.96 -76.39,41.67 -76.39,81.81 0,81.92 256.66,130.52 342.47,150.76 210.12,49.54 382.08,62.61 575.73,159.45 59.53,29.76 107.97,53.98 167.51,83.75 242.57,121.29 373.82,206.41 611.01,65.06 159.9,-95.3 297.8,-199.97 468.51,-285.3l747.72 -378.32c30,-15.62 51.75,-30.95 83.57,-46.72 55.9,-27.73 111.73,-55.77 167.58,-83.69 112.57,-56.28 214.87,-114.6 331.8,-170.73 31.43,-15.09 52.75,-21.36 83.99,-36.99 31.83,-15.93 57.37,-28.86 86.75,-43.53 56.79,-28.4 108.12,-53.92 162.04,-89.22 99.52,-65.17 228.82,-155.84 228.82,-301.64 0,-271.82 -412.59,-420.48 -619.58,-543.68 -184.58,-109.86 -371.16,-204.86 -469.38,-405.4 -54.3,-110.84 -154.01,-337.86 35.22,-384.89 110.73,-27.52 85.21,126.57 359.49,315.9 46.86,32.34 87.13,61.28 135.87,87.47 54.84,29.47 89.32,51.33 154.23,78.43 528.65,220.82 826.26,76.25 1235.28,132.74 77.64,10.72 120.17,15.1 188.74,34.6 69.81,19.86 105.28,39.57 167.4,65.25 157.17,64.97 338.57,129.13 215.24,337.67l-310.93 331.2 -764.54 622.08c-62.96,51.28 -148.88,105.15 -177.47,185.46 -21.98,61.74 10.35,115.19 -37.57,148.57 -172.03,119.81 -463.1,-66.47 -628.05,-42.38 -114.56,16.73 -204.49,163.58 -281.91,239.85 -119.9,118.13 -258.74,288.04 -360.09,421.62 -36.91,48.64 -88.97,116.36 -88.97,190.22 0,171 259.31,-8.68 322.61,-40.33 168.54,-84.26 325.99,-172.09 502.84,-241.65 416.07,-163.63 696.35,-68.9 790.34,-140.28 31.73,-24.1 65.1,-62.79 94.21,-91.9 30.67,-30.68 65.54,-61.06 92.65,-93.48 76.18,-91.13 277.06,-316.77 359.13,-385.37 101.08,-84.5 190.01,-181.53 283.41,-274.95 65.7,-65.7 122.83,-118.45 190.67,-181.58 131.41,-122.3 373.11,-287.44 507.37,-423.24 32.71,-33.08 59.71,-63.79 95.32,-90.81 49.83,-37.8 136.6,-141.73 178.96,-193.27 145.37,-176.89 185.63,-420.73 -33.65,-566.26 -243.27,-161.44 -667.2,-189.65 -920.52,-289.28 -174.84,-68.77 -369.44,-170.54 -531.73,-268.6 -164.77,-99.54 -585.01,-463.44 -470.34,-683.21 32.54,-62.37 413.5,-508.64 453.45,-551.62 19.56,-21.03 26.6,-33.56 46.47,-55.88 157.07,-176.39 315.95,-369.5 406.49,-589.27l94.46 -212.64c36.69,-92.02 76.26,-211.79 124.96,-284.51 61.32,14.29 89.52,78.92 124.95,126.3l1534.19 2002.15c30.1,40.12 96.7,105.39 109.02,151.55 27.73,-18.58 29.25,-24.3 50.49,-51.89 20.23,-26.29 34.94,-34.5 51.88,-59.79 -35.01,-150.29 -214.04,-435.86 -214.04,-716.57 0,-164.42 23.39,-345.28 43.73,-486.71 23.26,-161.7 48.72,-305.71 82.85,-456.91 48.67,-215.62 119.16,-401.81 200.36,-599.98l243.85 -556.48c59.86,-124.63 115.69,-252.23 153.14,-386.62 150.91,-541.49 199.88,-1274.2 -4.67,-1787.5 -24.13,-60.53 -45.97,-112 -78.84,-163.12 -45.11,-70.17 -43.55,-87.08 -146.86,-95.11 -105.45,-8.19 -364.95,-48.35 -447.02,-8.97 -43.91,188.48 87.59,501.78 154.28,673.97 67.19,173.48 162.13,437.82 162.13,628.89 0,238.44 -55.99,504.31 -110.54,689.79 -76.75,260.91 -176.24,472.11 -292.8,702.96 -161.23,319.36 -322.55,724.31 -322.55,1091.99 0,186.66 13.12,354.68 39.92,537.06 6.12,41.63 21.51,106.96 25.22,151.6 -47.09,0 -49.57,-2.32 -72.22,-30.15l-974.09 -1240.78c-34.25,-43.6 -60.63,-75.04 -94.27,-119.77 -31.82,-42.31 -59.14,-71.95 -90.5,-114.24 -94.17,-126.96 -129.52,-122.83 -107.64,-317.71 17.05,-151.91 9.64,-353.46 -11.07,-503.49 -11.2,-81.1 -39.53,-189.52 -66.04,-259.67 -25.97,-68.72 -57.64,-158.17 -95.54,-220.88 -175.81,-290.96 -223.4,-181.08 -304.41,97.5 -29.84,102.6 -57.84,217.76 -166.41,243.06l-0.24 -92.86c1.17,-101.79 61.08,-166.27 94.6,-259.48 96.66,-268.78 87.12,-545.09 6.93,-819.16 -26.76,-91.47 -97.82,-298.87 -203.65,-298.87l-418.78 0c-37.6,0 -65.15,20.25 -65.15,55.83 0,311.7 176.82,571.26 176.82,818.94 -68.4,-32.82 -115.62,-74.97 -158.25,-139.55 -83.79,-126.92 -153.92,-269.21 -189.81,-424.4 -21.03,-90.94 -14.88,-185.1 -14.88,-292.22l-29.91 -25.93c-52.03,-20.13 -282.03,27.46 -342.94,-57.23 -15.89,-22.09 -38.63,-62.34 -45.92,-93.67 27.74,-13.31 57.27,-21.08 85.19,-35.79 166.64,-87.85 175.39,-140.17 175.39,-327.14 0,-402.77 -194.97,-415.95 -494.42,-308.29 -35.29,12.68 -65.09,25.32 -99.94,39.64 -66.03,27.13 -156.58,80.51 -159.43,-47.76 71,-1.59 462.34,-124.23 523.79,-183.47 63.86,-61.56 127.64,-208.21 127.64,-309.76 0,-333.46 -120.23,-575.1 -245.06,-825.15 -49.91,-99.98 -111.77,-221.79 -194.35,-298.87 -25.02,-23.36 -40.09,-28.42 -65.77,-55.22 -20.88,-21.79 -38.9,-46.59 -58.57,-71.71 -25.9,-33.07 -88.04,-115.85 -96.99,-154.28 149.93,-34.93 251.39,-65.59 322.55,-198.59 65.39,-122.24 125.49,-103.22 242.3,-40.54 33.93,18.21 86.04,62.68 95.89,99.54 -93.83,45.02 -325.71,50.39 -325.71,269.88 0,206.98 398.66,666.81 543.02,964.58 16.05,33.11 25.52,64.49 39.34,100.25 24.27,62.72 45.4,140.35 61.82,208.06 13.85,57.15 15.91,188.18 91.01,188.18 72.88,0 186.85,-46.09 280.89,-54.88 45.64,-4.26 70.14,15.03 98.48,6.76 70.45,-20.54 17.5,-315.78 4.67,-382.47 -39.6,-205.93 -244.46,-595.01 -244.46,-667.54 0,-106.97 83.76,22.03 83.76,-214.04 0,-148.74 -176.5,-526.03 -272.1,-621.29 -81.12,-80.83 -175.52,-117.72 -280.09,-166.61 -52.09,-24.36 -107.55,-46.93 -156.42,-66.93 -171.89,-70.33 -165.63,-73.08 -79.54,-175.27l441.75 -516.8c16.01,-18.37 17.7,-19.77 33.92,-40.53 13.75,-17.59 16.91,-19.08 30.95,-34.19l1060.5 -1228.82c132.17,-157.19 354.63,-419.33 484.33,-548.65 26.2,-26.11 41.2,-59.06 86.1,-62.8 13.64,28.43 32.37,228.07 42.56,283.16 18.42,99.61 44.22,197.32 67.13,286.5 59.94,233.33 140.47,431.68 229.25,645.53 47.55,114.53 110.17,249.79 174.69,355.76l637.35 1121.51c23.57,42.16 39.3,69.86 61.93,114.89 102.08,203.13 187.38,424.96 201.35,682.74 5.89,108.72 -13.33,475.99 62.75,551.45 8.21,8.14 49.83,34.57 58.5,34.57 51.42,0 160.28,-68.25 192.82,-95.67 198.28,-167.06 188.72,-444.26 188.72,-713.97 0,-371.97 -239.82,-741.31 -428.08,-1023.68l-442.77 -646.04c-377.19,-518.16 -637.65,-1110.08 -811.54,-1729.04 -29.05,-103.39 -141.6,-489.23 -141.6,-593.57l-18.62 0c0,59.78 -15.14,127.43 -18.88,195.16 -12.99,234.48 -42.83,163.22 -241.69,419.05 -63.22,81.33 -133.46,153.69 -199.35,238.03 -128.12,163.97 -272.85,317.14 -404.24,479.84l-506.24 601.2c-36.71,41.22 -64.52,81.38 -102.3,121.04 -161.98,170.06 -428.26,527.02 -600.22,711.94 -19.62,21.09 -31.23,38.11 -50.95,60.73 -156.95,180 -427.93,563.73 -612.82,607.03 -35.24,8.25 -136.87,1.23 -179.9,-14.9 -34.44,-12.91 -31.83,-29.15 -61.14,-50.53 -120.27,-87.73 -272.15,-111.44 -446.93,-111.44z"/>
   <path class="fil0" d="M5481.32 8087.04c0,327.82 -41.36,524.81 -143.46,768.55 -43.02,102.72 -92.09,202.75 -145.42,291.97 -42.16,70.54 -231.77,303.49 -290.35,361.07l-321.14 339.6c-78.2,78.19 -139.54,144.75 -222.93,214.46 -36.78,30.74 -72.54,71.75 -107.45,106.6 -34.01,33.95 -85.99,75.55 -90.73,132.61 193.81,0 557.42,-185.51 713.77,-165.35 65.06,8.39 121.37,14.32 181.65,42.35 78.53,36.51 50.67,144.89 -197.46,150.93 -51.31,1.25 -109.93,9.71 -154.55,22.25 -160.37,45.08 -142.02,167.18 -228.7,301.75l-487.59 657.08c-91.8,117.27 -236.58,269.56 -236.58,386.92 0,239.73 27.13,180.12 47.29,324.95 23.57,169.34 -62.07,628.39 -96.16,798.77 -32.44,162.12 -69.08,335.65 -109.34,495.55 -60.36,239.75 -111.68,366.65 -111.68,604.89 0,99.67 122.17,172.84 202.43,253.57 130.99,131.74 112.63,154.08 138,327.31 39.49,269.77 -76.4,480.02 441.29,480.02 91.53,0 303.98,17.08 355.48,-44.69 63.62,-76.31 -8.23,-137.37 -50.39,-204.56 -32.04,-51.07 -56.75,-101.21 -84.73,-157.22l-80.63 -161.33c-123.63,-251.03 -288.63,-626.63 -288.63,-911.87 0,-546.53 57.11,-1054.92 300.9,-1541.71 62.07,-123.94 117.82,-244.71 188.26,-360.8 83.86,-138.22 153.79,-240.26 257.51,-356.71l204.74 -204.73c196.29,-174.89 328.08,-197.82 591.06,-451.23 98.68,-95.07 114.09,-47.25 249.56,34.34 60.22,36.28 100.58,58.15 153.15,98.11 81.69,62.09 362.32,347.92 448.75,435.33 50.69,51.27 150.56,134.35 219.6,161.96 127.15,50.84 180.32,45.02 317.91,45.02 46.78,0 41.67,-8.36 83.76,-9.3 -9.43,-35.32 -9.02,-22.81 -90.09,-68.12 -37.1,-20.75 -69.75,-32.05 -103.8,-54.4 -59.58,-39.12 -235.96,-212.69 -282.99,-266.08 -105.48,-119.79 -230.79,-271.74 -301.76,-414.81 -36.05,-72.68 -69.09,-141.01 -97.23,-219.18 -100.47,-278.95 -153.28,-430.25 -233.58,-715.64 -81.95,-291.22 -121.82,-477.75 -168.09,-781.14 -48.33,-316.97 -123.06,-460.87 -245.54,-703.69 -20,-39.65 -37.59,-62.32 -60.81,-97.38 -22.86,-34.5 -38.61,-74.04 -81.91,-85.6 0,67.37 18.61,78.4 18.61,139.6z"/>
   <path class="fil0" d="M1805.39 11213.91c0,532.15 81.38,415.22 -41.14,1066.28 -65.97,350.51 -148.15,688.52 -257.84,1017.11 -25.41,76.13 -55.4,155.86 -78.64,237.77 -32.04,112.91 -59.77,165.68 -59.77,293.86 0,164.04 288.49,105.67 288.49,269.88 0,274.66 -105.37,489.69 37.05,763.29 41.87,80.42 92.38,148.72 214.22,148.72l474.61 0c339.85,0 96.6,-274.22 5.51,-405.67 -204.89,-295.69 -340.53,-730.84 -340.53,-1129.84 0,-434.01 -6.67,-514.53 84.42,-957.87 19.27,-93.79 47.75,-205.18 74.87,-297.38 13.59,-46.19 25.36,-94.65 41.83,-144.29 114.22,-344.15 372.78,-696.07 598.15,-983.89 20.13,-25.71 27.98,-28.72 28.98,-73.39 -96.44,8.02 -42.09,46.53 -232.66,46.53 -235.79,0 -316.41,-54.86 -316.41,-325.72 -92.69,2.07 -399.12,156.5 -468.51,275.99 -27.99,48.22 -52.64,125.96 -52.64,198.63z"/>
   <path class="fil0" d="M13047.21 6542.22c142.97,0 566.14,-153.42 703.78,-198.92 139.38,-46.08 191.81,-69.99 320.06,-126.64 103.17,-45.56 195.37,-99.51 290.08,-156.61 51.6,-31.11 80.65,-50.58 126.44,-87.6 57.68,-46.63 78.99,-55.75 49.94,-138.67 -38.5,-109.91 -83.37,-219.63 -120.85,-325.98 -24.53,-69.58 -60.03,-73.74 -150.12,-73.24 -71.85,0.4 -150.77,4.68 -218.31,-5.03 -330.91,-47.58 -717.7,-64.76 -1026.49,63.54 -149.15,61.97 -159.27,152.08 -170,351.14 -4.95,91.85 5.1,168.5 -9.13,251.43 -39.38,229.39 -119.54,288.01 2.29,388.31 39.53,32.53 131.51,58.26 202.31,58.26z"/>
   <path class="fil0" d="M10013.42 1842.62c-110.31,0 -226.49,-34.47 -152.64,-152.63 19.29,-30.86 28.51,-26.47 62,-40.37 122.87,-50.98 143.05,-39.65 286.06,-39.65 135.33,0 208.24,140.8 3.57,198.99 -46.38,13.19 -147.99,33.66 -198.99,33.66zm-558.37 -120.98c0,65.18 54.12,349.83 64.44,484.62 17.92,234.15 -16.3,203.87 109.86,253.08 86.87,33.88 235.32,137.07 421.3,137.07 162.84,0 413.22,9.55 560.08,-35.51 80.16,-24.6 61.97,-105.05 84.43,-250.59 12.67,-82.1 67.9,-118.83 145.29,-180.43 87.21,-69.4 131.04,-85.64 47.82,-194.27 -47.45,-61.93 -90.58,-123.86 -138.31,-187.4l-291.14 -378.9c-104.1,-128.96 -136.89,-131.59 -277.88,-131.59 -100.92,0 -178.68,14.43 -257.1,40.7 -145.74,48.81 -391.63,156.26 -444.77,309.03 -10.22,29.37 -24.01,100.46 -24.01,134.2z"/>
   <path class="fil0" d="M14610.65 5602.3c0,135.14 48.72,222.78 131.76,277.71 102.23,67.63 215.42,38.7 361.48,38.7 151.47,0 138.14,111.67 362.94,111.67 77.91,0 177.47,-45.97 227.51,-79.59 138.43,-93.01 62.34,-343.54 120.71,-670.31 24.82,-138.93 61.87,-211.96 -66.51,-341.45 -29.48,-29.74 -42.88,-43.99 -88.48,-51.17 -17.62,-2.77 -41.88,-3.54 -60.25,-4.98l-179.52 2.84c-146.76,0 -221.35,-46.53 -418.78,-46.53 -236.39,0 -390.86,525.72 -390.86,763.11z"/>
   <path class="fil0" d="M10208.84 2726.7c-178.74,0 -232.13,6.24 -413.46,-23.93 -40.21,-6.69 -79.05,-11.52 -109.09,-21.19 -133.1,-42.84 -96.68,-105.22 -275.23,131.4 -24.46,32.41 -52.88,62.16 -46.02,114.29 5.82,44.23 17.09,112.94 37.46,140.47 58.86,79.56 418.99,114.95 573.7,114.95 320.95,0 907.47,-64.37 1197.54,-198.39 47.82,-22.1 96.02,-48.5 96.02,-108.71 0,-149.74 -161.33,-335.03 -279.19,-335.03 -72.67,0 -130.56,32.38 -189.51,52.45 -179.29,61.03 -388.01,133.68 -592.2,133.68z"/>
   <path class="fil0" d="M12051.46 5797.72c0,246.33 -22.58,580.49 154.93,682.62 148.22,85.27 340.78,106.88 428.42,-80.65 66.76,-142.85 90.28,-524.08 6.28,-670.46 -80.19,-139.74 -321.88,-116.14 -451.17,-90.84 -74.64,14.6 -138.46,76.16 -138.46,159.33z"/>
   <path class="fil0" d="M12433.01 4522.79c0,13.72 81.68,175.06 94.38,212.73 24.01,71.16 44.42,174.95 63.83,252.58 22.32,89.3 43.73,164.95 73.1,243.3 42.28,112.74 56.48,243.42 255.74,159.99 12.64,-5.3 27.61,-12.66 35.98,-19.86 58.21,-50.04 -8.77,-138.14 -56.47,-282.31 -36.69,-110.91 -145.91,-369.45 -199.69,-470.35 -92.98,-174.43 -266.86,-172.65 -266.86,-96.08z"/>
  </g>
 </g>
</svg>
