<?xml version="1.0" encoding="UTF-8"?>
<!DOCTYPE svg PUBLIC "-//W3C//DTD SVG 1.1//EN" "http://www.w3.org/Graphics/SVG/1.1/DTD/svg11.dtd">
<!-- Creator: CorelDRAW 2021 (64-Bit) -->
<svg xmlns="http://www.w3.org/2000/svg" xml:space="preserve" width="145.933mm" height="122.61mm" version="1.1" style="shape-rendering:geometricPrecision; text-rendering:geometricPrecision; image-rendering:optimizeQuality; fill-rule:evenodd; clip-rule:evenodd"
viewBox="0 0 13385.38 11246.11"
 xmlns:xlink="http://www.w3.org/1999/xlink"
 xmlns:xodm="http://www.corel.com/coreldraw/odm/2003">
 <defs>
  <style type="text/css">
   <![CDATA[
    .fil0 {fill:#231F20}
   ]]>
  </style>
 </defs>
 <g id="Layer_x0020_1">
  <metadata id="CorelCorpID_0Corel-Layer"/>
  <g id="_2113544857712">
   <path class="fil0" d="M3599.98 3671.79c0,141.19 99.41,37.82 159.16,-5.3 56.99,-41.12 111.9,-73.34 173.62,-109.62 168.58,-99.1 378.71,-183.57 574.72,-107.33 195.96,76.23 42.72,212.57 42.72,350.16 0,265.07 203.62,-61.49 345.84,-174.95l218.33 -201.96c141.32,-144.27 604.62,-445.39 833.75,-445.39 70.77,0 195.49,43.38 237.95,72.7 130.71,90.29 255.43,488.78 255.43,685.64l0.3 356.64c-1.47,48.99 -10.12,68.41 -9.44,127.61 1.82,157.73 -47.2,288.19 -103.06,426.86 -93.23,231.44 -161.61,314.11 -285.96,518.08 -69.91,114.66 -146.35,207.58 -221.44,317.62 -19.07,27.96 -30.88,50.33 -49.14,78.78l-257.13 409.85c-29.33,54.63 -53.8,135.39 -73.38,200.72 -89.3,298.09 -60.62,694.65 -60.62,1017.52 -24.88,13.16 -46.74,24.45 -82.23,27.41 -114.25,-170.61 -129.58,-420.34 -235.78,-595.66 -72.62,-119.87 -159.78,-273.78 -270.58,-359.85 -39.31,-30.54 -83.97,-76.94 -142.34,-76.94 -50.67,0 -91.42,68.07 -25.85,162.89 67.96,98.28 96.25,152.2 136.71,274.44 68.35,206.48 147.22,402.81 192.91,620.25 14.75,70.19 38.13,144.14 62.99,211.11 79.84,215.07 127.25,266.27 364.17,266.27 157.05,0 296.6,-156.73 359.7,-289.01 32.82,-68.8 33.39,-195.82 32.97,-295.95 -0.27,-63.7 9.85,-88.74 9.47,-154.99 -0.31,-54.9 0.07,-109.8 -0.25,-164.7 -1.35,-236.47 66.15,-357.65 146.2,-511.66 55.68,-107.14 132.44,-192.51 225.65,-267.72 12.61,-10.18 86.84,-70.21 94.25,-70.21 49.26,0 73.09,33.87 73.09,73.09 0,15.98 -132.05,108.43 -169.94,158.97 -38.13,50.84 -103.74,151.83 -123.83,214.24 -43.14,134.04 -16.88,475.34 -16.88,640.96 0,304.13 -26.31,415.19 -177.31,645l-273.99 429.53c-91.2,137.32 -215.31,246.38 -332.19,362.2 -33.71,33.41 -49.89,59.5 -82.07,91.51 -56.22,55.93 -118.55,116.41 -162.99,184.21 -102.93,157.03 -27.48,291.33 75.68,428.21 54.82,72.75 103.7,143.65 160.83,213.78 28.84,35.4 51.93,67.55 81.74,100.99l348.82 409.52c30.15,38.62 54.83,69.36 85.28,106.58 59.81,73.11 108.74,143.18 165.25,218.49 51.5,68.66 102.41,150.64 163.36,211.25 131.39,130.69 244.52,172.62 419.83,86.08 102.67,-50.69 85.1,-137.92 85.1,-243.82 0,-152.92 -101.26,-172.35 -214.04,-215.39 -56.89,-21.71 -95.77,-36.26 -145.36,-64.78 -104.33,-60.02 -269.67,-227.08 -319.81,-328.9 -105.7,-214.67 -115.68,-251.61 -115.68,-478.2 0,-162.44 12.95,-486.29 78.96,-615.41 35.11,-68.68 96.16,-148.12 152,-195.19 63.96,-53.91 144.32,-99.14 219.67,-136.68 44.48,-22.15 70.54,-39.46 112.64,-60.94l362.69 -167.25c167.37,-80.34 531.38,-253.33 652,-398.72 56.05,-67.56 103.32,-130.19 150.65,-205.68 44.6,-71.13 88.87,-146.15 126.13,-221.06 37.62,-75.66 86.58,-162.51 117.49,-238.85 18.12,-44.73 38.07,-77.72 54.83,-118.75 96.21,-235.54 175.36,-397.61 213.06,-664.07 34.11,-241.12 41.06,-705.29 -49.82,-931.1 -47.79,-118.73 -112.73,-215.47 -200.83,-301.69 -117.81,-115.31 -51.53,-146.35 -52.39,-294.56 -0.42,-72.79 -1.39,-147.11 -0.49,-219.77l9.5 -200.64c-0.04,-394.69 12.7,-722.25 -66.21,-1112.42 -14.35,-70.96 -31.76,-187.78 -58.92,-251.72 -45.19,-106.44 -102.49,-202.77 -75.88,-317 20.49,-4.77 21.01,-9.14 45.69,-9.14 79.33,0 218.54,363.79 251.97,451.55 72.67,190.75 186.11,639.05 205.13,863.86 23.66,279.62 8.87,766.62 8.87,1060.12 101.34,67.86 187.83,217.94 225.12,332.22 60.09,184.21 58.12,457.63 58.12,672.82 0,282.73 -48.89,489.96 -119.85,702.47 -34.11,102.16 -80.45,189.96 -121.57,289.58 -21.17,51.29 -43.8,94.41 -71,139.14 -77.14,126.87 -153.24,257.48 -247.76,373.53 -74.52,91.5 -221.78,253.41 -276.88,344.41 -33.5,55.29 -45.7,100.61 14.73,133.56 51.62,28.15 263.91,73.07 347.23,73.07 99.53,0 188.44,-26.36 270.26,-49.51 82.61,-23.37 148.71,-58.01 223.18,-96.61 102.13,-52.95 199.87,-122.4 285.53,-198.72l215.57 -186.45c20.7,-16.57 24.27,-17.98 44.75,-37.48l83.16 -72.16c31.61,-25.68 59.54,-48 91.33,-73.14 58.01,-45.88 134.21,-84.05 199.5,-120.29l316.6 -167.64c37.2,-18.6 76.01,-33.41 111.31,-53.15 74.4,-41.61 67.91,-168.06 77.99,-241.79l93.1 -555.6c51.34,-242.4 190.07,-451.67 315.78,-652.71 34.7,-55.48 86.1,-165.9 157.11,-171.81 90.2,85.56 -24.79,213.85 -64.12,365.3 -74.67,287.58 -155.16,752.97 -155.16,1050.89 0,272.61 143.41,1140.9 211.27,1360.24 59.75,193.09 138.36,380.48 227.29,558.46 43.78,87.61 91.15,166.24 134.05,258.82 110.05,237.51 110.87,259.83 94.04,508.34 -24.01,354.69 -140.14,499.82 -352.34,808.02 -23.08,33.52 -45.11,62.93 -70.47,93.99l-517.95 642.41c54.65,26.22 238.47,26.85 327.96,55.78 34.22,11.06 63.31,26.7 101.45,35.59 85.83,-81.4 1306.55,-1739.51 1306.55,-1772.52 0,-22.74 -28.23,-44.17 -43.44,-57.06 -66.63,-56.46 -111.88,-112.55 -111.88,-217.03 0,-339.22 126.2,-416.16 369.42,-562.53 92.21,-55.48 209.82,-103.49 286.33,-179.65 42.17,-41.97 72.95,-70.46 109.26,-119.15 156.38,-209.71 268.42,-586.49 302.35,-867.16 34.01,-281.3 32.69,-595.46 3.09,-876.94 -53.66,-510.29 -95.73,-633.39 -318.19,-1079.73 -27.35,-54.87 -50.76,-95.25 -81.39,-147.03l-89.04 -148.52c-29.2,-49.39 -58.31,-94.9 -88.45,-139.97 -110.89,-165.88 -173.54,-241.6 -317.37,-386.15 -146.7,-147.45 -363.94,-286.75 -529.77,-411.3 -134.91,-101.32 -283.97,-182.47 -435.18,-259.22 -32.56,-16.53 -43.3,-26.48 -75.88,-42.89 -32.29,-16.25 -49.88,-26.56 -76.66,-42.11l-299.35 -166.62c-144.3,-86.74 -296.87,-162.06 -432.61,-261.78 -48.12,-35.34 -84.06,-68.66 -131.78,-105.78 -172.15,-133.94 -318.35,-306.62 -472.24,-459.71l-263.8 -311.82c-19.88,-26.87 -34.41,-40.56 -53.58,-65.2 -102.18,-131.47 -219.14,-241.98 -340.34,-363.19 -40.03,-40.03 -73.29,-75.19 -114.02,-114.4l-246.77 -219.2c-21.84,-21.26 -40.5,-33.71 -64.32,-54.47 -137.95,-120.29 -446.63,-379 -587.19,-463.53 -250.87,-150.87 -498.11,-201.41 -849.31,-201.41 -443.94,0 -733.67,160.23 -1100.36,379.78 -155.44,93.06 -305.89,185.57 -447.66,292.41 -123.03,92.7 -301.56,227.98 -414.07,335.13 -21.32,20.32 -29.52,22.92 -50.11,41.27l-634.74 562.17c-96.24,80.45 -189.76,188.94 -279.08,278.26 -103.28,103.28 -222.68,188.49 -149.99,346.42 20.26,44.02 37.29,90.27 46.8,145.09 9.88,56.97 14.5,106.42 13.96,168.77 -0.33,38.83 4.98,62.4 6.84,84.61 2.83,33.82 -6.69,43.85 -6.69,88.83z"/>
   <path class="fil0" d="M3307.6 6275.75c-196.51,0 -122.4,-159.85 -98.52,-244.71 29.75,-105.67 65.52,-228 88.8,-340.63 25.75,-124.61 -15.46,-241.08 172.09,-52.14 118.63,119.51 125.9,469.68 27.08,552.81 -45.9,38.61 -109.52,84.66 -189.44,84.66zm-2010.07 -1032.45c0,353.75 90.92,416.66 222.95,608.49 199.47,289.82 145.32,49.43 310.46,-20.25 119.18,-50.29 201.48,-12.62 288.88,-12.62 51.14,0 120.86,-119.54 206.59,-168.03 90.22,-51.03 101.68,40.43 305.1,-69.51 29.13,-15.74 138.37,-91.38 164.43,-91.38 106.74,0 -5.22,159.87 -23.52,186.62 -29.39,42.98 -82.57,87.48 -150.08,87.48 -167.88,0 -193.72,-44.38 -283.46,72.87 -13.7,17.9 -25.61,32.9 -36.69,54.68 -41.44,81.44 -42.72,146.55 -164.09,146.55 -56.07,0 -246.69,-27.81 -246.69,109.64 0,73.94 56.45,129.78 98.28,166.68 108.47,95.68 222.96,144.54 320.72,218.35 40.55,30.62 118.79,88.82 147.53,126.57 21.02,27.61 35.32,39.08 56.76,71.16 179.66,268.88 157.59,398.88 196.26,479.86 58.1,121.68 179.34,220.26 248.43,23.65 18.26,-51.98 35.46,-93.4 71.34,-129.67 143.93,-145.5 303.58,62.95 552.1,166.09 92.41,38.36 470.94,127.51 549.89,-41.73 46.53,-99.76 14.01,-381.68 32.37,-552.37 6.49,-60.35 -2.61,-76.3 13.98,-132.22 27.48,-92.62 125.54,-222.49 193.64,-400.24 15.24,-39.77 26.54,-71.39 39.38,-106.81 74.66,-205.96 110.7,-316.35 110.7,-556.28 0,-172.73 -43.83,-410.23 -93.82,-536.61 -29.59,-74.78 -71.36,-129.49 -133.14,-177.5 -187.11,-145.38 -259.73,-142.93 -395.68,27.5 -227.07,284.63 -443.12,321.15 -793.54,321.15 -124.3,0 -179.49,-70.34 -200.5,-174.11 -10.53,-52.02 -38.6,-296.25 -18.78,-337.55 -29.14,-19.51 -35.89,-29.38 -73.13,-45.65 -224.03,-97.91 -239.95,-158.42 -369.03,-352.77 -43.17,-65 -31.34,-67.55 -87.77,-67.55 -358.6,0 -535.51,83.98 -765.21,312.93 -183.43,182.82 -294.65,430.35 -294.65,792.61z"/>
   <path class="fil0" d="M4221.27 4475.81c68.1,15.87 244.14,138.69 299.46,193.93 14.73,14.71 12.21,14.75 24.34,30.48 33.25,43.09 49.4,56.9 78.51,113.35 56.32,109.21 111.45,499.06 118.52,630.69l0.03 228.3c-2.56,43.37 2.62,80.99 -3.71,124.43 -5.54,37.94 -14.63,76.3 -14.63,113.29 98.35,65.86 455.81,343.84 465.97,465.97l18.27 0c2.31,-103.6 159.61,-541.32 197,-634.44 122.71,-305.56 385.63,-786.69 549.16,-1113.72 72.6,-145.19 204.05,-432.52 204.05,-636.52 0,-338.02 -46.83,-621.29 -420.28,-621.29 -345.56,0 -808.59,356.32 -1043.87,591.59l-397.53 424.78c-24.07,23.77 -57.69,62.88 -75.3,89.16z"/>
   <path class="fil0" d="M9840.35 7.97c0,84.31 67.27,119.51 120.99,180.51 16,18.17 16.12,22.81 32.11,40.98 88.19,100.14 174.99,150.88 200.74,338.33 83.72,609.43 -127.01,635.12 -236.42,937.25 -12.18,33.65 -22.33,71.42 -30.25,115.93 -30.01,168.71 -3.29,334.01 24.94,495.08 47.04,268.37 57.6,315.1 248.06,555.97 135.36,171.19 284.61,236.69 505.81,298.23l629.25 174.78c158.52,45.81 298.93,87.8 444.42,149.47 124,52.56 534.02,318.34 621.22,383.81 258.59,194.15 408.51,370.12 554.86,651.19 79.99,153.63 130.51,275.55 152.82,450.2 4.25,33.23 0.16,64.11 3.72,96.78 15.85,144.73 -5.72,507.97 -48.07,639.87 -26.69,83.16 -80.24,196.89 -130.46,271.55 -64.86,96.41 -243.1,309.86 -243.1,369.06 0,61.56 41.17,118.78 118.78,118.78 83.9,0 217.24,-172.54 259.56,-233.82 36.32,-52.59 64.23,-95.1 94.91,-151.79 132.4,-244.71 221.14,-727.88 221.14,-1012.3 0,-371.28 -228.52,-759.65 -381.82,-988.68 -53.95,-80.62 -173.63,-205.34 -248.59,-263.07 -32.2,-24.8 -60.25,-51.04 -95.24,-78.36 -131.54,-102.69 -267.47,-193.48 -413.55,-280.85 -192.55,-115.17 -239.08,-133.59 -464.97,-220.28l-512.06 -182.33c-88.99,-29.39 -164.77,-54.79 -253.62,-84.43 -315.41,-105.26 -608.71,-118.21 -608.71,-460.28 0,-92.6 63.32,-185.79 107.52,-239.68 66.17,-80.66 113.59,-102 178.2,-169 115.06,-119.34 207.67,-367.59 207.67,-541.54 0,-167.69 -53.19,-366.59 -92.45,-501.44 -44.74,-153.71 -91.53,-298.95 -193.03,-400.85 -101.46,-101.87 -83.04,-102.09 -223.3,-215.26 -31.54,-25.45 -55.14,-43.42 -87.61,-67.71l-134.06 -85.22c-18.08,-10.47 -29.07,-19.5 -52.53,-29.71 -65.05,-28.31 -199.28,-91.29 -276.87,-61.17z"/>
   <path class="fil0" d="M3572.57 8742.65c0,295.28 167.91,503.65 320.2,767.07 44.4,76.82 80.96,152.36 118.63,237.7 107.46,243.42 157.47,483.02 338.94,730.05 73.89,100.57 289.88,109.04 360.07,70.01 32.41,-18.01 96.18,-83.39 119.26,-118.3 53.33,-80.72 43.13,-236.75 -39.48,-309.34 -41.51,-36.49 -83.89,-56.72 -142.86,-76.41 -116.77,-39 -101.97,-39.52 -185.63,-143.3 -52.61,-65.25 -100.41,-117.72 -147.33,-190.73 -38.36,-59.68 -44.99,-80.72 -69.23,-150.05 -58.65,-167.75 -87.83,-259.36 -87.83,-432.96 0,-131.53 142.56,-382.09 225.95,-468.44l371.66 -341.01c121.72,-94.54 210.09,-139.36 302.89,-263.57 44.38,-59.41 87.7,-94.07 122.82,-160.43 -50.59,-33.87 -211.7,-79.25 -349.63,-216.85 -32.54,-32.47 -58.87,-71.12 -79.94,-111.93 -40.98,-79.39 -86.13,-165.35 -112.86,-261.75 -50.87,-183.48 9.51,-309.08 -24.06,-368.83 -38.43,10.26 -51.47,47.31 -71.86,101.74l-143.47 395.59c-102.4,254.27 -217.34,477.5 -385.58,683.41 -55.06,67.39 -107.57,126.03 -161.28,195.06 -52.01,66.85 -123.23,124.94 -169.94,186.39 -42.83,56.36 -109.45,149.66 -109.45,246.88z"/>
   <path class="fil0" d="M8844.45 8194.45c1.25,56.08 38.07,94.49 63.85,128.02 29.43,38.29 59.61,71.98 90.29,110.72 84.93,107.22 169.29,224.8 259.14,325.61 218.26,244.86 267.08,317.25 189.91,614.47 -37.66,145.09 -222.35,390.36 -331.27,491.03l-582.58 513.83c483.71,0 364.63,77.7 484.24,109.64 8.83,-33.09 180.9,-254.03 203.1,-281.15 53.6,-65.45 480.17,-524.1 538.17,-567.36 24.84,-18.52 51.61,-33.53 74.32,-53.59 190.37,-168.14 -20.68,-522.52 -66.61,-787.96 -55.75,-322.22 78.71,-445.36 -229.24,-547.37 -223.08,-73.9 -403.73,-65 -647.66,-65 -14.39,0 -34.62,4.84 -45.68,9.14z"/>
   <path class="fil0" d="M2576.66 2365.24c0,58.45 90.22,156.73 149.12,262.03 68.96,123.28 188.94,379.46 188.94,514.58 0,150.86 6.12,221.29 -37.5,373.65 -49.01,171.2 -137.51,281.17 -276.97,390.01 -18.69,14.59 -69.28,45.91 -69.28,67.78 0,65.92 141.42,213.18 184.9,253.66 89.88,83.69 331.24,191.11 462.83,92.55 34.53,-25.87 43.92,-39.46 68.76,-77.42 85.18,-130.19 151.49,-562.76 151.49,-725.62 0,-204.4 -140.35,-579.14 -251.81,-725.82 -91.01,-119.78 -428.78,-443.68 -543.08,-443.68 -14.95,0 -27.42,5.48 -27.42,18.28z"/>
   <path class="fil0" d="M0.12 4795.59c0,291.22 -10.6,416.83 170.89,660.55 132.94,178.54 316.33,198.16 570.52,224.38 253.65,26.16 358.61,16.61 422.4,-196.23 62.68,-209.15 -29.21,-301.69 -49.14,-387.19 -265.76,0 -505.4,-11 -696.62,-226.18 -37.97,-42.72 -63.4,-86.97 -89.3,-139.12 -58.78,-118.32 -36.78,-391.4 -36.17,-539.45 0.21,-52.39 -8.47,-69.48 -9.36,-109.43 -77.5,20.69 -172.49,206.09 -206.36,287.02 -46.32,110.69 -76.87,273.03 -76.87,425.64z"/>
   <path class="fil0" d="M8616.03 7902.08c65.38,0 144.17,10.73 202.4,16.88l403.23 35.34c333.85,42.31 365.98,39.41 679.61,197.51 39.42,19.87 110.91,61.13 149.22,70.06 -8.5,-102.17 -310.65,-648.29 -310.65,-1096.4 -126.97,10.57 -375.23,146.76 -487.98,224.68 -68.06,47.04 -207.59,156.24 -258.58,216.53 -59.96,70.89 -21.85,39.22 -109.87,127.68 -35.28,35.45 -90,77.01 -132.04,105.51l-104.8 68.79c-30.69,21.4 -21.19,7.61 -30.53,33.42z"/>
   <path class="fil0" d="M3134.01 4685.96c0,57.73 -8.21,107.24 33.81,148.93 91.1,90.38 382.58,-44.24 461,-101.81 103.87,-76.24 183.91,-164.91 274.99,-254.93l233.52 -287.28c37.45,-55.24 69.2,-105.86 101.95,-163.02 49.15,-85.79 123.59,-310.38 -36.28,-310.38l-100.51 0c-302.33,0 -968.48,730.78 -968.48,968.49z"/>
   <path class="fil0" d="M2914.72 7655.39c0,145.63 -0.04,235.41 121.16,335.67 99.5,82.32 350.72,75.48 481.87,75.48 110.19,0 278.05,-91.14 336.05,-148.21 25.5,-25.1 32.45,-39.09 54.69,-64.07 100.81,-113.17 139.19,-146.66 139.19,-281.1 0,-246.1 -309.9,10.82 -665.92,-119.84 -127.76,-46.89 -309.36,-185.39 -407.3,-39.71 -35.96,53.49 -59.74,155.83 -59.74,241.77z"/>
   <path class="fil0" d="M7674.95 11163.88c0,152.74 365.02,-118.78 429.42,-118.78 24.67,0 25.2,4.37 45.69,9.14 36.25,155.62 -21.79,191.87 173.59,191.87 154.02,0 445.2,-128.49 495.01,-263.34 29.98,-81.18 32.06,-236.01 -12.2,-310.84 -37.37,-63.18 -147.45,-138.48 -245.26,-138.48 -253.37,0 -707.49,327.26 -826.18,498.64 -18.64,26.89 -60.08,94.61 -60.08,131.79z"/>
   <path class="fil0" d="M7172.43 10332.44c0,-11.21 24.79,-91.37 118.77,-91.37 42.86,0 110.79,109.64 164.47,109.64 32.31,0 62.46,-31.36 61.51,-62.56 -5.63,-184.44 -527.48,-321.19 -627.99,-321.19 -57.72,0 -135.71,-7.76 -173.59,37.23 -41.88,49.75 24.48,91.8 27.45,209.41 1.43,56.26 9.54,73.04 9.37,127.68 -0.17,56.49 -8.39,82.61 15.46,121.6 55.2,90.22 301.22,247.01 398.23,296.16 85.64,43.39 139.18,38.49 159.43,-63.35 63.91,-321.42 -153.11,-217.64 -153.11,-363.26z"/>
   <path class="fil0" d="M813.28 6677.76c66.63,0 249.31,-211.34 331.61,-280.55 93.22,-78.39 358,-221.24 371.93,-240.24 -143.89,-33.52 -254.6,-204.56 -300.14,-339.44 -11.55,-34.19 8.59,-113.91 -162.14,-13.19 -356.72,210.44 -377.41,873.42 -241.26,873.42z"/>
   <path class="fil0" d="M4869.98 10012.66c14.69,55.04 100.81,78.01 109.54,191.98 17.17,224.46 -26.55,351.15 144.37,458.64 129.55,81.46 403.93,116.34 403.93,-29.32 0,-133.85 -54.14,-101.14 -108.61,-247.77 -72.14,-194.18 136.03,-72.98 136.03,-163.38 0,-60.24 -103,-146.57 -146.51,-173.28 -163.95,-100.68 -254,-82.55 -438.24,-82.55 -48.94,0 -80.74,16.17 -100.5,45.69z"/>
  </g>
 </g>
</svg>
