<?xml version="1.0" encoding="UTF-8"?>
<!DOCTYPE svg PUBLIC "-//W3C//DTD SVG 1.1//EN" "http://www.w3.org/Graphics/SVG/1.1/DTD/svg11.dtd">
<!-- Creator: CorelDRAW 2021 (64-Bit) -->
<svg xmlns="http://www.w3.org/2000/svg" xml:space="preserve" width="175.359mm" height="195.841mm" version="1.1" style="shape-rendering:geometricPrecision; text-rendering:geometricPrecision; image-rendering:optimizeQuality; fill-rule:evenodd; clip-rule:evenodd"
viewBox="0 0 19414.07 21681.6"
 xmlns:xlink="http://www.w3.org/1999/xlink"
 xmlns:xodm="http://www.corel.com/coreldraw/odm/2003">
 <defs>
  <style type="text/css">
   <![CDATA[
    .fil0 {fill:#231F20}
   ]]>
  </style>
 </defs>
 <g id="Layer_x0020_1">
  <metadata id="CorelCorpID_0Corel-Layer"/>
  <path class="fil0" d="M15193.61 16502.57c0,-60.17 167.16,-122.33 232.44,-122.33 129.52,0 287.38,107.83 372.17,166.09 68.29,46.91 239.49,226.39 239.49,311.01l0 61.17c-147.21,-3.28 -176.76,-168.19 -366.79,-293.8 -195.84,-129.45 -192.21,-48.72 -367.2,-48.72 -41.97,0 -110.1,-31.73 -110.1,-73.4zm-6336.79 -1394.58c0,42.19 -19.15,97.87 -73.39,97.87 -117.72,0 -134.57,-426.64 -134.57,-550.49 0,-868.89 817.69,-1710.64 1109.7,-2388.99 131.3,-304.98 237.76,-638.06 306.3,-965.95 50.54,-241.79 78.79,-110.64 88.68,-229.39 216.18,17.99 112.08,294.79 621.27,638.74 192.87,130.28 217.5,44.9 283.98,144.19 -13.94,59.83 -52.83,79.67 -108.05,99.89 -164.28,60.2 -319.32,41.2 -471.05,-34.6 -142.12,-70.99 -126.76,-102.01 -264.98,-102.01 -51.21,0 -84.93,116.04 -111.8,181.81 -102.14,250.08 -359.08,719.9 -505.16,962.82 -238.56,396.66 -673.26,908.2 -749.95,1317.46 -17.12,91.38 -11.07,174.37 -22.92,271.47 -15.31,125.5 31.93,438.1 31.93,557.17zm-1859.44 -7829.24c12.2,52.33 28.96,52.72 47.44,99.36l1024.36 2829.1c42.55,121.77 180.05,471.87 188.23,570.23l-1859.46 -12.22c-114.39,0.27 -179.17,-12.52 -293.56,-12.27 -102.44,0.24 -222.91,7.11 -305.85,-12.21 0,-132.25 80.19,-319.92 123.88,-451.08l1008.24 -2930.84c15.65,-59.46 6.42,-75.06 66.72,-80.08zm-5296.97 -12.23c37.59,161.3 224.1,715.26 276.75,873.17l810.44 2357.95c12.99,39.14 24,73.67 38.14,108.66 66.85,165.43 44.48,145.24 -73.26,146.7 -62.27,0.77 -75.58,12.53 -146.39,12.63l-795.64 -0.49c-56.83,3.07 -75.43,12.88 -146.46,12.59 -211.98,-0.87 -424.6,-1.34 -636.57,-0.13 -104.86,0.61 -187.62,-12.4 -305.66,-12.39 -111.09,0.01 -216.96,12.31 -293.6,-24.47 11.27,-135.46 794.6,-2328.63 903.7,-2656.16l278.99 -748.6c22.02,-53.96 24,-68.01 89.55,-69.47zm8673.33 -6238.92c0,383.64 232.44,400.01 232.44,574.96l-77.22 424.33c-5.92,39.28 -8,105.15 -15.5,155.78 -71.29,481.64 112.69,630.67 251.75,423.01 46.65,22.39 69.74,15 98.3,60.72 21.61,34.62 30.04,84.31 48.49,122.77 37.25,-3.1 110.02,-21.49 151.1,-32.39 268.27,-71.3 511.34,-127.85 803.12,-126.6 126.51,0.54 228.79,-12.27 366.96,-12.27 142.14,0 244.03,12.23 391.47,12.23 0,-125.21 -44.34,-178.03 -97.47,-269.53 -48.66,-83.77 -296.82,-579.55 -318.46,-672.42 -372.79,0 -471.68,-54.47 -718.44,-235.76 -96.83,-71.14 -125.66,-137.77 -125.66,-265.8 0,-130.54 165.6,-93.14 262.08,31.52 27.91,36.07 43.65,47.22 73.38,85.65 22.56,29.18 50.74,57.79 77.47,81.56 122.3,108.68 267.86,131.57 492.33,131.57 111.77,166.93 207.63,450.5 305.96,648.23 16.97,34.12 26.33,64.48 44.58,102.21 71.03,146.78 206.57,414.61 259.54,560.12 41.99,115.37 31.3,169.66 -96.3,169.66 -165.6,0 -151.15,-195.74 -415.93,-195.74 -156.08,0 -341.26,2.45 -480.45,21.11 -57.03,7.65 -143.06,11.8 -192.8,15.17 -320.8,21.69 -605.93,93.72 -912.26,164.26 -232.54,53.54 -475.92,84.1 -688.43,155.66 -381.64,128.52 -453.76,96.43 -857.75,96.43 -309.06,0 -571.44,110.1 -880.79,110.1 -424.52,0 -810.42,-73.4 -1235.56,-73.4 -653.09,0 -522.7,14.81 -1124.31,135.72 -475.65,95.59 -883.11,208.17 -1367.02,68 -294.25,-85.22 -305.98,-93.62 -603.67,-93.62 -480.19,0 -789.93,400.93 -559.03,828.17 37,68.47 118.97,128.26 188.01,166.74 260.08,144.99 489.99,66.14 515.52,194.01 33.57,168 -19.84,507.23 9.37,700.15 25.08,165.68 5.16,517.64 5.16,704.37 0,48.21 -124.54,-46.33 -264.1,-78.44 -475.84,-109.47 -926.48,25.54 -1277.25,274.2 -538.86,381.98 -743.53,700.02 -1399.95,188.82 -76.61,-59.66 -208.59,-225.34 -312.72,-201.08 0,200.45 120.72,316.01 230.83,454.23 75.42,94.69 149.23,191.87 237.28,276.51 108.93,104.7 27.42,211.21 -16.92,344.35l-587.53 1638.91c-56.78,151.48 -112.16,313.84 -167.95,468.18l-503.11 1405.27c-69.38,0 -81.27,9.2 -122.33,36.7 86.55,129.24 149.56,278.83 242.74,405.61 256.3,348.68 543.21,534.67 961.13,653.65 517.59,147.34 1220.31,-28.77 1619.27,-376.93 148.17,-129.31 276.07,-282.2 350.63,-469 21.72,-54.43 74.15,-183.61 61.15,-242.86 -12.74,-58.01 -66.75,-98.69 -107.84,-222.74l-819.62 -2422.18c-54,-161.97 -101.62,-330.09 -163.06,-485.3 -37.55,-94.86 -150.38,-405.43 -150.38,-510.21 114.81,-26.75 259.17,-29.22 368.84,-47.09 122.31,-19.92 215.14,-54.89 323.99,-91.93 212.61,-72.37 423.21,-164.54 654.86,-189.23 130.07,-13.87 255.15,-30.33 375.44,-12.57 106.85,15.79 221.38,76.8 291.91,136.27 208.38,175.71 291.74,461.84 345.96,498.14 35.59,-26.08 44.44,-78.52 69.05,-126.69 22.73,-44.47 49.5,-91.32 75.22,-132.74 123.93,-199.5 254.1,-297.94 497.01,-334.85 235.49,-35.79 535.86,-51.3 758.7,38.39 268.75,108.16 249.72,175.74 607.13,249.19 62.88,12.91 123.81,24.29 183.78,36.42 154.92,31.34 203.81,-7.77 133.64,160.4 -14.57,34.93 -25.1,81.52 -38.29,120.73l-241.66 675.84c-50.34,153 -110.68,295.15 -162.09,449.57 -23.47,70.49 -56.71,154.53 -82.43,223.39 -30.16,80.71 -51.79,153.28 -83.82,234.24 -205.62,519.93 -371.03,1055.44 -580.31,1572.74 -15.82,39.12 -30.15,102.25 -55.4,140.33l-65.16 57.17c3.72,166.85 228.59,457.01 357.66,596.52 427.57,462.13 697.25,504.46 1330.51,504.46 595.11,0 1022.22,-217.03 1335.21,-634.34 68.77,-91.69 206.18,-305.93 206.18,-454.41 0,-44.41 -36.57,-76.33 -61.15,-97.89 -36.4,-31.9 -35.99,-49.73 -56.09,-102.94 -31.07,-82.24 -55.17,-152.51 -83.01,-235.06 -187.79,-556.95 -396.23,-1100.39 -596.47,-1654.44l-510.46 -1410.14c-15.92,-42.61 -24.7,-74.39 -41.86,-117.18 -88.61,-220.97 -41.73,-198.68 115.2,-393.13 17.03,-21.1 16.94,-25.14 37.88,-47.74 143.04,-154.35 290.69,-296.87 290.69,-528.94 0,-227.81 -319.12,162.74 -548.65,246.51 -95.72,34.93 -245.59,54.77 -348.53,49.95 -164.19,-7.67 -216.08,-39.53 -330.23,-96.65 -229.83,-115.01 -429.9,-266.18 -656.58,-383.23 -219.91,-113.56 -312.56,-159.1 -587.13,-159.1 -118.19,0 -245.06,20.13 -347.55,43.91 -49.3,11.45 -109.34,27.42 -152.51,43.22 -67.8,24.82 -233.92,109.02 -233.92,-50.43l0 -1345.65c0,-56.82 110.59,-73.72 162.7,-94.2 194,-76.22 386.44,-190.32 606.86,-174.78 956.29,67.47 1785.67,391.32 2753.59,391.32 104.1,0 562.41,32.35 620.97,-53 30.29,-44.15 -26.66,-187.69 -41.18,-245.43 -23.47,-93.25 -35.46,-165.81 -49.25,-269.79 -12.92,-97.5 14.53,-226.94 105.6,-226.94 84.59,0 126.04,254.18 149.22,340.11 113.28,420.14 648.53,467.27 1025.18,467.27 120.96,0 211.43,-13.15 318.18,-12.11 51.71,0.51 440.27,-80.9 440.27,48.81 0,179.74 -61.34,328.32 -61.59,513.37 -0.74,574.3 -34.26,818.15 301.25,1302.14 60.61,87.43 69.5,56.14 79.56,189.57 6.13,81.33 11.1,158.75 11.07,258.07 -0.09,337.33 53.26,665.89 97.13,991.63 49.64,368.64 175.39,624.58 -100.67,949.89l-152.53 165.54c-155.2,176.25 -329.5,315.6 -458.11,520.54 -128.89,205.36 -234.84,424.79 -295.98,670.44 -23.65,94.99 -36.87,174.93 -76.45,253.86 -36.36,72.48 -80.18,122.6 -135.76,182.3 -24.85,26.7 -47.43,57.12 -71.32,87.72 -219.05,280.58 -394.31,578.57 -571.81,896.18 -269.96,483.05 -417.6,829.67 -556.47,1388.6 -140.44,565.24 -140.27,661.3 -469.62,1145.16 -150.95,221.77 -313.54,313.11 -359.44,619.2 -17.63,117.47 -13.47,518.34 -47,613.6 -32.65,92.72 -107.83,157.05 -164.38,227.08 -15.37,19.03 -24.69,26.49 -40.15,45.48 -27.49,33.76 -48.36,59.96 -75.16,96.1 -25.95,35 -46.04,57.77 -70.04,89 -24.48,31.85 -40.24,56.93 -66.2,92.83 -140.11,193.68 -260.7,391.81 -369.99,608.66 -74.01,146.85 -127.64,299.55 -182.94,465.43 -148.57,445.59 -376.59,1339.03 -563.27,1712.1 -109.35,218.55 -229.1,412.4 -363.66,614.99 -170.17,256.24 -368.12,494.97 -597.46,699.26 -234.95,209.29 -504.03,366.3 -788.22,508.5 -221.64,110.9 -473.64,230.11 -737.91,228.51 -213.02,-1.28 -418.99,30.14 -310.18,285.38 16.97,39.81 34.35,69.97 67.25,91.8 121.08,80.34 572.54,13.36 723.2,-7.01l924.6 10.68c88.35,9.91 210.81,20.09 307.73,22.57 205.75,5.25 395.99,49.04 611.54,49.04 370.36,0 403.82,-260.89 403.7,-587.2 -0.13,-346.79 65.94,-523.95 183.47,-819.64 45.86,-115.35 183.52,-377.46 183.52,-489.31 0,-93.74 -92.37,-685.06 73.4,-685.06 128.57,0 16.64,400.86 166.09,381.43 40.31,-5.24 65.15,-26.83 96.18,-45.76 214.17,-130.63 439.03,-303.22 621.81,-479.16 35.87,-34.52 61.37,-64.87 97.47,-98.27l184.2 -182.79c56.62,-67.73 123.61,-126 181.71,-197.52 264.42,-325.45 423,-549.28 504.93,-987.53 20.38,-109.05 31.46,-212.2 55.84,-311.14 123.64,-501.85 134.19,-650.85 416.03,-1076.42 145.47,-219.67 338.93,-403.67 523.25,-589.97l446.33 -483.39c38.53,-38.07 51.3,-61.18 85.42,-98.08 85.16,-92.07 307.52,-308.01 364.09,-382.13l1046.82 -1191.85c57.25,-76.37 104.43,-145.84 152.76,-226.48 337.47,-563.19 107.83,-819.11 221.42,-1014.13 52.81,-90.67 171.63,-114 255.07,-173.1 223.49,-158.32 376.85,-370.69 415.27,-649.02 9.78,-70.8 6.16,-129.75 14.57,-205.63 26.03,-235.06 -3.74,-552.92 -60.34,-775.11 -35.58,-139.72 -174.21,-425.54 -14.86,-425.54 178.29,0 270.99,251.71 305.86,391.43 126.84,508.15 144.97,1506.1 -318.09,1859.49 -55.51,42.36 -87.67,84.69 -150.11,131.25 -275.81,205.68 -338.76,123.18 -202.23,673.73 116.53,469.94 405.13,853.94 716.39,1204.2l301.73 371.1c20.26,28.08 31.33,41.25 51.24,71.1 126.28,189.38 222.04,402.19 299.89,617.6 117.56,325.27 199.99,712.56 372.32,997.8 63.3,104.78 119.07,173.65 188.75,263.88 35.1,45.45 70,69.82 106.59,113.6 127.03,151.96 480.06,481.62 664.21,485.72l66.33 728.84c54.75,390.37 141.85,734.87 336.67,1057.91 100.9,167.34 222.08,311.1 358.41,448.97 197.02,199.28 600.13,461.35 737.88,668.93 173.19,260.97 264.1,549.06 328.61,870.25 77.7,386.88 -84.14,985.46 153.79,1130.69 197.41,120.51 724.82,40.77 930.61,25.19 177.75,-13.47 333,-25.28 525.23,-25.28l820.11 0.49c177.61,-4.06 183.01,-67.15 183.01,-196.21 0,-175.53 -361.38,-77.13 -701.54,-240.42l-291.22 -173.65c-223.45,-166.07 -474.33,-304.7 -646.6,-527.79l-199.57 -277.52 -163.3 -313.81c-140.3,-277.94 -200.27,-631.72 -252.04,-934.57 -43.86,-256.57 -102.26,-536.72 -152.54,-789.42 -52.93,-266.09 -129.69,-491.84 -203.26,-738.7 -54.3,-182.21 -108.74,-360.75 -177.2,-532.31 -108.04,-270.73 -286.32,-496.61 -488.17,-698.46 -140.16,-140.16 -286.74,-258.95 -392.19,-427.43l-201.65 -385.55c-103.8,-240.31 -176.24,-468.69 -223.7,-730.49 -89.34,-492.89 -65.5,-1230.11 -195.58,-1688.34 -111,-391.02 -304.43,-798.84 -526.12,-1125.36 -92.11,-135.65 -168.99,-45.31 -276.02,40.22 -181.06,144.66 -110.87,145.65 22.1,409.44 25.68,50.96 41.73,95.59 65.04,142.93 118.61,240.83 221.91,461.86 310.75,729.06 157.86,474.77 239.92,979.06 239.92,1570.6 0,167.75 -15.39,391.01 -69.8,505.16 -67.27,141.14 -176.15,241.06 -346.12,241.06 -9.23,-39.6 -27.3,-55.06 -30.95,-101.06 -10.92,-137.66 226.68,-223.99 226.68,-865.37 0,-817.18 -185.79,-1226.63 -466.58,-1918.89 -34.49,-85.04 -236.09,-491.04 -316.34,-491.04 -77.31,0 -121.87,17.32 -190.79,41.65 -108.09,38.15 -360.47,80.69 -482.04,80.69 -55.79,0 -61.17,-41.25 -61.17,-85.63 0,-67.43 476.88,-167.15 624.64,-256.16 197.79,-119.18 343.46,-213.24 428.99,-451.8 42.46,-118.4 104.67,-335.76 108.54,-490.9 1.53,-61.15 14.56,-81.58 9.28,-130.82 -41.8,-389.77 -57.55,-444.9 -188.12,-840.27 -82.92,-251.06 -191.3,-473.72 -362.28,-665.31 -106.31,-119.14 -41.46,-217.57 69.39,-303.3 202.34,-156.48 544.15,-823.07 651.13,-1037.04 50.85,-101.69 165.67,-368.45 248.74,-424.09 47.51,11.07 59.77,27.07 83.71,63.1 22.09,33.26 39.59,52.93 51.78,95.01 15.6,53.89 15.99,198.49 24.67,269.09 22.52,183.03 -47.72,323.86 -79.74,497.3 -140.56,761.19 -119.98,1557.68 -56.58,2330.17l26.89 548.06c38.13,342.16 59.01,692.47 147.52,1014.64 40.75,148.33 96.58,290.67 152.97,434.23 111.58,284.13 78.68,558.52 150.31,730.49 77.81,186.82 188.74,207.35 327.56,70.57 154.14,-151.88 174.05,-401.57 174.05,-633.35 0,-277.85 -256.89,-490.1 -256.89,-733.99 0,-101.18 20.28,-178.85 41.51,-264.32 24.07,-96.86 53.77,-157.75 79.51,-238.56 49.63,-155.79 89.39,-334.29 122.62,-501.26 191.43,-961.52 245.69,-1223.73 245.69,-2249.9 0,-98.38 -9.24,-205.51 5.16,-300.67 15.1,-99.79 35.01,-339.87 -37.51,-425.44 -34.91,-41.21 -57.82,-33.64 -126.31,-32.73 -89,1.18 -245.03,7.58 -245.03,-73.02 0,-98.3 275.21,-76 340.04,-149.29 89.44,-101.13 149.29,-523.18 149.29,-682.56l0 -513.79c0,-267.97 -24.48,-514.66 -24.48,-782.92 0,-471.39 132.69,-850.56 -31.9,-1350.45 -132.55,-402.65 -460.04,-699.8 -857.44,-855.2 -71.28,-27.88 -149.95,-42.67 -213.42,-67.95 -110.28,-43.94 -160.18,-228.55 -392.64,-463.68 -92.82,-93.88 -204.12,-173.15 -309.86,-252.87 -164.14,-123.76 -340.83,-235.12 -523.07,-333.25 -212.14,-114.24 -363.14,-177.34 -407.48,-449.01 -14.06,-86.12 28.61,-420.39 41.16,-512.54 16.66,-122.25 12.42,-425.36 2.71,-546.53 -32.81,-409.95 -180.61,-739.37 -465.74,-953.3 -163.15,-122.41 -409.77,-221.71 -634.62,-221.71 -623.13,0 -1016.03,59.37 -1513.55,431.53 -187.17,139.99 -431.53,341.1 -431.53,596.06z"/>
 </g>
</svg>
