<?xml version="1.0" encoding="UTF-8"?>
<!DOCTYPE svg PUBLIC "-//W3C//DTD SVG 1.1//EN" "http://www.w3.org/Graphics/SVG/1.1/DTD/svg11.dtd">
<!-- Creator: CorelDRAW 2021 (64-Bit) -->
<svg xmlns="http://www.w3.org/2000/svg" xml:space="preserve" width="177.395mm" height="216.297mm" version="1.1" style="shape-rendering:geometricPrecision; text-rendering:geometricPrecision; image-rendering:optimizeQuality; fill-rule:evenodd; clip-rule:evenodd"
viewBox="0 0 17044.17 20781.87"
 xmlns:xlink="http://www.w3.org/1999/xlink"
 xmlns:xodm="http://www.corel.com/coreldraw/odm/2003">
 <defs>
  <style type="text/css">
   <![CDATA[
    .fil0 {fill:#231F20}
   ]]>
  </style>
 </defs>
 <g id="Layer_x0020_1">
  <metadata id="CorelCorpID_0Corel-Layer"/>
  <g id="_2066063768400">
   <path class="fil0" d="M9215.47 2163.37c-68.77,0 -121.69,4.51 -121.69,-94.65 0,-147.75 297.46,-163.39 297.46,-54.08 0,94.33 -38.83,148.73 -175.78,148.73zm-621.97 -743.66c0,403.5 580.71,-7.97 968.12,73 145.7,30.47 82.56,165.49 334.02,301.47 92.82,50.19 134.99,42.87 266.82,44.16 273.83,2.66 242.74,28.79 229.33,189.82 -158.96,0 -148.88,-81.13 -256.9,-81.13 -190.79,0 -78.16,60.45 -329.78,-21.76 -176.31,-57.6 -119.64,-93.39 -199.5,-219.66 -98.64,-155.97 -317.34,-100.27 -486.06,-84.35 -80.4,7.59 -123.99,22.98 -188.04,28.31 0,75.47 -14.4,81.47 -14.4,148.74 0,66.4 14.02,73.91 14.63,148.5 2.01,244.76 43.75,387.88 -52.21,624.29 -102.95,253.63 -185.68,311.53 145.61,377.52 21.16,4.21 52.97,9.55 77.05,17.59 86.9,29.03 82.9,107.79 86.37,197.58 2.91,75.35 10.67,282.78 29.63,348.95 55.28,192.86 441,174.61 498.16,111.5 36.88,-40.72 31.3,-153.92 144.41,-261.22 104.02,-98.68 232.61,-181.48 355.7,-252.75 62.38,-36.11 242.95,-91.76 242.95,-176.2 0,-188.7 -134.17,-303.63 -94.65,-473.23 115.48,-26.91 121.97,-8.61 171.72,112.2 72.09,175.03 152.78,302.81 152.78,523.28 0,56.63 -126.86,80.63 -171.95,98.47 -584.99,231.63 -514.81,462.35 -719.99,632.12 -128.75,106.52 -596.1,2.01 -964.29,130.91 -125.72,44.01 -246.94,124.94 -330.93,209.92 -89.59,90.66 -178.28,190.18 -233.14,307.7 -238.14,510.11 83.44,369.18 -662.91,432.31 -402.29,34.03 -847.69,221.1 -1132.06,503.98l-277.11 263.73c-47.18,47.18 -86.7,90.67 -135.04,135.38 -116.24,107.51 -316.37,302.15 -438.43,372.83 -200.39,116.03 -321.5,41.6 -450.74,103.62 0,86.44 -10.52,122.6 -14.06,189.69 -8.23,156.58 32.25,402.41 104.14,531.49 23.9,42.9 54.05,82.89 83.35,119.46 147.71,184.32 465.99,159.93 691.91,159.93 152.91,0 300.38,-49.29 407.57,-92.71 129.33,-52.37 232.02,-91.33 392.06,-108.22 356.93,-37.69 552.53,45.16 922.71,-77.85 233.32,-77.53 500.46,-169.16 705.76,-294.8l211.79 -153.28c91.06,-81.66 248.47,-277.79 361.78,-287.22 88.36,379.24 323.99,824.79 770.71,824.79 234.9,0 384.21,-74.68 562.03,-181.63 58.54,-35.2 104.61,-61.76 156.69,-100.2 104.98,-77.5 179.51,-136.38 271.7,-228.59 353.35,-353.45 657.85,-696.48 819.68,-1181.42 55.43,-166.08 72.41,-363.36 163.98,-363.36 43.8,0 81.12,58.76 81.12,108.17 0,16.62 -46.07,90.41 -58.87,116.91 -122.98,254.59 -225.07,793.39 -225.07,1072.95 0,196.82 11.7,388.1 116,546.52 151.66,230.38 361.9,183.61 614.14,183.61 373.47,0 603.87,-234.07 759.25,-457.65 123.8,-178.13 198.25,-421.43 304.46,-614.97 154.92,-282.33 205.19,-69.25 22.59,293.01 -71.46,141.77 -312.5,539.89 -324.07,649.18 -10.6,100.09 138.81,226.04 215.35,261.59 59.67,27.72 108.83,33.98 176.27,53.59 238.62,69.38 171.92,5.29 200.23,286.53 45.98,456.9 438.83,529.29 836.33,529.29 169.21,0 332.12,-118.8 405.91,-216.06 164.31,-216.55 322.2,-674.47 262.28,-965.92 -73.48,-357.42 -223.53,-368.73 -461.4,-485.09 -238.7,-116.78 67.77,-611.94 -460.34,-1135.14 -31.14,-30.85 -45.72,-44.81 -70.96,-77.77 -110.54,-144.38 -175.77,-181.3 -175.77,-392.12l-0.23 -256.66c-14.62,-307.66 -138.85,-593.26 -334.51,-814.78 -526.05,-595.59 -1426.27,-351.67 -1554.98,-459.66 -208.93,-175.29 -395.32,-562.39 -395.32,-835.08 0,-390.25 483.91,-354.82 201.37,-1242.49 -64.74,-203.37 -161.83,-375.87 -284.33,-540.45l-122.97 -147.45c-325.14,-328.84 -668.29,-503.39 -1200.26,-503.39 -259.59,0 -480.72,39.34 -686.9,97.33 -341.77,96.13 -700.93,386.56 -872.46,695.98 -94.33,170.16 -157.82,368.81 -157.82,626.41z"/>
   <path class="fil0" d="M9688.71 7423.06c-370.14,0 -616.31,-68.04 -765.17,-397.64 -38.59,-85.43 -45.89,-187.85 -86.65,-264.89 -301.41,159.48 -588.59,268.49 -951.18,373.9 -303.81,88.33 -667.41,156.09 -996.18,166.62 -88.78,2.85 -81.43,5.08 -134.89,40.89 1.45,65.35 45.62,210.01 67.4,257.1 92.74,200.55 412.55,324.3 649.21,324.3 358.05,0 366.34,-81.13 567.88,-81.13 162.92,0 162.25,243.32 162.25,378.6 0,286.23 -188.16,636.73 -328.84,888.06l-121.99 229.55c-22.65,41.44 -41.31,73.11 -63.64,112.14 -93.6,163.62 -220.52,286.25 -162.26,488.08 43.31,150.08 135.9,58.49 135.9,296.81 0,111.04 -249.51,192.34 -342.54,238.87 -199.71,99.89 -351.6,210.3 -521.07,344.28 -468.95,370.72 -1089.43,1403.94 -1277.96,1940.05 -79.09,224.92 -131.3,457.97 -176.09,689.25 -37.63,194.41 -118.07,214.07 -272.68,308.74 -368.27,225.53 -530.41,378.66 -659.69,814.11 -111.88,376.82 4.16,811.78 -149.07,1013.74 -88.86,117.13 -185.24,182.67 -269.51,325.42 -146.26,247.77 -288.25,489.04 -410.32,752.48l-793 1532.63c-242.34,433.01 -413.12,916.4 -783.1,1258.59l-162.15 135.31c-302.61,246.78 -707.33,540.22 -1090.38,667.36 -116.9,38.81 -801.93,232.01 -750.22,395.12 38.11,120.23 301.68,130.48 464.56,130.48l1947.03 0c244.39,0 355.84,-58.62 400.11,-303 89.38,-493.56 45.97,-416.49 216.04,-838.61 38.51,-95.6 264.32,-724.3 343.85,-724.3 39.82,0 42.42,27.81 59.14,62.56 20.62,42.88 26.37,52.33 49.04,86.17 40.16,-10.72 51.2,-26.6 86.7,-48.5 91.8,-56.62 194.69,-104.85 278.37,-167.82 54.9,-41.31 105.58,-79.69 160.46,-123.47 161.39,-128.76 340.17,-246.49 485.07,-393.79 32.12,-32.66 39.65,-35.47 73.08,-62.14 156.55,-124.89 371.36,-377.69 501.29,-526.32 43.19,-49.41 85.7,-104.1 124.11,-159.84 180.12,-261.43 413.71,-736.11 413.71,-1060.07 0,-118.43 -54.99,-253.93 -110.85,-321.82 -123.75,-150.38 -236.45,-151.41 -429.99,-151.41 -179.18,0 -320.52,40.57 -500.28,40.57 3,-134.7 169.82,-212.64 269.81,-257.5 122.07,-54.79 271.86,-116.95 421.86,-69.12 346.69,110.55 406.19,562.37 567.94,451.49 63.43,-43.48 248.95,-429.59 283.69,-515.09 124.12,-305.48 277.08,-611.76 508.51,-843.59 248.7,-249.1 587.83,-452.61 872.11,-736.89 66.94,-66.95 142.48,-130.28 201.45,-204.19 26.45,-33.16 29.62,-41.2 62.04,-73.17l486.43 -581.74c94.34,-127.18 423.03,-540.14 423.03,-658.65 0,-93.09 -243.33,-52.06 -461.51,-119.89 -274.39,-85.31 -555.53,-210.77 -732.6,-430.21 -66.34,-82.21 -130.8,-170.88 -180.16,-266.04 -18,-34.69 -28.31,-76.26 -72.47,-76.26 -144.08,0 -228.33,138.25 -305.29,235.57 -83.27,105.32 -157.36,197.2 -232.88,307.96 -40.85,59.92 -68.43,98.6 -108.2,162.22l-408.21 687c-18.06,34.97 -29.92,48.63 -49.72,85.49l-139.55 266.08c-240.9,485.75 -311.09,588.4 -311.09,1230.32 0,120.14 56.96,331.78 -98.04,152.16 -281.37,-326.07 52.72,-1089.55 183.68,-1351.03 75.6,-150.95 145.43,-279.92 220.65,-428.36l473.3 -838.23c122.34,-224.73 364.72,-553.75 562.2,-735.81 91.47,-84.32 269.13,-263.66 388.9,-273.64 79.76,342.33 127.55,650.44 427.15,857.35 574.88,397.04 1459.87,515.5 1962.1,-77.11 42.1,-49.67 98.66,-145.33 130.48,-207.54 292.51,-571.92 230.73,-1409.73 -91.79,-1945.98 -30.5,-50.72 -52.5,-84 -83.14,-133.2 -59.21,-95.05 -89.87,-133.35 -13.46,-232.01 28.49,-36.78 29.73,-39.6 54.32,-80.9 35.6,-59.75 63.31,-100.39 97.99,-158.91 192.56,-324.87 407.18,-630.93 599.93,-954.99 63.68,-107.07 125.38,-213.86 189.22,-324.59l278.91 -505.31c88.12,-157.79 234.19,-353.09 234.19,-550.03 0,-77.87 -11.9,-215.37 -78,-208.9 -40.32,3.95 -128.22,114.72 -162.11,144.56 -32.67,28.78 -47.25,35.54 -81.01,67.72 -285.15,271.76 -760.2,523.94 -1166.19,523.94z"/>
   <path class="fil0" d="M4645.35 3637.17c-101.18,0 -57.06,-182.24 -484.24,-65.08 -273.97,75.14 -272.95,149.81 -272.95,-151.26 0,-134.05 50.62,-338.31 78.37,-448.95 36.33,-144.9 74.09,-273.42 126.17,-401.15 65.08,-159.66 290.78,-556.08 512.07,-556.08 128.9,0 261.59,42.13 319.2,127 157.27,231.64 41.23,1008.04 -121.86,1273.7 -34.54,56.26 -38.61,54.08 -67.86,121.45 -15.66,36.07 -47.45,100.38 -88.91,100.38zm2623.09 -851.83c-121.36,0 -324.5,-187.47 -324.5,-243.38 0,-120.43 334.33,-433.1 440.32,-506.15 221.85,-152.92 261.96,-110.12 393.79,-3.46 176.19,142.54 139.79,198.83 -22.85,320.31 -89.27,66.67 -175.45,127.38 -243.39,216.34 -26.61,34.86 -41.77,45.15 -70.85,77.87 -44.89,50.52 -85.68,138.46 -172.52,138.46zm-5300.26 4516.03c0,435.09 23.96,843.51 102.45,1263.19 124.9,667.87 343.75,1198.87 343.75,1954.83 0,801.43 -283.63,1352.38 -603.76,2019.32 -344.44,717.6 -653.69,1219.84 -653.69,2104.6 0,470.03 128.38,826.04 258.47,1215.32l349.98 839.89c33.46,66.92 63.97,127.43 99.13,198.33 67.34,135.78 140.33,251.06 216.08,378.84 105.86,178.57 347.53,571.76 509.58,680.28 288.63,-431.02 49.6,-235.17 -302.01,-928.41 -198.1,-390.58 -369.86,-682.8 -530.59,-1105.46 -161.74,-425.32 -330.21,-861.6 -330.21,-1332.87 0,-319.9 44.7,-678.76 106.9,-988.31 62.19,-309.46 162.29,-557.54 302.99,-792.21 446.75,-745.07 721.84,-955.38 853.58,-1877.68 18.51,-129.63 14.13,-258.05 20.96,-384.66 3.23,-59.71 13.31,-65.71 14.44,-134.93 1.59,-95.97 -15.27,-149.66 -14.33,-257.17 4.17,-472.2 -215.96,-1149.89 -303.23,-1616.75 -92.38,-494.22 -98.02,-1126.75 -47.12,-1654.05 8.83,-91.45 18.24,-325.75 106.92,-325.75 60.63,0 51.17,123.9 54.34,189.05 29.4,604.36 67.48,988.26 229.6,1568.69 164.68,589.58 195.19,827.52 242.65,1420.43 3.5,43.66 -2.16,88.5 2.71,132.5 46.8,422.54 -37.82,939.47 -145.84,1304.89 -128.1,433.36 -292.38,820.39 -432.47,1244.13l-206.17 632.14c-75.65,227.84 -148.29,413.44 -185.46,666.37 -83.22,566.23 -42.43,1191.02 127.88,1740.43 181.59,585.79 404.49,977.2 764.66,1479.85 19.83,27.68 37.28,52.37 58.17,77.04 31.24,36.87 36.19,48.96 98.38,50.36 61.75,-231.25 202.32,-157.25 -43.66,-456.62 -180.57,-219.77 -339.74,-438.77 -447.14,-715.67 -72.03,-185.71 -133.96,-389.76 -182.72,-587.98 -237.82,-966.91 -31.25,-2126.92 289.7,-3044.93 27.33,-78.19 53.24,-137.49 81.29,-216.16l409.13 -1078.19c95.37,-262.19 96.21,-504.66 96.21,-796.18 0,-537.47 -106.3,-1335.13 -201.63,-1813 -56.93,-285.35 -99.57,-554.55 -142.37,-858.19 -86.33,-612.5 -70.46,-1377.23 68.19,-1985.46 59.22,-259.82 142.56,-487.72 289.01,-698.02 23.33,-33.51 37.32,-55.49 81.46,-67.28 84.38,126 -54.08,299.05 -54.08,594.93 0,890.32 44.53,1029.91 246.07,1849.7 177.51,722.09 281.26,745.2 281.26,1584.65 0,322.04 -54.26,670.43 -109.3,945.34 -156.88,783.54 -309.24,928.67 -507.98,1614.82 -212.08,732.21 -125.46,1609.34 54.8,2329.04 34.19,136.44 63.38,268.56 104.42,395.86 158.82,492.74 248.83,787.47 519.74,1238.01 37.38,62.15 57.84,105.15 114.09,142.81 36.42,-19.27 39.89,-18.69 73.13,-48.57l58.51 -63.17c41.73,-52.13 60.93,-120.06 45.25,-185.88 -30.52,-128.11 -93.44,-238.61 -149.86,-351.39 -233.97,-467.8 -406.11,-981.44 -496.59,-1504.52 -86.18,-498.23 -98.33,-793.4 -98.33,-1294.34 0,-644.55 233.95,-1283.19 459.73,-1852.37 141.31,-356.23 121.68,-737.46 121.68,-1135.79 0,-1167.09 -459.72,-2400.3 -459.72,-2934.06 0,-236.12 11.56,-489.07 44.49,-712.7 27.19,-184.7 60.71,-327.9 119.58,-488.87 69.34,-189.61 81.53,-511.04 222.3,-670.08 64.84,-73.26 116.3,-69.83 208.56,-48.34 0,175.06 -75.19,292.5 -118.85,449.03 -58.51,209.77 -83.96,381.04 -83.96,619.13 0,312.41 47.5,637.86 92.65,907.9 49.39,295.39 101.41,566.59 158.57,855.52 177.03,894.92 276.1,1053.14 276.1,2035.99 0,920.83 -419.46,1792.94 -365.13,2798.93 3.31,61.36 14.1,73.81 14.04,148.22 -0.1,103.94 3.73,207.67 16.8,307.7 48.45,370.7 79.57,748.45 197.36,1100.67 27.67,82.74 51.97,164.28 82.68,241.82 33.95,85.72 54.26,159.71 135.39,202.64 256.99,-135.98 177.67,-178.99 120.23,-458.26 -40.36,-196.24 -77.78,-417.47 -106.02,-624.13 -40.3,-294.92 -91.18,-704.72 -82.27,-1000.29 2.09,-69.24 14.33,-83.16 14.43,-161.35 0.68,-498.81 109.61,-971.08 177.65,-1458.39 178.64,-1279.38 156.31,-1892.16 -140.25,-3150.06 -141.01,-598.07 -356.32,-1699.89 -197.45,-2285.09 73.91,-272.22 259.56,-455.52 527.18,-527.45 404.56,-108.76 915.24,-68.91 1157.7,311.04 62.9,98.57 135.16,233.44 180.46,346.86l97.05 295.05c22.97,65.01 18.94,39.87 49.58,85.64 113.62,-9.45 260.99,-164.08 373.88,-221.05 292.55,-147.67 577.18,-231.01 914.28,-275.58 88.06,-11.64 215.76,17.07 268.27,-29.19 76.61,-67.5 114.37,-621.39 902.54,-909.29 35,-12.79 67.53,-23.09 117.71,-31.03 207.85,-32.96 46.42,23.12 46.42,-575.54 -80.19,-42.43 -163.76,-47.35 -261.92,-76.11 -293.54,-85.98 -212.8,-148.05 -135.09,-374.99 29.12,-85.08 45.3,-150.92 78.13,-232.85 107,-267.07 278.84,-591.68 -64.25,-758.27 -68,-33.01 -94.92,-46.8 -140.69,-102.68 -131.67,-160.77 52.09,-217.01 -259.37,-240.92 -155.69,-11.95 -90.15,-6.19 -231.14,0.79 -157.13,7.76 -295.74,37.7 -417.03,83.25 -356.86,134.01 -660.71,319.44 -898.46,602.39l-317.85 425.8c-108.2,167.61 -117,114.63 -338.55,90.25 -131.44,-14.46 -450.9,-150.7 -495.1,-262.08 -86.9,-218.93 76.77,-416.15 -225.08,-775.48 -191.24,-227.68 -467.43,-208.53 -724.77,-106.05 -377.97,150.51 -549.83,418.31 -715.83,771.5 -52.41,111.51 -94.34,242.24 -134.82,365.45 -106.72,324.8 -148.73,738.53 -152.87,1091.07 -1.37,116.73 -134.31,210.63 -213.46,286.82 -127.64,122.86 -273.92,234.22 -382.27,374.91l-299.98 430.15c-432.84,716.84 -700.55,1702.68 -700.55,2558.02z"/>
   <path class="fil0" d="M10594.62 12588.11c-483.6,0 -719.13,-81.13 -865.35,-81.13 2.8,125.29 592.31,1198.52 720.79,1429.07 137.63,246.98 188.18,269.43 364.31,433.43 45.48,42.35 99.22,80.43 151.11,119.32 157.61,118.15 482.73,343.8 737.88,343.8 249.41,0 447.73,-22.56 611.4,-267.47 262.86,-393.33 116.35,-1071.17 1.76,-1467.93 -40.49,-140.18 -78.94,-255.44 -118.58,-395.22 -35.62,-125.57 -104.81,-277.1 -115.98,-411.34 51.64,4.29 62.09,21.27 89.57,59.16 26.2,36.14 40.54,65.26 59.27,102.99 237.43,478.16 446.08,1241.58 446.08,1784.88 0,362.22 -180.72,680.99 -469.05,801.93 -291.48,122.25 -377.82,63.41 -545.04,63.41 -10.09,15.08 -40.57,45.48 -40.57,54.08 0,123.2 122.22,317.63 194.72,413.74l193.75 211.89c57.11,54.97 285.19,266.77 355.2,266.77 113.01,0 112.37,-62.25 127.42,-102.44 52.24,-139.46 259.51,-343.76 386.38,-343.76 247.17,0 478.19,110.96 684.08,235.35 163.23,98.63 340.95,242.95 451.81,386.5 163.13,211.23 191.57,274.2 306.33,518.45 226.78,482.67 170.24,763.3 126.6,1266.82 -8.27,95.41 -19.09,181.51 -33.27,277.72 -61.23,415.46 -63.78,364.23 141.7,708.31l229.36 352.04c75.81,114.17 142.99,230.86 218.79,349.09l238.92 342.5c195.13,244.02 231.95,268.55 583.27,268.55 112.63,0 188.33,-13.85 283.49,-13.99 153.29,-0.21 707.55,11.07 817.04,-48.3 105.95,-57.44 116.37,-156.6 116.37,-248.7 0,-113.09 -134.63,-165.96 -216.49,-202.66l-737.8 -316.84c-229.24,-134.75 -434.19,-263.26 -564.72,-503.44 -55.17,-101.51 -90.59,-167.36 -138.37,-280.78 -43.02,-102.11 -84.59,-211.91 -113.87,-318.8 -117.76,-429.79 -394.04,-1126.15 -585.95,-1536.85 -48.87,-104.59 -86.16,-192.32 -134.94,-297.72 -20.96,-45.28 -48.04,-87.45 -74.06,-128.77l-479.65 -588.5c-177.92,-183.19 -203.98,-262.18 -459.37,-487.11l-213.09 -206.06c-153.09,-199.04 -173.87,-206.27 -228.07,-529.11 -77.6,-462.23 -124.65,-1014.74 -263.6,-1440.06 -36.52,-111.81 -69.77,-202.91 -108.29,-310.86l-395.89 -888.61c-37.37,-74.26 -257.02,-469.1 -356.24,-495.6 -75.18,55.09 -19.18,158.82 -186.66,435.3 -160.46,264.89 -245.63,386.04 -543.09,538.6 -187.94,96.39 -402.15,148.36 -649.39,148.36z"/>
   <path class="fil0" d="M11987.29 7328.41c-285.76,0 -279.29,5.62 -531.93,-117.8 -124.32,-60.73 -112.21,-1.58 -229.58,208.12 -61.8,110.42 -109.79,220.69 -174.06,326.23 -32.65,53.62 -52.68,100.85 -86.33,157.04l-449.35 808.11c-64.13,106.37 -131.25,204.88 -191.27,309 -237.75,412.41 -112.64,539.8 48.43,1018.59 127.73,379.71 183.23,945.4 67.24,1355.11 -34.99,123.59 -88.47,228.96 -154.64,318.59 -163.83,221.92 -294.53,291.28 -502.45,430.51 29.33,125.91 140.71,154.41 258.22,187.98 307.72,87.92 696.54,67.11 994.33,-30.65 348.08,-114.27 486.59,-266.53 627.04,-616.89 167.33,-417.43 113.05,-885.79 34.72,-1319.53 -98.52,-545.53 -336.19,-710.52 -446.5,-1014.44 -52.85,-145.62 109.78,-251.08 273.04,-414.35 32.49,-32.5 55.13,-56.01 87.62,-88.15l480.7 -438.73c37.36,-34.93 44.28,-58.09 80.45,-95.33 229.99,-236.8 571.51,-745.41 571.51,-1091.58l0 -81.13c-123.98,2.77 -250.59,80.84 -356.41,116.83 -115.74,39.37 -252.16,72.46 -400.77,72.46z"/>
   <path class="fil0" d="M12609.26 16265.84c0,459.56 -24.39,712.77 198.47,1113.07 230.43,413.89 569.4,724.38 995.88,937.62 697.59,348.8 533.16,-150.98 536.64,-698.89 4.49,-707.47 -349.81,-1474.6 -1066.73,-1732.13 -222.91,-80.06 -329.12,-119.97 -539.79,-63.1 -49.42,13.35 -74.47,41.74 -91.56,97.74 -23.81,77.99 -32.91,246.97 -32.91,345.68z"/>
   <path class="fil0" d="M5064.51 5232.65c0,172.52 15.81,340.54 26.56,500.75 5.16,76.86 29.1,277.77 71.24,334.4 11.12,14.93 60.62,57.24 77.97,57.24 141.69,0 485.23,-191.42 577.75,-260.56 98.31,-73.46 382.25,-316.1 382.25,-456.06 0,-356.96 -346.87,-957.77 -560.69,-1061.84 -542.14,-263.88 -575.08,531.21 -575.08,886.07z"/>
   <path class="fil0" d="M5551.26 20619.62c0,68.15 229.69,94.65 310.98,94.65 174.74,-260.95 303.86,-1286.15 324.5,-1622.54 37.11,-604.45 80.04,-741.28 -30.86,-1402.36 -30.72,-183.09 -80.56,-431.5 -157.6,-599.58 -18.18,-39.67 -9.89,-41.23 -54.91,-53.26 -12.06,45.16 -70.02,125.72 -94.65,175.78 -187.91,382.03 -175.01,169.67 -52.32,566.12 94.75,306.18 65.13,670.91 65.85,988.82 0.62,276.87 -49.64,714.48 -102.56,979.14l-157.2 654.06c-13.87,54.54 -51.25,157.34 -51.25,219.18z"/>
   <path class="fil0" d="M4942.82 18280.48c0,97.52 28.63,210.39 44.63,306.92 69.76,421.11 11.04,748.98 -79.71,1172.35 -39.3,183.32 -100.95,374.38 -181.11,535.51 -17.23,34.64 -67.76,130.93 -67.76,175.63 0,46.72 169.85,148.73 256.91,148.73 112.87,0 318.5,-639.21 349.78,-826.55 37.11,-222.13 70.06,-496.09 69.05,-728.69 -0.37,-83.5 12.74,-105.1 14.74,-175.48l-40.28 -555.53c-14.02,-124.7 -27.33,-241.35 -109.36,-296.27 -76.28,17.77 -256.9,168.28 -256.9,243.38z"/>
   <path class="fil0" d="M3428.45 16252.32c80.5,0 121.7,-25.47 121.7,-162.25 0,-130.7 -222.99,-392.32 -313.78,-538.06 -300.86,-483.02 -470.45,-1560.54 -470.45,-2179.68 0,-54.21 -0.09,-108.37 -0.32,-162.57l27.36 -499.96c-38.04,54.74 -100.63,385.57 -111.7,442.66 -30.55,157.64 -34.29,340.13 -49.93,518.13l40.33 796.55c4.11,75.79 20.12,172.58 34.4,249.55 64.74,348.83 421.87,1535.62 722.39,1535.62z"/>
   <path class="fil0" d="M4199.16 19132.31c0,505.33 -134.33,797.2 -333.61,1221.33 -8.41,17.88 -32.34,70.45 -36.7,86.51 -24.02,88.56 136.9,162.89 208.05,179.48 207.73,-139.11 500.28,-985.69 500.28,-1284.51 0,-231.38 3.28,-270.01 -31.09,-509.74 -15.62,-109.03 -18.2,-232.99 -155.28,-191.76 -63.24,19.02 -194.84,111.32 -201.41,175.19 -5.29,51.27 49.76,222.98 49.76,323.5z"/>
   <path class="fil0" d="M3117.47 20349.2c0,58.24 141.54,131.3 216.33,148.73 16.91,-25.25 24.29,-28.88 40,-54.65 102.49,-168.14 172.36,-261.64 239.04,-464.07 69.91,-212.24 71.05,-472.3 18.43,-698.18 -111.19,2.48 -229.49,32.89 -230.57,161.54 -5.85,696.76 -283.23,794.04 -283.23,906.62z"/>
  </g>
 </g>
</svg>
